<?xml version="1.0" encoding="UTF-8"?>
<svg width="24px" height="24px" viewBox="0 0 24 24" version="1.1" xmlns="http://www.w3.org/2000/svg" xmlns:xlink="http://www.w3.org/1999/xlink">
    <!-- Generator: Sketch 44.1 (41455) - http://www.bohemiancoding.com/sketch -->
    <title>Fill 1</title>
    <desc>Created with Sketch.</desc>
    <defs></defs>
    <g id="Welcome" stroke="none" stroke-width="1" fill="none" fill-rule="evenodd">
        <g id="⟶-Homepage-List" transform="translate(-29.000000, -201.000000)" fill="#1E314A">
            <g id="Page-1" transform="translate(29.000000, 201.000000)">
                <path d="M10.0314472,1.94157303 C14.510818,1.94157303 18.1213348,5.55202247 18.1213348,10.0314607 C18.1213348,14.510764 14.510818,18.1213483 10.0314472,18.1213483 C5.5520764,18.1213483 1.94155955,14.510764 1.94155955,10.0314607 C1.94155955,5.55202247 5.5520764,1.94157303 10.0314472,1.94157303 L10.0314472,1.94157303 Z M10.0314472,-5.68434189e-14 C4.50275056,-5.68434189e-14 -1.34831461e-05,4.50269663 -1.34831461e-05,10.0314607 C-1.34831461e-05,15.5600899 4.50275056,20.0629888 10.0314472,20.0629888 C12.4474247,20.0629888 14.6682337,19.1970337 16.4022337,17.7674157 L22.287627,23.6629213 C22.6667056,24.0419326 23.2838292,24.042 23.6629079,23.6629213 C24.0420539,23.2838427 24.0420539,22.6667865 23.6629079,22.2877079 L17.7674022,16.4022472 C19.1970202,14.6681798 20.0629079,12.4474382 20.0629079,10.0314607 C20.0629079,4.50276404 15.5600764,-5.68434189e-14 10.0314472,-5.68434189e-14 Z" id="Fill-1"></path>
            </g>
        </g>
    </g>
</svg>