<?xml version="1.0" encoding="utf-8"?>
<!-- Generator: Adobe Illustrator 15.0.0, SVG Export Plug-In . SVG Version: 6.00 Build 0)  -->
<!DOCTYPE svg PUBLIC "-//W3C//DTD SVG 1.1//EN" "http://www.w3.org/Graphics/SVG/1.1/DTD/svg11.dtd">
<svg version="1.1" id="Layer_1" xmlns="http://www.w3.org/2000/svg" xmlns:xlink="http://www.w3.org/1999/xlink" x="0px" y="0px"
	 width="20px" height="20px" viewBox="0 -5.083 20 20" enable-background="new 0 -5.083 20 20" xml:space="preserve">
<title>Navigation - Close</title>
<desc>Created with Sketch.</desc>
<path fill="#FFFFFF" d="M7.622,5.164c0.07,0.188,0.008,0.278-0.187,0.278H6.913c-0.34,0-0.451-0.056-0.513-0.257L6.185,4.531H4.469
	L4.247,5.185C4.17,5.386,4.08,5.442,3.739,5.442H3.26c-0.194,0-0.257-0.091-0.187-0.278l1.66-4.418
	C4.796,0.558,4.879,0.51,5.08,0.51h0.534c0.202,0,0.286,0.048,0.348,0.222L7.622,5.164z M5.532,2.538
	C5.441,2.24,5.372,1.864,5.364,1.675L5.358,1.544h-0.07c0.008,0.327-0.048,0.66-0.159,0.986L4.768,3.615h1.125L5.532,2.538z"/>
<path fill="#FFFFFF" d="M11.725,0.51c0.215,0,0.276,0.07,0.276,0.286v4.362c0,0.217-0.062,0.285-0.276,0.285h-0.562
	c-0.133,0-0.223-0.042-0.278-0.133L9.522,3.241c-0.244-0.362-0.439-0.793-0.584-1.3H8.889c0.132,0.625,0.194,1.146,0.194,1.556v1.66
	c0,0.216-0.069,0.285-0.284,0.285H8.284c-0.215,0-0.285-0.069-0.285-0.285V0.795c0-0.216,0.07-0.286,0.285-0.286H8.86
	c0.119,0,0.209,0.042,0.271,0.132l1.391,2.104c0.166,0.25,0.317,0.577,0.396,0.757c0.076,0.182,0.167,0.467,0.174,0.486h0.058
	c-0.146-0.458-0.224-0.973-0.224-1.536V0.795c0-0.216,0.068-0.286,0.284-0.286L11.725,0.51L11.725,0.51z"/>
<path fill="#FFFFFF" d="M16.797,0.51c0.201,0,0.249,0.125,0.146,0.286l-1.633,2.729v1.632c0,0.216-0.069,0.285-0.285,0.285h-0.562
	c-0.215,0-0.285-0.069-0.285-0.285V3.509l-1.633-2.714c-0.104-0.16-0.054-0.286,0.146-0.286h0.646c0.182,0,0.307,0.014,0.368,0.035
	c0.063,0.028,0.117,0.097,0.181,0.215l0.868,1.62l0.882-1.62c0.063-0.118,0.133-0.188,0.195-0.215
	c0.062-0.021,0.18-0.035,0.359-0.035L16.797,0.51L16.797,0.51z"/>
<path fill="#FFFFFF" d="M3.438,9.081c0.043,0.117,0.004,0.175-0.117,0.175H2.993c-0.214,0-0.283-0.035-0.324-0.16L2.534,8.683H1.456
	l-0.14,0.412c-0.048,0.125-0.105,0.16-0.319,0.16H0.696c-0.123,0-0.162-0.058-0.118-0.175l1.043-2.776
	c0.04-0.119,0.092-0.149,0.218-0.149h0.337c0.127,0,0.178,0.03,0.219,0.14L3.438,9.081z M2.124,7.431
	c-0.057-0.189-0.1-0.424-0.105-0.543L2.015,6.806H1.971c0.005,0.205-0.03,0.414-0.1,0.619L1.644,8.107h0.707L2.124,7.431z"/>
<path fill="#FFFFFF" d="M3.501,7.263c0-0.732,0.472-1.174,1.289-1.174c0.637,0,1.043,0.244,1.223,0.732
	C6.056,6.931,6.021,7.009,5.904,7.05L5.568,7.167C5.441,7.208,5.388,7.185,5.34,7.058C5.257,6.845,5.073,6.74,4.79,6.74
	c-0.385,0-0.577,0.176-0.577,0.521v0.891c0,0.345,0.192,0.52,0.577,0.52c0.283,0,0.467-0.104,0.55-0.318
	c0.048-0.127,0.104-0.156,0.228-0.108l0.336,0.117c0.117,0.04,0.152,0.119,0.109,0.228C5.833,9.079,5.427,9.324,4.79,9.324
	c-0.817,0-1.289-0.441-1.289-1.176V7.263z"/>
<path fill="#FFFFFF" d="M8.438,6.155c0.135,0,0.178,0.044,0.178,0.181v0.291c0,0.135-0.043,0.176-0.178,0.176H7.757v2.274
	c0,0.136-0.044,0.179-0.18,0.179H7.224c-0.135,0-0.174-0.043-0.174-0.179V6.802H6.364c-0.137,0-0.18-0.041-0.18-0.176V6.333
	c0-0.136,0.043-0.18,0.18-0.18L8.438,6.155L8.438,6.155z"/>
<path fill="#FFFFFF" d="M8.938,6.329c0-0.127,0.04-0.175,0.175-0.175h0.363c0.126,0,0.174,0.048,0.174,0.175v2.752
	c0,0.126-0.048,0.175-0.174,0.175H9.112c-0.135,0-0.175-0.049-0.175-0.175L8.938,6.329L8.938,6.329z"/>
<path fill="#FFFFFF" d="M12.695,6.155c0.119,0,0.158,0.058,0.115,0.175l-0.996,2.778c-0.041,0.116-0.098,0.147-0.219,0.147h-0.354
	c-0.126,0-0.179-0.031-0.218-0.141l-1-2.786C9.98,6.212,10.02,6.155,10.142,6.155h0.328c0.223,0,0.283,0.035,0.322,0.162
	l0.513,1.629c0.038,0.14,0.082,0.34,0.1,0.444l0.01,0.078h0.035c0.021-0.188,0.061-0.356,0.107-0.52l0.502-1.633
	c0.039-0.127,0.105-0.162,0.318-0.162L12.695,6.155L12.695,6.155z"/>
<path fill="#FFFFFF" d="M13.047,6.329c0-0.127,0.04-0.175,0.176-0.175h0.362c0.127,0,0.175,0.048,0.175,0.175v2.752
	c0,0.126-0.048,0.175-0.175,0.175h-0.362c-0.136,0-0.176-0.049-0.176-0.175V6.329z"/>
<path fill="#FFFFFF" d="M16.335,6.155c0.136,0,0.179,0.044,0.179,0.181v0.291c0,0.135-0.043,0.176-0.179,0.176h-0.683v2.274
	c0,0.136-0.043,0.179-0.18,0.179H15.12c-0.136,0-0.177-0.043-0.177-0.179V6.802h-0.685c-0.136,0-0.179-0.041-0.179-0.176V6.333
	c0-0.136,0.043-0.18,0.179-0.18L16.335,6.155L16.335,6.155z"/>
<path fill="#FFFFFF" d="M19.314,6.155c0.127,0,0.158,0.079,0.093,0.181L18.381,8.05v1.026c0,0.136-0.044,0.179-0.179,0.179h-0.354
	c-0.136,0-0.18-0.043-0.18-0.179V8.042l-1.025-1.707c-0.065-0.102-0.035-0.181,0.092-0.181h0.406c0.111,0,0.191,0.009,0.23,0.022
	c0.039,0.018,0.074,0.061,0.113,0.135l0.545,1.018l0.556-1.018c0.039-0.074,0.083-0.117,0.122-0.135
	c0.04-0.015,0.113-0.022,0.229-0.022H19.314z"/>
</svg>
