<?xml version="1.0" encoding="utf-8"?>
<!-- Generator: Adobe Illustrator 15.0.0, SVG Export Plug-In . SVG Version: 6.00 Build 0)  -->
<!DOCTYPE svg PUBLIC "-//W3C//DTD SVG 1.1//EN" "http://www.w3.org/Graphics/SVG/1.1/DTD/svg11.dtd">
<svg version="1.1" id="Layer_1" xmlns="http://www.w3.org/2000/svg" xmlns:xlink="http://www.w3.org/1999/xlink" x="0px" y="0px"
	 width="410px" height="410px" viewBox="-175.5 -180.5 410 410" enable-background="new -175.5 -180.5 410 410"
	 xml:space="preserve">
<g>
	<path fill="#FFFFFF" d="M-120.402-36.373C-112.592-31.092-103.119-27.996-93-28c6.742,0.001,13.209-1.371,19.075-3.854
		c8.805-3.726,16.269-9.927,21.551-17.743C-47.092-57.408-43.996-66.881-44-77c0.001-6.742-1.371-13.209-3.854-19.076
		c-3.726-8.804-9.928-16.269-17.743-21.551C-73.408-122.908-82.881-126.004-93-126c-6.742-0.002-13.209,1.371-19.076,3.854
		c-8.804,3.727-16.269,9.928-21.551,17.744C-138.909-96.592-142.004-87.119-142-77c-0.002,6.742,1.371,13.209,3.854,19.076
		C-134.42-49.12-128.219-41.656-120.402-36.373z M-122.488-89.453c2.422-5.731,6.491-10.635,11.603-14.087
		c5.118-3.451,11.229-5.456,17.886-5.46c4.441,0.001,8.629,0.896,12.453,2.512c5.731,2.422,10.635,6.491,14.087,11.604
		C-63.009-89.768-61.004-83.656-61-77c-0.002,4.441-0.896,8.629-2.512,12.453c-2.422,5.731-6.491,10.635-11.604,14.087
		C-80.232-47.009-86.344-45.004-93-45c-4.441-0.002-8.629-0.896-12.453-2.512c-5.731-2.422-10.635-6.491-14.087-11.604
		c-3.451-5.117-5.456-11.229-5.46-17.885C-124.999-81.441-124.104-85.629-122.488-89.453z"/>
	<path fill="#FFFFFF" d="M218.062-48.385c-16.364-38.684-43.678-71.571-78.067-94.807C105.61-166.426,64.102-180.004,19.5-180
		c-4.694,0-8.5,3.806-8.5,8.5s3.806,8.5,8.5,8.5c27.431,0.001,53.518,5.555,77.263,15.596
		c35.611,15.061,65.937,40.242,87.342,71.928C205.508-43.786,217.996-5.641,218,35.5c-0.001,27.431-5.555,53.519-15.596,77.263
		c-1.829,4.324,0.193,9.312,4.517,11.14c4.324,1.829,9.312-0.193,11.14-4.517C228.969,93.599,235.001,65.231,235,35.5
		C235.001,5.77,228.97-22.598,218.062-48.385z"/>
	<polygon fill="#FFFFFF" points="203.605,24.601 203.606,24.604 203.606,24.604 	"/>
	<path fill="#FFFFFF" d="M203.5,45.271c1-3.179,2.144-6.686,2.143-10.318c0.001-3.646-0.714-7.166-2.07-10.35
		c-1.355-3.186-3.289-6.039-5.693-8.434c-2.402-2.394-5.254-4.285-8.438-5.629c-3.184-1.346-6.688-2.041-10.329-2.041h-0.038
		l-33.152,0.102l-33.153,0.125L79.614,9.113L46.462,9.5H46.5c-3.636,0-7.143,0.492-10.318,1.836c-3.178,1.344-6.027,3.158-8.42,5.55
		c-2.395,2.394-4.332,5.183-5.676,8.358l-0.002-0.028c-1.26,2.979-1.982,6.237-2.067,9.635l-2.202,17.603l-2.249,17.996
		l-2.251,17.998l-1.262,10.105C5.99,97.846,0.197,96.302-5.214,94.014c-7.591-3.21-14.437-7.86-20.188-13.612
		c-5.75-5.751-10.402-12.597-13.611-20.187C-42.224,52.622-43.999,44.291-44,35.5c0.001-7.348,1.256-14.367,3.538-20.91L8.327,1.802
		L60.233-8.975c0.212,0.021,0.425,0.035,0.623,0.04c0.209,0.005,0.419,0.007,0.63,0.007c3.568,0.002,7.016-0.719,10.14-2.033
		c4.691-1.971,8.541-5.257,11.361-9.388c2.82-4.128,4.513-9.134,4.513-14.456v0.011l3-92.03v-0.043c0-0.184-0.227-0.387-0.227-0.609
		c0-3.55-0.818-6.982-2.102-10.11c-1.926-4.694-5.202-8.71-9.311-11.599c-4.101-2.891-9.164-4.645-14.54-4.768
		c-0.214-0.006-0.441-0.008-0.653-0.008c-3.567-0.002-7.021,0.719-10.145,2.033c-4.691,1.972-8.617,5.258-11.437,9.39
		c-2.821,4.128-4.587,9.134-4.587,14.457v-0.04l-2.033,70.729l-26.793,5.63l-43.105,9.063l-0.374,0.087
		c-23.01,5.918-39.454,16.435-50.116,25.539C-94.141-9.203-99.087-2.406-100.49-0.347l-33.434,38.458l-33.784,38.861l0.027-0.031
		c-4.419,5.027-6.771,11.334-6.765,17.586c0,0.484-0.055,0.971-0.055,1.458v-0.006c0,3.366,1.117,6.707,2.605,9.816
		c1.293,2.707,3.136,5.235,5.384,7.427c0.001,0.003,0.026,0.005,0.026,0.005l55.144,73.728l0.013,0.009
		c2.584,3.448,5.89,6.131,9.539,7.926c3.65,1.798,7.65,2.724,11.686,2.724c5.479,0.008,11.07-1.734,15.78-5.272
		c3.412-2.556,6.062-5.824,7.821-9.429c1.766-3.606,2.656-7.544,2.656-11.501c0.004-5.534-1.764-11.141-5.281-15.884l0.005-0.004
		l-43.532-60.467l7.188-8.758c0.289,0.773,0.967,1.566,0.967,2.406v0.002c3,8.178,7.678,15.948,12.589,23.219
		c4.913,7.272,10.498,14.042,16.679,20.224c6.183,6.183,12.949,11.774,20.219,16.686c7.273,4.913,15.041,9.145,23.221,12.604
		c8.18,3.46,16.767,6.147,25.669,7.968c8.899,1.822,18.112,2.777,27.536,2.777l0.609-0.021l3.914-0.281l3.916-0.281l3.916-0.281
		l3.786-0.271c3.476-0.062,6.829-0.797,9.874-2.093l-0.002,0.002c3.187-1.354,6.016-3.304,8.412-5.705
		c2.398-2.401,4.662-5.261,5.662-8.446v0.003c1-2.957,2.008-6.202,2.105-9.567l2.77-17.715l0.61-3.884l3.062,2.942l4.625,4.45
		l12.094,12.093l12.15,12.148l12.148,12.148l12.15,12.201c2.574,2.574,5.584,4.875,8.786,5.875h0.002c3.183,1,6.551,2,9.915,2h0.062
		c3.391,0,6.777-0.75,9.971-2.053c3.193-1.301,6.194-3.304,8.762-5.873c2.582-2.58,4.541-5.622,5.832-8.834l-0.002-0.236
		c1.264-3.135,1.898-6.004,1.922-10.004h0.002c0,0,0.033,0.379,0.033,0.239v-0.018c0-3.393-0.674-6.784-1.975-9.985
		c-1.299-3.203-3.266-6.214-5.842-8.788l-0.03-0.026l-23.549-23.337l-23.55-23.337l0.01,0.01L80.846,62.729
		c1.119-0.467,2.336-0.728,3.654-0.729l0.163-0.002l6.5-0.125l6.5-0.125l6.5-0.125l6.417-0.123h17.102h17.182h17.182h17.183
		c3.642,0.002,7.155-0.743,10.334-2.094c3.18-1.35,5.962-3.297,8.351-5.698c2.387-2.399,4.588-5.257,5.588-8.438V45.271z
		 M101.587,107.322l23.548,23.337l23.547,23.337l-0.026-0.026c0.948,0.949,1.652,2.015,2.12,3.163
		c0.467,1.147,0.725,2.378,0.725,3.609c0,0.011,0,0.016,0,0.027c0,1.235,0,2.459-1,3.597v0.003c0,1.14-1.003,2.196-1.945,3.14
		c-0.955,0.954-1.949,1.729-3.094,2.198c-1.143,0.467-2.297,0.793-3.516,0.793h-0.027c-1.214,0-2.422,0-3.548-1h0.002
		c-1.132,0-2.187-1.068-3.136-2.016l-12.15-12.116l-12.148-12.131l-12.15-12.141l-12.148-12.145l-0.117-0.112l-4.685-4.507
		l-4.685-4.507l-4.685-4.508l-2.284-2.197l1.879-12.075l1.761-11.327l27.754,27.594L101.587,107.322z M187.5,38.681v0.003
		c0,1.135-0.941,2.168-1.803,3.033c-0.861,0.867-1.768,1.562-2.894,2.04c-1.127,0.477-2.235,0.741-3.576,0.743h-17.183h-17.182
		h-17.182H110.5l-0.164,0.002l-6.5,0.125l-6.5,0.125l-6.418,0.125L84.5,45.002v0.002c-4,0.021-7.108,0.758-10.235,2.082
		c-3.179,1.344-6.069,3.283-8.462,5.675c-2.395,2.394-4.353,5.245-5.696,8.421l-0.013,0.003c-1.244,2.943-1.971,6.175-2.069,9.528
		l-2.759,17.721l-2.838,18.24l-2.838,18.238l-2.837,18.24c-0.077,0.496-0.101,0.805-0.101,1.307
		c-0.002,1.337-0.268,2.573-0.75,3.716l-0.002,0.003c-0.482,1.143-1.189,2.281-2.065,3.16c-0.876,0.877-1.917,1.162-3.054,2.162
		h-0.003c-1.139,0-2.369,0.653-3.703,0.654l-0.61-0.026l-3.916,0.257l-3.916,0.27l-3.916,0.275l-3.568,0.254
		c-8.184-0.019-16.162-0.853-23.865-2.43c-7.789-1.594-15.299-3.944-22.455-6.971c-7.157-3.027-13.959-6.732-20.328-11.035
		c-6.367-4.301-12.301-9.201-17.719-14.619c-5.416-5.417-10.131-11.351-14.434-17.719C-81.953,96.042-85.5,89.239-88.5,82.082v0.002
		c-1-1.658-1.309-2.885-1.602-3.918c-0.219-0.777-0.463-1.455-0.597-2.195c-0.201-1.101-0.405-2.39-0.638-4.115
		c-0.23-1.705-0.564-3.794-1.085-6.344c0,0-0.014-0.013-0.015-0.02c-0.004-0.016-0.012-0.031-0.016-0.047
		c-0.017-0.082-0.046-0.16-0.065-0.24c-0.043-0.186-0.087-0.371-0.144-0.553c-0.035-0.113-0.078-0.221-0.117-0.332
		c-0.054-0.151-0.105-0.303-0.168-0.452c-0.051-0.122-0.11-0.239-0.166-0.358c-0.062-0.131-0.123-0.264-0.191-0.393
		c-0.066-0.123-0.141-0.24-0.213-0.359c-0.071-0.117-0.14-0.236-0.217-0.352c-0.082-0.123-0.174-0.238-0.262-0.357
		c-0.078-0.104-0.152-0.207-0.235-0.308c-0.104-0.127-0.218-0.246-0.329-0.366c-0.078-0.084-0.15-0.17-0.232-0.25
		c-0.14-0.139-0.289-0.269-0.438-0.397c-0.059-0.05-0.11-0.104-0.17-0.153c0,0-0.014-0.01-0.02-0.016
		c-0.173-0.141-0.354-0.27-0.537-0.396c-0.215-0.149-0.436-0.286-0.66-0.412c-0.064-0.036-0.125-0.078-0.189-0.112
		c-0.176-0.094-0.355-0.172-0.535-0.252c-0.072-0.032-0.142-0.07-0.215-0.1c-0.162-0.067-0.328-0.121-0.493-0.178
		c-0.098-0.033-0.193-0.071-0.292-0.102c-0.139-0.041-0.279-0.071-0.42-0.105c-0.131-0.032-0.26-0.069-0.394-0.096
		c-0.11-0.021-0.222-0.032-0.333-0.049c-0.164-0.025-0.326-0.055-0.492-0.07c-0.091-0.008-0.182-0.008-0.271-0.014
		c-0.186-0.012-0.369-0.025-0.557-0.024c-0.142,0.001-0.283,0.015-0.425,0.021c-0.181,0.01-0.36,0.021-0.541,0.042
		c-0.232,0.027-0.464,0.06-0.692,0.105c-0.008,0.002-0.016,0.002-0.023,0.004c-0.071,0.015-0.138,0.037-0.208,0.054
		c-0.197,0.046-0.395,0.093-0.588,0.151c-0.105,0.033-0.206,0.073-0.31,0.109c-0.159,0.056-0.318,0.109-0.475,0.175
		c-0.117,0.049-0.229,0.105-0.342,0.159c-0.137,0.064-0.274,0.127-0.408,0.199c-0.118,0.063-0.23,0.135-0.346,0.203
		c-0.123,0.074-0.246,0.146-0.366,0.227c-0.116,0.078-0.227,0.164-0.339,0.248c-0.109,0.082-0.221,0.162-0.327,0.25
		c-0.118,0.098-0.229,0.203-0.342,0.308c-0.092,0.085-0.186,0.165-0.274,0.254c-0.125,0.126-0.24,0.261-0.357,0.394
		c-0.062,0.072-0.13,0.137-0.19,0.211l-22.585,27.572c-0.029,0.037-0.054,0.076-0.082,0.112c-0.11,0.139-0.213,0.28-0.313,0.425
		c-0.064,0.092-0.129,0.184-0.189,0.278c-0.085,0.134-0.164,0.271-0.241,0.407c-0.064,0.114-0.128,0.228-0.187,0.344
		c-0.06,0.119-0.114,0.24-0.168,0.361c-0.062,0.139-0.122,0.275-0.176,0.416c-0.04,0.105-0.075,0.213-0.112,0.32
		c-0.053,0.156-0.104,0.312-0.147,0.47c-0.027,0.102-0.05,0.204-0.074,0.308c-0.038,0.162-0.075,0.324-0.104,0.487
		c-0.019,0.11-0.032,0.222-0.047,0.333c-0.021,0.155-0.041,0.309-0.053,0.465c-0.011,0.128-0.013,0.257-0.018,0.385
		c-0.004,0.139-0.01,0.277-0.007,0.416c0.002,0.146,0.012,0.291,0.021,0.437c0.009,0.122,0.016,0.243,0.029,0.365
		c0.018,0.155,0.043,0.31,0.068,0.464c0.02,0.114,0.037,0.229,0.061,0.342c0.031,0.15,0.071,0.301,0.111,0.451
		c0.031,0.117,0.062,0.236,0.1,0.353c0.042,0.136,0.092,0.27,0.142,0.403c0.049,0.132,0.098,0.263,0.153,0.393
		c0.049,0.113,0.103,0.225,0.156,0.338c0.071,0.146,0.145,0.293,0.224,0.436c0.052,0.094,0.108,0.188,0.165,0.279
		c0.093,0.153,0.189,0.305,0.292,0.453c0.026,0.037,0.047,0.076,0.073,0.113l47.349,65.768l0.099,0.133
		c1.355,1.814,1.969,3.826,1.974,5.821c0,1.407-0.316,2.787-0.925,4.03c-0.612,1.245-1.5,2.358-2.75,3.299
		c-1.725,1.286-3.627,1.866-5.58,1.873c-1.432,0.001-2.868-0.331-4.173-0.974c-1.307-0.646-2.479-1.588-3.446-2.875l0.006,0.009
		l-54.74-73.203c-0.455-0.795-1.039-1.533-1.767-2.172c-1.003-0.883-1.811-1.869-2.325-2.94c-0.512-1.069-0.953-2.229-0.953-3.417
		v-0.006c0-0.166,0.068-0.336,0.068-0.508c0.006-2.224,0.815-4.462,2.485-6.371l0.048-0.031l33.793-38.859l33.789-38.861
		c0.226-0.26,0.549-0.688,0.742-0.987l0.001,0.001c0.05-0.082,4.058-6.203,12.683-13.559c9.037-7.702,23.074-16.765,43.185-21.972
		l42.859-9.013l33.332-7.01c0.065-0.014,0.126-0.035,0.19-0.051c0.183-0.043,0.363-0.088,0.541-0.143
		c0.102-0.031,0.201-0.066,0.303-0.102c0.159-0.055,0.317-0.112,0.473-0.177c0.116-0.048,0.229-0.101,0.342-0.153
		c0.131-0.062,0.264-0.125,0.392-0.193c0.124-0.066,0.247-0.137,0.368-0.209c0.11-0.066,0.22-0.133,0.326-0.205
		c0.127-0.082,0.248-0.17,0.369-0.26c0.099-0.072,0.195-0.146,0.29-0.223c0.116-0.094,0.229-0.191,0.341-0.292
		c0.093-0.085,0.186-0.17,0.275-0.259c0.1-0.099,0.197-0.201,0.293-0.305c0.092-0.101,0.183-0.203,0.271-0.308
		c0.082-0.099,0.161-0.199,0.239-0.302c0.09-0.119,0.178-0.24,0.263-0.363c0.065-0.098,0.129-0.195,0.19-0.295
		c0.084-0.135,0.164-0.271,0.24-0.409c0.055-0.1,0.105-0.2,0.156-0.302c0.07-0.143,0.139-0.287,0.201-0.434
		c0.047-0.109,0.09-0.219,0.132-0.33c0.053-0.141,0.104-0.283,0.15-0.428c0.041-0.129,0.077-0.26,0.112-0.391
		s0.068-0.26,0.097-0.392c0.033-0.154,0.06-0.31,0.085-0.466c0.018-0.116,0.036-0.23,0.05-0.348
		c0.021-0.173,0.032-0.347,0.041-0.521c0.004-0.074,0.015-0.146,0.018-0.221h-0.001l2.184-77.428l0.002-0.04
		c0.067-2.689,1.135-4.971,2.799-6.636c0.832-0.828,1.809-1.486,2.885-1.938c1.078-0.452,2.253-0.704,3.553-0.706l0.232,0.003
		c1.316,0.032,2.507,0.317,3.595,0.802c1.628,0.726,3.022,1.924,4.006,3.426c0.981,1.506,1.549,3.278,1.552,5.254
		c0,0.07-0.001,0.16-0.004,0.271l-0.112-0.044L70.5-35.22v0.011c0,2.689-1.021,4.971-2.687,6.637
		c-0.834,0.828-1.753,1.486-2.829,1.939c-1.023,0.429-2.109,0.67-3.332,0.695L61.262-26c-0.998-0.155-2.039-0.129-3.028,0.076
		L4.652-14.799l-0.426,0.101l-53.225,13.95c-0.042,0.012-0.08,0.027-0.123,0.039c-0.15,0.043-0.297,0.092-0.445,0.142
		c-0.124,0.042-0.249,0.083-0.371,0.13c-0.123,0.049-0.243,0.104-0.365,0.158c-0.137,0.061-0.273,0.121-0.406,0.188
		c-0.103,0.053-0.2,0.111-0.301,0.168c-0.141,0.079-0.283,0.158-0.418,0.244c-0.096,0.062-0.188,0.129-0.28,0.194
		c-0.13,0.091-0.261,0.181-0.386,0.278c-0.102,0.08-0.198,0.168-0.297,0.253c-0.105,0.092-0.215,0.181-0.315,0.278
		c-0.106,0.102-0.207,0.211-0.309,0.318c-0.085,0.091-0.173,0.179-0.255,0.272c-0.098,0.114-0.189,0.235-0.282,0.354
		c-0.077,0.1-0.155,0.197-0.228,0.299c-0.08,0.113-0.153,0.233-0.229,0.352c-0.076,0.121-0.154,0.241-0.225,0.365
		c-0.06,0.105-0.113,0.214-0.168,0.322c-0.076,0.148-0.15,0.297-0.219,0.45c-0.016,0.036-0.035,0.069-0.051,0.106
		C-58.748,13.799-61.001,24.409-61,35.5l0,0l0,0l0,0v0.001c-0.002,11.091,2.252,21.7,6.33,31.336
		c4.075,9.638,9.969,18.307,17.247,25.585c7.279,7.279,15.948,13.172,25.587,17.248c9.634,4.077,20.244,6.331,31.336,6.33
		c4.283,0,7.902-3.195,8.434-7.445l2.251-18l2.249-18l2.251-18l2.249-18C36.979,36.203,37,35.854,37,35.5
		c0.001-1.334,0.266-2.562,0.742-3.695c0.479-1.132,1.176-2.158,2.039-3.021c0.865-0.865,1.895-1.312,3.022-1.79
		c1.132-0.478,2.361-0.493,3.696-0.493h0.038l33.152-0.398l33.153-0.273l33.153-0.212l33.117-0.18
		c1.34,0.001,2.579,0.252,3.724,0.733c1.144,0.482,1.955,1.18,2.83,2.053c0.877,0.872,1.832,1.9,1.832,3.033v0.002
		c1,1.134,0.744,2.361,0.746,3.695C188.245,36.303,188.5,37.542,187.5,38.681z"/>
</g>
</svg>
