<?xml version="1.0" encoding="utf-8"?>
<!-- Generator: Adobe Illustrator 15.0.0, SVG Export Plug-In . SVG Version: 6.00 Build 0)  -->
<!DOCTYPE svg PUBLIC "-//W3C//DTD SVG 1.1//EN" "http://www.w3.org/Graphics/SVG/1.1/DTD/svg11.dtd">
<svg version="1.1" id="Layer_1" xmlns="http://www.w3.org/2000/svg" xmlns:xlink="http://www.w3.org/1999/xlink" x="0px" y="0px"
	 width="60px" height="50px" viewBox="0 0 60 50" enable-background="new 0 0 60 50" xml:space="preserve">
<g>
	<path fill="#FFFFFF" d="M30.313,7.06v0.534c6.294-0.001,12.001,1.098,16.136,2.856c2.068,0.878,3.738,1.92,4.892,3.047
		c1.156,1.129,1.785,2.319,1.863,3.531c0.019,0.281,0.251,0.499,0.532,0.499h0.012v-0.534h-0.534v14.93
		c0,1.179-0.513,2.325-1.521,3.431c-1.115,1.223-2.84,2.362-5.023,3.315c-2.118,0.925-4.667,1.677-7.51,2.188h-0.002
		c-0.838,0.151-1.702,0.281-2.59,0.39c-1.987,0.242-4.088,0.373-6.255,0.373c-0.75,0-1.491-0.017-2.221-0.047h-0.001
		c-0.832-0.033-1.649-0.087-2.451-0.159c-2.496-0.223-4.846-0.62-6.972-1.161l-0.001-0.001c-0.757-0.191-1.486-0.402-2.184-0.629
		c-2.136-0.693-3.976-1.546-5.423-2.5l0,0c-0.599-0.393-1.128-0.805-1.586-1.229c-1.363-1.262-2.061-2.604-2.061-3.972v-14.93H6.878
		v0.534h0.011c0.282,0,0.515-0.218,0.533-0.499c0.079-1.211,0.707-2.402,1.863-3.531c1.729-1.692,4.626-3.187,8.271-4.235
		c3.646-1.052,8.035-1.668,12.758-1.668L30.313,7.06l0.001-0.534c-6.421,0-12.247,1.112-16.555,2.942
		c-2.155,0.917-3.933,2.012-5.219,3.266c-1.283,1.25-2.083,2.68-2.183,4.226l0.533,0.034V16.46H6.878
		c-0.141,0-0.278,0.057-0.377,0.156c-0.1,0.1-0.157,0.237-0.157,0.377v14.93c0,1.752,0.902,3.371,2.404,4.757
		c0.506,0.467,1.083,0.912,1.725,1.336v-0.002c1.55,1.021,3.472,1.905,5.681,2.625c0.721,0.233,1.473,0.45,2.253,0.648l-0.001-0.001
		c2.187,0.557,4.591,0.963,7.141,1.19c0.82,0.073,1.654,0.129,2.502,0.162l0,0c0.746,0.031,1.501,0.047,2.267,0.047
		c2.211,0,4.353-0.131,6.387-0.381c0.904-0.109,1.789-0.24,2.648-0.399v0.002c2.912-0.524,5.537-1.296,7.748-2.261
		c2.278-0.998,4.123-2.194,5.385-3.573c1.135-1.239,1.802-2.648,1.8-4.15v-14.93c0-0.14-0.056-0.277-0.157-0.377
		c-0.1-0.099-0.234-0.156-0.376-0.156h-0.013v0.533l0.533-0.034c-0.101-1.546-0.898-2.976-2.183-4.226
		c-1.931-1.878-4.965-3.411-8.721-4.498c-3.759-1.083-8.238-1.71-13.053-1.71V7.06H30.313z"/>
	<path fill="#FFFFFF" d="M50.471,20.287c-2.125,1.664-4.709,2.704-7.347,3.462c-2.937,0.844-5.972,1.333-9.026,1.55
		c-1.272,0.09-2.549,0.136-3.824,0.136c-1.856,0-3.711-0.097-5.554-0.298c-2.985-0.325-5.958-0.895-8.776-1.876
		c-2.305-0.801-4.649-1.868-6.418-3.464c-0.203-0.183-0.397-0.374-0.582-0.573c-0.199-0.217-0.537-0.23-0.754-0.031
		c-0.217,0.2-0.231,0.538-0.031,0.755c0.208,0.225,0.426,0.439,0.652,0.643c1.943,1.748,4.414,2.854,6.78,3.68
		c2.917,1.015,5.97,1.598,9.012,1.929c1.882,0.204,3.776,0.304,5.669,0.304c1.302,0,2.602-0.046,3.899-0.138
		c3.12-0.222,6.229-0.722,9.246-1.589c2.707-0.778,5.422-1.859,7.71-3.647c0.23-0.182,0.271-0.517,0.092-0.75
		C51.038,20.146,50.703,20.105,50.471,20.287z"/>
	<path fill="#FFFFFF" d="M17.95,17.405c-0.359-0.358-0.493-0.67-0.493-0.948c0-0.184,0.055-0.369,0.191-0.583
		c0.235-0.373,0.744-0.798,1.49-1.188c2.243-1.183,6.516-2.027,11.377-2.022c3.705-0.001,7.062,0.481,9.448,1.242
		c1.19,0.379,2.142,0.83,2.754,1.293c0.308,0.231,0.528,0.462,0.664,0.674c0.136,0.214,0.188,0.399,0.191,0.583
		c-0.001,0.264-0.117,0.552-0.435,0.887c-0.312,0.331-0.815,0.678-1.476,0.998c-0.267,0.129-0.375,0.449-0.246,0.714
		c0.128,0.265,0.446,0.375,0.714,0.247c0.736-0.359,1.338-0.759,1.781-1.223c0.439-0.459,0.729-1.014,0.729-1.623
		c0-0.414-0.136-0.812-0.361-1.16c-0.397-0.613-1.051-1.113-1.893-1.556c-2.525-1.314-6.882-2.139-11.873-2.146
		c-3.8,0.002-7.24,0.488-9.772,1.293c-1.268,0.404-2.309,0.885-3.072,1.458c-0.381,0.287-0.694,0.598-0.92,0.95
		c-0.226,0.349-0.361,0.746-0.361,1.16c0,0.647,0.324,1.229,0.811,1.707c0.209,0.208,0.547,0.205,0.755-0.004
		S18.16,17.613,17.95,17.405z"/>
	<path fill="#FFFFFF" d="M30.729,10.017c4.735-0.001,9.023,0.709,12.082,1.833c1.527,0.56,2.748,1.227,3.553,1.927
		c0.811,0.707,1.181,1.406,1.179,2.078c0.002,0.672-0.368,1.371-1.179,2.078c-1.206,1.054-3.346,2.017-6.063,2.688
		c-2.72,0.675-6.019,1.073-9.571,1.073c-4.736,0.001-9.024-0.709-12.083-1.834c-1.529-0.56-2.747-1.227-3.552-1.928
		c-0.81-0.707-1.18-1.406-1.18-2.077c0-0.564,0.255-1.136,0.814-1.729c0.556-0.589,1.41-1.169,2.506-1.688
		c0.266-0.125,0.379-0.444,0.253-0.711s-0.445-0.38-0.711-0.254c-1.176,0.56-2.135,1.194-2.823,1.918
		c-0.685,0.721-1.106,1.559-1.105,2.463c0,1.088,0.601,2.065,1.547,2.884c1.427,1.233,3.687,2.216,6.507,2.918
		c2.819,0.699,6.195,1.104,9.829,1.104c4.845,0,9.229-0.717,12.451-1.899c1.61-0.593,2.932-1.299,3.885-2.123
		c0.942-0.819,1.545-1.796,1.545-2.884s-0.603-2.065-1.545-2.883c-1.428-1.234-3.688-2.216-6.508-2.919
		c-2.818-0.699-6.195-1.103-9.828-1.104c-0.295,0-0.535,0.239-0.535,0.534C30.193,9.778,30.433,10.017,30.729,10.017z"/>
	<line fill="#FFFFFF" x1="37.395" y1="34.968" x2="36.672" y2="35.574"/>
	<path fill="#FFFFFF" d="M29.182,25.632c-0.132-0.263-0.454-0.369-0.716-0.235c-0.263,0.132-0.369,0.453-0.236,0.717l2.768,5.491
		l0.107,0.146l5.179,4.929c0.196,0.188,0.504,0.195,0.713,0.021l1.532-1.293c0.115-0.099,0.185-0.237,0.188-0.39
		c0.007-0.149-0.051-0.295-0.157-0.399l-4.612-4.539L31.77,25.87c-0.135-0.263-0.457-0.364-0.72-0.229
		c-0.262,0.137-0.364,0.457-0.229,0.721"/>
	<path fill="#FFFFFF" d="M32.255,35.264l-0.343-0.408l-0.346,0.408l0.346-0.408l-0.344-0.408l-4.91,4.123l-0.139,0.18l-1.409,2.968
		c-0.075,0.158-0.068,0.343,0.019,0.494s0.242,0.251,0.417,0.267c0.82,0.073,1.655,0.129,2.503,0.162
		c0.218,0.008,0.419-0.115,0.509-0.314l0.922-2.055l4.314-3.717c0.117-0.103,0.185-0.25,0.185-0.406
		c0-0.157-0.069-0.305-0.188-0.405l-1.533-1.293c-0.198-0.169-0.487-0.169-0.688-0.002l0.345,0.407l-0.345,0.408l1.055,0.893"/>
	<path fill="#FFFFFF" d="M27.583,41.889l0.487,0.219l0.022-0.534c-0.833-0.033-1.651-0.087-2.453-0.159l-0.047,0.533l0.482,0.228"/>
	<polyline fill="#FFFFFF" points="23.267,30.094 27.521,34.281 26.802,34.891 	"/>
	<path fill="#FFFFFF" d="M19.115,24.372c-0.129-0.264-0.449-0.374-0.714-0.245c-0.265,0.13-0.375,0.449-0.246,0.714l2.968,6.072
		l0.111,0.151l5.179,4.928c0.197,0.188,0.504,0.195,0.712,0.021l1.533-1.296c0.115-0.098,0.183-0.235,0.189-0.387
		c0.005-0.151-0.052-0.296-0.16-0.401l-4.611-4.537l-2.178-4.21c-0.135-0.262-0.457-0.364-0.719-0.229
		c-0.262,0.136-0.364,0.458-0.229,0.72l0,0"/>
	<path fill="#FFFFFF" d="M22.376,34.584l-0.335-0.414l-0.344,0.408l0.344-0.408l-0.336-0.416l-4.775,3.854l-0.152,0.197
		l-0.947,2.104c-0.062,0.14-0.063,0.296-0.001,0.436s0.178,0.245,0.323,0.292c0.72,0.234,1.472,0.451,2.252,0.649
		c0.254,0.063,0.517-0.065,0.621-0.308l0.716-1.66l4.173-3.444c0.122-0.101,0.192-0.252,0.193-0.41
		c0.001-0.155-0.068-0.308-0.189-0.411l-1.534-1.293c-0.196-0.165-0.48-0.168-0.68-0.007l0.336,0.416l-0.344,0.408l1.044,0.881"/>
	<path fill="#FFFFFF" d="M18.813,38.779l-0.767,1.777l0.49,0.211l0.131-0.518c-0.757-0.191-1.486-0.402-2.184-0.629l-0.165,0.508
		l0.487,0.219"/>
	<polyline fill="#FFFFFF" points="51.402,27.287 53.214,28.795 53.214,30.073 	"/>
	<path fill="#FFFFFF" d="M47.208,22.971c-0.159-0.249-0.489-0.321-0.737-0.163c-0.248,0.159-0.322,0.489-0.162,0.738l3.033,4.75
		l0.115,0.128l3.956,3.182c0.16,0.129,0.38,0.154,0.563,0.064c0.188-0.09,0.305-0.275,0.305-0.48v-2.646
		c0-0.157-0.069-0.308-0.191-0.408l-1.939-1.614l-2.867-4.536c-0.156-0.249-0.486-0.323-0.736-0.166
		c-0.248,0.158-0.322,0.487-0.165,0.736H48.38"/>
	<line fill="#FFFFFF" x1="47.268" y1="33.398" x2="46.6" y2="34.064"/>
	<path fill="#FFFFFF" d="M38.16,25.076c-0.165-0.244-0.497-0.308-0.741-0.141c-0.243,0.165-0.308,0.498-0.142,0.741l3.349,4.928
		l0.106,0.115l5.569,4.479c0.212,0.17,0.519,0.153,0.712-0.037l1.422-1.418c0.105-0.106,0.162-0.252,0.155-0.402
		c-0.007-0.149-0.075-0.29-0.192-0.387l-4.975-4.14l-2.52-4.013c-0.157-0.249-0.487-0.325-0.737-0.168
		C39.919,24.79,39.844,25.12,40,25.369"/>
	<path fill="#FFFFFF" d="M42.443,35.178l-0.357-0.396l-0.309,0.436l0.309-0.436l-0.355-0.396l-4.752,4.271
		c-0.076,0.067-0.133,0.161-0.16,0.263l-0.699,2.725c-0.045,0.172-0.001,0.353,0.115,0.483c0.115,0.134,0.289,0.199,0.467,0.181
		c0.902-0.111,1.789-0.242,2.648-0.401c0.229-0.04,0.405-0.228,0.436-0.457l0.17-1.345l4.128-3.768
		c0.12-0.107,0.183-0.264,0.173-0.426c-0.01-0.161-0.092-0.309-0.224-0.403l-1.636-1.161c-0.205-0.145-0.48-0.13-0.666,0.038
		l0.355,0.396l-0.309,0.436"/>
	<path fill="#FFFFFF" d="M38.919,39.775l-0.192,1.539l0.527,0.065l-0.096-0.524c-0.838,0.152-1.702,0.281-2.59,0.391l0.065,0.529
		l0.517,0.133"/>
	<path fill="#FFFFFF" d="M50.775,34.781l-0.311,0.436L50.775,34.781l-0.399-0.354l-3.894,4.378c-0.166,0.188-0.18,0.463-0.031,0.668
		c0.148,0.202,0.415,0.275,0.646,0.174c2.278-0.996,4.123-2.193,5.385-3.572c0.104-0.112,0.152-0.266,0.137-0.417
		s-0.098-0.291-0.223-0.38l-1.312-0.93c-0.222-0.158-0.526-0.123-0.708,0.079L50.775,34.781"/>
	<path fill="#FFFFFF" d="M51.777,36.148l0.311-0.437l-0.395-0.358c-1.115,1.222-2.84,2.361-5.023,3.314l0.214,0.489l0.398,0.354"/>
	<line fill="#FFFFFF" x1="13.468" y1="26.697" x2="13.553" y2="26.824"/>
	<path fill="#FFFFFF" d="M9.918,20.532c-0.102-0.277-0.409-0.418-0.686-0.315c-0.276,0.102-0.418,0.409-0.315,0.686l2.438,6.588
		l0.11,0.177l4.863,5.237c0.186,0.198,0.491,0.227,0.71,0.064l1.611-1.196c0.121-0.09,0.197-0.227,0.212-0.377
		c0.015-0.147-0.033-0.297-0.134-0.408l-4.33-4.82l-1.963-4.1c-0.127-0.266-0.446-0.378-0.712-0.251"/>
	<path fill="#FFFFFF" d="M16.786,31.829"/>
	<path fill="#FFFFFF" d="M10.391,37.188c-0.21,0.207-0.213,0.545-0.006,0.756c0.207,0.211,0.544,0.213,0.755,0.006l3.206-3.154
		c0.107-0.105,0.165-0.251,0.159-0.4c-0.005-0.151-0.074-0.291-0.189-0.389l-1.534-1.294c-0.208-0.175-0.515-0.166-0.712,0.021
		L8.742,35.9c-0.214,0.203-0.222,0.541-0.019,0.754c0.204,0.214,0.542,0.222,0.755,0.019"/>
	<path fill="#FFFFFF" d="M7.269,29.197c-0.2-0.217-0.538-0.229-0.754-0.028c-0.216,0.201-0.229,0.538-0.028,0.754l1.331,1.435
		c0.185,0.199,0.491,0.228,0.709,0.064l1.61-1.197c0.122-0.091,0.198-0.227,0.213-0.375c0.015-0.149-0.034-0.299-0.134-0.41
		l-2.94-3.274c-0.197-0.22-0.535-0.238-0.754-0.041c-0.219,0.196-0.237,0.534-0.04,0.754"/>
</g>
</svg>
