<?xml version="1.0" encoding="utf-8"?>
<!-- Generator: Adobe Illustrator 15.0.0, SVG Export Plug-In . SVG Version: 6.00 Build 0)  -->
<!DOCTYPE svg PUBLIC "-//W3C//DTD SVG 1.1//EN" "http://www.w3.org/Graphics/SVG/1.1/DTD/svg11.dtd">
<svg version="1.1" id="Layer_1" xmlns="http://www.w3.org/2000/svg" xmlns:xlink="http://www.w3.org/1999/xlink" x="0px" y="0px"
	 width="702px" height="702px" viewBox="-321.5 -326.5 702 702" enable-background="new -321.5 -326.5 702 702"
	 xml:space="preserve">
<g>
	<defs>
		<rect id="SVGID_1_" x="-207.5" y="-319.67" width="476.438" height="689.17"/>
	</defs>
	<clipPath id="SVGID_2_">
		<use xlink:href="#SVGID_1_"  overflow="visible"/>
	</clipPath>
	<path clip-path="url(#SVGID_2_)" fill="#FFFFFF" d="M205.105,271.194h-11.26c-0.004,6.484-2.596,12.252-6.84,16.515
		c-4.262,4.243-10.03,6.835-16.514,6.839c-6.486-0.004-12.254-2.596-16.516-6.839c-4.244-4.263-6.835-10.03-6.84-16.515
		c0.005-6.486,2.596-12.252,6.84-16.516c4.262-4.242,10.029-6.834,16.516-6.839c6.483,0.005,12.252,2.597,16.514,6.839
		c4.244,4.264,6.836,10.029,6.84,16.516H205.105h11.259c0.005-12.633-5.152-24.172-13.436-32.438
		c-8.265-8.283-19.806-13.441-32.437-13.436c-12.633-0.006-24.172,5.152-32.438,13.436c-8.283,8.266-13.44,19.805-13.435,32.438
		c-0.006,12.63,5.151,24.171,13.435,32.437c8.267,8.284,19.806,13.44,32.438,13.437c12.631,0.004,24.172-5.152,32.437-13.437
		c8.283-8.266,13.44-19.807,13.436-32.437H205.105z"/>
	<path clip-path="url(#SVGID_2_)" fill="#FFFFFF" d="M-71.57,137.024l-62.369-177.777c-1.857-5.28,1.361-10.92,7.18-12.608
		c5.783-1.683,12.035,1.245,13.892,6.52l62.363,177.77c1.854,5.28-1.361,10.926-7.179,12.612c-1.118,0.322-2.247,0.468-3.361,0.468
		C-65.723,144.01-70.075,141.291-71.57,137.024"/>
	<path clip-path="url(#SVGID_2_)" fill="#FFFFFF" d="M-182.377-46.826c-4.687,0-8.859-2.948-10.425-7.363l-14.064-39.742
		c-2.033-5.765,0.986-12.08,6.739-14.113c5.757-2.039,12.071,0.972,14.109,6.727l11.456,32.382"/>
	<path clip-path="url(#SVGID_2_)" fill="#FFFFFF" d="M-3.54-251.25l11.258,0.088l0.003-0.548
		c0.004-18.599-7.548-35.577-19.716-47.835c-12.152-12.274-29.072-19.98-47.704-20.123h0.007l-0.556-0.002
		c-18.604-0.005-35.58,7.548-47.836,19.72c-12.273,12.153-19.974,29.077-20.115,47.709l-0.004,0.55
		c-0.005,18.598,7.555,35.55,19.734,47.764c12.163,12.234,29.08,19.88,47.69,20.022l0.29,0.003l-0.281-0.003l0.54,0.003
		c18.58,0.005,35.551-7.491,47.816-19.621c12.283-12.111,19.992-29.009,20.132-47.638L-3.54-251.25l-11.258-0.089
		c-0.105,12.496-5.205,23.643-13.439,31.795c-8.251,8.134-19.502,13.119-31.993,13.123h-0.376l-0.296-0.003l0.304,0.003
		c-12.522-0.105-23.731-5.191-31.913-13.393c-8.165-8.221-13.168-19.411-13.173-31.877l0.001-0.37
		c0.104-12.503,5.212-23.71,13.456-31.901c8.259-8.176,19.507-13.187,31.979-13.191l0.365,0.002h0.007
		c12.495,0.104,23.698,5.213,31.89,13.459c8.174,8.263,13.184,19.513,13.189,31.982l-0.001,0.371L-3.54-251.25z"/>
	<path clip-path="url(#SVGID_2_)" fill="#FFFFFF" d="M-89.93,296.495v-11.261c-12.179-0.004-23.122-4.913-31.132-12.904
		c-7.992-8.011-12.903-18.951-12.907-31.131c0.004-12.18,4.915-23.122,12.907-31.134c8.012-7.992,18.955-12.902,31.132-12.906
		c12.181,0.004,23.123,4.914,31.133,12.906c7.994,8.012,12.903,18.952,12.907,31.134c-0.004,12.18-4.913,23.12-12.907,31.131
		c-8.01,7.991-18.952,12.9-31.133,12.904V296.495v11.259c18.339,0.005,35.045-7.474,47.055-19.502
		c12.028-12.007,19.509-28.716,19.504-47.053c0.005-18.338-7.476-35.045-19.502-47.056c-12.01-12.027-28.718-19.509-47.057-19.504
		c-18.337-0.005-35.044,7.477-47.054,19.504c-12.028,12.011-19.509,28.717-19.505,47.056c-0.004,18.337,7.477,35.046,19.505,47.053
		c12.011,12.028,28.718,19.507,47.054,19.502V296.495z M190.104,187.069l2.295-11.022L67.379,150.02l0.584-73.34l116.899-63.719
		l-0.043,0.023c9.043-4.95,16.626-12.183,22-20.945c5.374-8.756,8.525-19.086,8.608-30.048l0.003-0.476
		c0.005-14.821-5.447-28.663-14.875-39.056l-0.156-0.171L81.428-198.848l-8.031,7.889l8.488-7.398
		c-7.162-8.234-15.647-12.94-23.088-15.436c-7.469-2.512-13.944-2.965-17.965-2.971c-2.395,0-3.928,0.169-4.308,0.215l1.356,11.176
		l0.092-11.258l-0.435-0.003c-7.858-0.005-14.919,1.73-20.879,4.282c-8.962,3.846-15.492,9.395-19.88,13.958
		c-4.387,4.582-6.667,8.243-6.979,8.743l9.595,5.89l-9.442-6.133l-59.636,91.84l-88.337-0.856h-0.007l-0.408-0.003
		c-5.444-0.002-10.534,0.9-15.093,2.645c-6.848,2.596-12.405,7.145-16.042,12.632c-3.657,5.487-5.464,11.818-5.464,18.12
		c-0.012,8.347,3.211,16.834,9.666,23.197c3.21,3.173,7.197,5.766,11.739,7.522c4.542,1.762,9.618,2.694,15.056,2.736l120.926,0.958
		v-11.355h-11.259l-0.306,11.255c0.329,0.01,0.649,0.012,0.964,0.012c5.915,0.009,12.07-1.535,17.71-4.774
		c5.648-3.229,10.722-8.107,14.79-14.414l-0.018,0.028l29.65-45.571l54.688,55.017L11.509-11.454l5.164,10.005l-4.791-10.19
		C5.214-8.507-0.245-4.703-4.579-0.541c-6.517,6.237-10.403,13.23-12.52,19.446c-2.132,6.232-2.591,11.686-2.594,15.402
		c0,2.832,0.272,4.676,0.351,5.166l11.112-1.809l-11.258-0.089l-0.75,94.207l-32.982-6.866l-2.295,11.023l2.522-10.974
		c-9.149-2.101-18.487-3.155-27.754-3.157c-34.1-0.004-65.084,13.903-87.426,36.304c-22.36,22.384-36.232,53.407-36.227,87.544
		c-0.005,34.142,13.896,65.169,36.294,87.549c22.379,22.397,53.408,36.299,87.549,36.295h251.548
		c26.98,0.004,51.529-11.011,69.224-28.722c17.712-17.693,28.727-42.242,28.723-69.222c0.004-22.883-7.831-44.247-21.306-61.098
		c-13.461-16.862-32.601-29.263-55.026-34.367l-0.105-0.023l-0.101-0.021L190.104,187.069l-2.501,10.979
		c17.43,3.978,32.075,13.509,42.438,26.466c10.349,12.967,16.371,29.306,16.375,47.043c-0.004,20.805-8.438,39.598-22.124,53.299
		c-13.702,13.685-32.495,22.119-53.301,22.125H-80.557c-27.981-0.006-53.244-11.334-71.627-29.697
		c-18.363-18.383-29.693-43.646-29.697-71.627c0.004-27.987,11.316-53.255,29.645-71.635c18.348-18.363,43.56-29.688,71.489-29.694
		c7.553,0,15.224,0.865,22.711,2.585l0.114,0.027l59.983,12.485L3.036,36.797l-0.154-0.943l-4.552,0.742l4.577-0.582l-0.025-0.16
		l-4.552,0.742l4.577-0.582c-0.006-0.045-0.082-0.678-0.082-1.707c-0.006-2.432,0.44-6.896,2.825-11.494
		c1.2-2.316,2.871-4.713,5.36-7.105c2.494-2.388,5.823-4.788,10.453-6.967l0.19-0.091l84.552-43.638l-95.997-96.573l-44.85,68.93
		l-0.018,0.029c-2.369,3.653-4.811,5.797-7.071,7.098c-2.27,1.291-4.417,1.787-6.517,1.796l-0.353-0.005l-11.565-0.314v0.227
		l-98.227-0.777h0.001c-3.007-0.027-5.316-0.527-7.099-1.216c-2.667-1.053-4.244-2.48-5.358-4.125
		c-1.096-1.645-1.667-3.603-1.667-5.598c0.01-2.689,1.003-5.25,2.974-7.187c1.002-0.978,2.279-1.85,4.052-2.532
		c1.775-0.677,4.067-1.158,7.055-1.16l0.204,0.001l0.331,0.003l100.366,0.974L8.916-177.749l0.076-0.123l-4.939-3.03l4.899,3.096
		l0.04-0.066l-4.939-3.03l4.899,3.096c0-0.001,0.166-0.265,0.511-0.746c1.199-1.691,4.536-5.859,9.384-9.313
		c2.422-1.736,5.204-3.303,8.299-4.426c3.102-1.122,6.506-1.821,10.393-1.825l0.253,0.001l0.727,0.006l0.722-0.087l-0.887-7.302
		l0.792,7.314l0.095-0.012l-0.887-7.302l0.792,7.314l-0.068-0.628l0.061,0.628h0.008l-0.068-0.628l0.061,0.628
		c0.064-0.006,0.681-0.063,1.695-0.063c2.233-0.006,6.35,0.29,10.76,1.788c4.434,1.515,9.103,4.083,13.315,8.898l0.22,0.251
		L184.18-62.091l8.033-7.89l-8.344,7.56c5.666,6.264,9.036,14.622,9.042,23.936v0.302c-0.057,6.762-1.973,13.037-5.288,18.452
		c-3.314,5.409-8.039,9.914-13.611,12.96L45.551,63.251l-0.836,105.053l143.096,29.789L190.104,187.069l-2.501,10.979
		L190.104,187.069z"/>
	<path clip-path="url(#SVGID_2_)" fill="#FFFFFF" d="M197.976,35.539L123.4,75.573c-5.832,3.129-13.097,0.941-16.231-4.895
		c-3.136-5.839-0.938-13.104,4.891-16.233l74.574-40.031c5.833-3.132,13.099-0.945,16.234,4.891
		C206.003,25.144,203.806,32.407,197.976,35.539"/>
	<path clip-path="url(#SVGID_2_)" fill="#FFFFFF" d="M171.834,191.907c-5.996,0-11.176-4.255-11.893-10.056L143.107,45.699
		c-0.77-6.23,3.936-11.887,10.508-12.621c6.541-0.719,12.532,3.725,13.305,9.979l16.838,136.153
		c0.773,6.234-3.936,11.887-10.51,12.621C172.777,191.887,172.302,191.907,171.834,191.907"/>
	<path clip-path="url(#SVGID_2_)" fill="#FFFFFF" d="M-47.429-42.139l0.089-11.259l-109.576-0.868h0.001
		c-3.007-0.026-5.316-0.525-7.099-1.215c-2.667-1.054-4.244-2.478-5.358-4.123c-1.097-1.646-1.667-3.603-1.667-5.6
		c0.01-2.689,1.003-5.25,2.974-7.188c1.002-0.978,2.278-1.849,4.052-2.531c1.775-0.675,4.067-1.157,7.055-1.16l0.183,0.001
		l-0.165-0.001l100.881,0.976L10.395-177.44l0.074-0.12l-4.932-3.029l4.892,3.094l0.04-0.065l-4.932-3.029l4.892,3.094
		c0-0.001,0.166-0.265,0.511-0.746c1.199-1.691,4.536-5.859,9.384-9.313c2.422-1.736,5.204-3.303,8.299-4.426
		c3.102-1.122,6.506-1.821,10.393-1.825l0.197,0.001l0.754,0.01l0.75-0.091l-0.887-7.303l0.791,7.314l0.096-0.011l-0.887-7.303
		l0.791,7.314l-0.066-0.624l0.06,0.624h0.007l-0.066-0.624l0.06,0.624c0.063-0.005,0.681-0.062,1.695-0.062
		c2.233-0.006,6.35,0.29,10.759,1.788c4.434,1.514,9.104,4.083,13.316,8.898l0.22,0.252L185.655-61.78l8.033-7.89l-8.343,7.56
		c5.664,6.262,9.036,14.625,9.042,23.934v0.305v-0.074v0.067c-0.057,6.766-1.974,13.041-5.287,18.458
		c-3.315,5.409-8.037,9.912-13.611,12.957L47.028,63.563L45.961,197.82c-0.055,5.944-2.449,11.231-6.334,15.122
		c-3.899,3.876-9.131,6.226-15.025,6.231h-0.19h0.017c-5.913-0.055-11.121-2.447-14.988-6.354c-3.848-3.924-6.2-9.229-6.204-15.168
		v-0.163L4.512,37.109l-0.153-0.943l-4.55,0.742l4.575-0.582l-0.025-0.16l-4.55,0.742l4.575-0.582
		c-0.007-0.045-0.083-0.679-0.083-1.707c-0.005-2.432,0.441-6.898,2.826-11.497c1.2-2.315,2.871-4.712,5.36-7.104
		c2.493-2.388,5.821-4.788,10.451-6.966l0.191-0.09l84.553-43.64L11.686-131.25l-44.85,68.932l-0.018,0.03
		c-2.37,3.653-4.812,5.795-7.072,7.095c-2.271,1.292-4.421,1.788-6.523,1.796l-0.37-0.004l-11.54-0.288v11.55H-47.429l0.089-11.259
		L-47.429-42.139h11.26v-0.006h-11.26l-0.281,11.255c0.289,0.007,0.599,0.012,0.932,0.012c5.913,0.008,12.069-1.532,17.711-4.771
		c5.65-3.229,10.726-8.107,14.796-14.417l-0.009,0.014l29.641-45.559l54.688,55.018L12.986-11.142l5.163,10.005l-4.788-10.19
		C6.691-8.196,1.232-4.392-3.101-0.231C-9.619,6.007-13.504,13-15.622,19.216c-2.132,6.233-2.591,11.687-2.594,15.403
		c0,2.83,0.272,4.675,0.351,5.166l11.112-1.81l-11.258-0.089l-1.269,159.36v0.039l-0.001,0.365
		c-0.005,12.011,4.837,23.022,12.677,30.969c7.818,7.96,18.791,12.981,30.855,13.069l0.065,0.002l-0.048-0.002l0.333,0.002
		c12.049,0.007,23.053-4.922,30.938-12.814c7.904-7.877,12.846-18.854,12.938-30.876L69.44,76.993l116.841-63.692l0.014-0.007
		c9.043-4.95,16.629-12.183,22.003-20.946c5.371-8.756,8.523-19.085,8.605-30.048v-0.007l0.003-0.469
		c0.007-14.817-5.447-28.661-14.875-39.056l-0.155-0.17L82.905-198.538l-8.032,7.89l8.488-7.398
		c-7.162-8.234-15.646-12.939-23.088-15.436c-7.469-2.512-13.945-2.966-17.964-2.972c-2.396,0-3.929,0.17-4.31,0.216l1.358,11.176
		l0.146-11.258l-0.488-0.002c-7.858-0.006-14.919,1.728-20.879,4.283c-8.962,3.842-15.493,9.394-19.88,13.956
		c-4.388,4.581-6.667,8.242-6.979,8.743l9.595,5.89l-9.442-6.133l-59.637,91.839l-88.17-0.852l-0.151-0.002l-0.43-0.003
		c-5.444-0.001-10.535,0.899-15.093,2.644c-6.848,2.598-12.405,7.146-16.043,12.634c-3.656,5.487-5.463,11.819-5.463,18.119
		c-0.012,8.347,3.211,16.835,9.665,23.197c3.211,3.173,7.198,5.766,11.74,7.523c4.543,1.761,9.618,2.694,15.056,2.735l120.927,0.958
		v-11.348H-47.429z"/>
</g>
</svg>
