<?xml version="1.0" encoding="utf-8"?>
<!-- Generator: Adobe Illustrator 15.0.0, SVG Export Plug-In . SVG Version: 6.00 Build 0)  -->
<!DOCTYPE svg PUBLIC "-//W3C//DTD SVG 1.1//EN" "http://www.w3.org/Graphics/SVG/1.1/DTD/svg11.dtd">
<svg version="1.1" id="Layer_1" xmlns="http://www.w3.org/2000/svg" xmlns:xlink="http://www.w3.org/1999/xlink" x="0px" y="0px"
	 width="60px" height="60px" viewBox="0 -5 60 60" enable-background="new 0 -5 60 60" xml:space="preserve">
<g>
	<path fill="#FFFFFF" d="M23.186,11.794c-0.961-0.005-1.876,0.183-2.708,0.53c-0.833,0.347-1.584,0.853-2.218,1.477
		c-0.63,0.624-1.143,1.369-1.501,2.199c-0.358,0.829-0.555,1.741-0.562,2.701c-0.005,0.959,0.184,1.874,0.533,2.707
		c0.348,0.834,0.851,1.586,1.476,2.217c0.626,0.633,1.37,1.145,2.2,1.501c0.829,0.355,1.741,0.557,2.7,0.562
		c0.959,0.005,1.875-0.185,2.708-0.531c0.833-0.348,1.583-0.851,2.218-1.476c0.632-0.624,1.143-1.371,1.5-2.199
		c0.357-0.83,0.556-1.74,0.562-2.701v-0.009v-0.009v-0.011v-0.009c0-0.954-0.192-1.865-0.543-2.692
		c-0.352-0.828-0.856-1.574-1.48-2.201c-0.624-0.629-1.365-1.139-2.191-1.493C25.048,11.999,24.139,11.8,23.186,11.794z
		 M23.186,24.11c-0.742,0.005-1.451-0.139-2.095-0.407c-0.645-0.267-1.225-0.657-1.717-1.138c-0.489-0.484-0.885-1.059-1.162-1.699
		c-0.279-0.642-0.433-1.347-0.438-2.088c-0.005-0.741,0.139-1.447,0.407-2.094c0.27-0.646,0.656-1.225,1.14-1.715
		c0.484-0.489,1.059-0.886,1.7-1.164c0.638-0.276,1.345-0.431,2.086-0.436c0.743-0.004,1.451,0.139,2.093,0.407
		c0.644,0.268,1.225,0.656,1.716,1.138c0.49,0.484,0.888,1.058,1.167,1.7c0.276,0.64,0.431,1.345,0.436,2.085v0.01v0.009v0.01v0.01
		c-0.001,0.737-0.151,1.439-0.421,2.081c-0.271,0.639-0.659,1.216-1.141,1.701c-0.482,0.486-1.056,0.88-1.694,1.155
		C24.622,23.948,23.923,24.104,23.186,24.11z M37.014-4.729L37.014-4.729v-0.005v-0.014v-0.027l-0.016-0.037l-0.016-0.035
		L36.96-4.881l-0.018-0.037l-0.064-0.088L36.8-5.086l-0.079-0.07l-0.094-0.06l-0.031-0.011L36.561-5.24l-0.03-0.01l-0.034-0.011
		h-0.041h-0.037h-0.039H36.34h-0.021h-0.018h-0.021h-0.021h-0.024h-0.027h-0.026h-0.027h-0.027h-0.028H36.07h-0.028l-1.916,0.523
		l-1.919,0.524L30.29-3.692l-1.918,0.524l-0.24,0.111l-0.186,0.18l-0.12,0.231l-0.035,0.263v1.342v1.344v1.342v1.343l-0.303-0.136
		l-0.32-0.098l-0.326-0.06l-0.335-0.021c-0.394,0-0.77,0.081-1.113,0.224c-0.343,0.145-0.649,0.354-0.91,0.612
		c-0.259,0.259-0.466,0.567-0.612,0.909c-0.144,0.342-0.224,0.718-0.224,1.113c0,0.396,0.08,0.772,0.224,1.113
		c0.146,0.342,0.353,0.65,0.612,0.908c0.261,0.258,0.567,0.468,0.91,0.612c0.344,0.145,0.719,0.226,1.113,0.226
		c0.396,0,0.77-0.081,1.113-0.226c0.341-0.145,0.649-0.353,0.908-0.612c0.26-0.259,0.467-0.567,0.612-0.908
		c0.146-0.341,0.224-0.718,0.224-1.113V3.693V1.852v-1.84V-1.83l1.524-0.416l1.523-0.416l1.527-0.416l1.521-0.415v1.085v1.085v1.085
		v1.084l-0.303-0.136l-0.319-0.099l-0.327-0.06l-0.336-0.022c-0.394,0-0.77,0.081-1.112,0.224c-0.34,0.146-0.649,0.353-0.904,0.614
		c-0.262,0.259-0.47,0.566-0.617,0.907C31.4,2.619,31.317,2.996,31.317,3.39c0,0.394,0.082,0.771,0.225,1.113
		c0.146,0.343,0.354,0.65,0.617,0.91c0.255,0.258,0.564,0.466,0.904,0.613c0.343,0.145,0.719,0.224,1.112,0.224
		c0.397,0,0.774-0.081,1.112-0.224c0.344-0.145,0.654-0.354,0.911-0.613c0.259-0.259,0.469-0.566,0.615-0.91
		c0.144-0.341,0.223-0.718,0.223-1.113V1.422v-1.969v-1.969v-1.969l0.001-0.024l0.001-0.026l-0.001-0.026l-0.001-0.024l-0.003-0.036
		l-0.007-0.036l-0.006-0.036L37.014-4.729z M26.514,6.753c-0.177,0-0.346-0.035-0.5-0.1c-0.154-0.065-0.292-0.159-0.406-0.275
		c-0.115-0.116-0.21-0.254-0.274-0.407c-0.065-0.152-0.102-0.322-0.102-0.5c0-0.177,0.036-0.347,0.102-0.5
		c0.064-0.153,0.159-0.292,0.274-0.407c0.115-0.116,0.253-0.209,0.406-0.274c0.154-0.066,0.324-0.101,0.5-0.101
		c0.179,0,0.347,0.035,0.5,0.101c0.155,0.065,0.294,0.158,0.408,0.274c0.117,0.116,0.211,0.254,0.275,0.407
		c0.063,0.153,0.101,0.323,0.101,0.5c0,0.178-0.037,0.347-0.101,0.5c-0.066,0.153-0.159,0.292-0.275,0.407
		c-0.115,0.116-0.254,0.211-0.408,0.275C26.862,6.719,26.693,6.753,26.514,6.753z M34.186,4.658c-0.177,0-0.347-0.035-0.501-0.101
		c-0.152-0.064-0.29-0.159-0.407-0.276c-0.114-0.116-0.208-0.254-0.275-0.408c-0.062-0.155-0.102-0.322-0.102-0.5
		s0.039-0.348,0.102-0.5c0.067-0.153,0.161-0.292,0.275-0.408c0.119-0.116,0.255-0.21,0.407-0.276c0.154-0.064,0.324-0.1,0.501-0.1
		c0.179,0,0.349,0.036,0.502,0.1c0.153,0.066,0.292,0.161,0.406,0.276c0.118,0.116,0.209,0.255,0.274,0.408s0.1,0.323,0.1,0.5
		c0.002,0.177-0.031,0.345-0.097,0.5c-0.064,0.155-0.156,0.293-0.272,0.409c-0.116,0.117-0.25,0.212-0.406,0.278
		c-0.151,0.065-0.32,0.102-0.499,0.103h-0.002h-0.002l0,0h-0.004v0.002V4.663V4.661V4.658z M55.614,22.378v-0.025l0.002-0.025
		l-0.002-0.026v-0.026l0,0V22.27v-0.015v-0.027l-0.026-0.03l-0.026-0.03l-0.027-0.028l-0.031-0.027l-0.038-0.073l-0.048-0.065
		l-0.058-0.057l-0.067-0.048l-0.03-0.02l-0.027-0.019l-0.031-0.02l-0.025-0.021l-0.035-0.011l-0.035-0.013l-0.036-0.012
		l-0.035-0.012h-0.038h-0.04h-0.041h-0.044h-0.009h-0.008H54.85h-0.009h-0.023H54.79h-0.024h-0.027h-0.026h-0.026h-0.027h-0.025
		l-2.455,0.667l-2.453,0.668l-2.457,0.667l-2.456,0.667L44.57,24.52l-0.188,0.18l-0.118,0.233l-0.035,0.264v1.812v1.81v1.812v1.812
		c-0.399-0.257-0.832-0.42-1.27-0.496c-0.442-0.076-0.89-0.065-1.318,0.028c-0.429,0.092-0.842,0.269-1.21,0.518
		c-0.367,0.253-0.694,0.58-0.949,0.979c-0.258,0.399-0.422,0.83-0.497,1.271s-0.065,0.888,0.026,1.317
		c0.094,0.43,0.269,0.84,0.522,1.21c0.248,0.368,0.577,0.693,0.976,0.951c0.398,0.254,0.83,0.417,1.27,0.495
		c0.442,0.077,0.89,0.065,1.317-0.027c0.428-0.094,0.84-0.27,1.211-0.52c0.367-0.25,0.692-0.58,0.95-0.979
		c0.088-0.137,0.167-0.282,0.234-0.431c0.07-0.149,0.127-0.302,0.173-0.459c0.046-0.159,0.081-0.318,0.104-0.481
		c0.023-0.16,0.036-0.325,0.036-0.491v-2.39v-2.39v-2.393v-2.392l2.059-0.56l2.064-0.563l2.062-0.562l2.061-0.56v1.553v1.553v1.553
		v1.552c-0.398-0.256-0.832-0.419-1.271-0.495c-0.441-0.076-0.89-0.065-1.316,0.027c-0.431,0.092-0.842,0.268-1.21,0.52
		c-0.369,0.251-0.694,0.579-0.95,0.978c-0.26,0.396-0.421,0.829-0.5,1.271c-0.076,0.439-0.063,0.888,0.029,1.316
		c0.093,0.431,0.267,0.841,0.518,1.209c0.252,0.368,0.58,0.693,0.98,0.95c0.396,0.257,0.829,0.417,1.268,0.497
		c0.439,0.075,0.888,0.064,1.317-0.028c0.429-0.092,0.841-0.268,1.209-0.518c0.369-0.251,0.695-0.579,0.949-0.979
		c0.092-0.14,0.17-0.283,0.237-0.433c0.068-0.148,0.127-0.303,0.173-0.461c0.047-0.156,0.081-0.315,0.104-0.479
		s0.034-0.329,0.034-0.492v-2.531v-2.531v-2.532v-2.531l-0.003-0.026l-0.005-0.025l-0.003-0.026l-0.005-0.026v-0.001V22.38v-0.001
		v-0.001H55.614z M42.376,37.151c-0.256-0.003-0.499-0.061-0.722-0.157c-0.221-0.099-0.416-0.238-0.583-0.407
		c-0.166-0.174-0.298-0.377-0.389-0.599c-0.09-0.224-0.138-0.469-0.134-0.726c0.002-0.256,0.062-0.502,0.157-0.722
		c0.098-0.221,0.238-0.418,0.409-0.583c0.17-0.165,0.373-0.298,0.595-0.39c0.225-0.089,0.47-0.137,0.728-0.135
		c0.255,0.006,0.493,0.062,0.715,0.155c0.219,0.097,0.415,0.234,0.579,0.402c0.165,0.166,0.299,0.363,0.389,0.585
		c0.094,0.222,0.144,0.462,0.144,0.718c0,0.255-0.053,0.501-0.15,0.725c-0.093,0.223-0.232,0.424-0.401,0.592
		c-0.168,0.169-0.371,0.303-0.595,0.396s-0.47,0.146-0.726,0.145h-0.003h-0.005h-0.005H42.376z M52.194,34.476
		c-0.257,0-0.502-0.055-0.724-0.148c-0.225-0.095-0.424-0.23-0.595-0.402c-0.17-0.168-0.306-0.367-0.398-0.591
		c-0.097-0.224-0.15-0.47-0.15-0.729c0-0.256,0.054-0.502,0.15-0.726c0.092-0.224,0.229-0.424,0.398-0.593
		c0.171-0.17,0.37-0.307,0.595-0.401c0.222-0.094,0.465-0.146,0.724-0.146c0.258,0,0.505,0.053,0.727,0.146
		c0.227,0.095,0.424,0.231,0.596,0.401c0.167,0.169,0.303,0.369,0.4,0.593c0.093,0.224,0.146,0.467,0.146,0.726
		c0,0.258-0.053,0.505-0.146,0.729c-0.095,0.224-0.233,0.423-0.4,0.591c-0.172,0.172-0.369,0.307-0.596,0.402
		C52.699,34.421,52.452,34.476,52.194,34.476z M37.815,52.035c-1.561,0.319-3.138,0.517-4.716,0.588
		c-1.578,0.074-3.155,0.022-4.722-0.146c-1.567-0.171-3.121-0.461-4.643-0.875c-1.525-0.41-3.025-0.941-4.482-1.59
		c-0.09-0.354-0.147-0.713-0.17-1.072c-0.025-0.36-0.018-0.722,0.02-1.078s0.108-0.711,0.208-1.058
		c0.102-0.347,0.233-0.686,0.395-1.013c0.43-0.827,0.685-1.671,0.771-2.526c0.086-0.851,0.003-1.712-0.248-2.571
		c-0.253-0.858-0.668-1.715-1.25-2.558c-0.583-0.844-1.329-1.674-2.236-2.48c-1.354-1.205-2.713-2.643-3.958-4.251
		c-1.243-1.609-2.371-3.395-3.263-5.28c-0.889-1.891-1.543-3.889-1.834-5.932c-0.292-2.042-0.223-4.128,0.332-6.195
		c0.225-0.854,0.511-1.694,0.84-2.526c0.331-0.83,0.703-1.65,1.103-2.458c0.398-0.81,0.827-1.608,1.266-2.399
		s0.895-1.574,1.342-2.35l0.155-0.264l0.155-0.264l0.157-0.265l0.155-0.264c0.165-0.287,0.336-0.579,0.521-0.858
		c0.183-0.278,0.38-0.547,0.593-0.788c0.21-0.241,0.437-0.456,0.681-0.625c0.246-0.17,0.508-0.298,0.795-0.368
		c0.142-0.022,0.284-0.031,0.425-0.022c0.14,0.007,0.278,0.029,0.412,0.068c0.135,0.037,0.266,0.09,0.388,0.156
		c0.124,0.067,0.242,0.147,0.352,0.242l0.3,0.283l0.228,0.338c0.063,0.12,0.114,0.249,0.152,0.38
		c0.036,0.133,0.059,0.269,0.068,0.408c-0.018,0.175-0.047,0.349-0.083,0.518c-0.038,0.169-0.084,0.339-0.139,0.503
		c-0.056,0.166-0.121,0.328-0.194,0.486c-0.074,0.159-0.156,0.313-0.246,0.461l-0.272,0.553l-0.27,0.552l-0.267,0.551l-0.269,0.551
		c-0.196,0.394-0.393,0.795-0.589,1.2c-0.2,0.405-0.399,0.814-0.601,1.225c-0.204,0.412-0.407,0.822-0.617,1.231
		c-0.208,0.408-0.421,0.815-0.639,1.218c-0.34,0.65-0.663,1.284-0.953,1.917c-0.291,0.63-0.546,1.257-0.754,1.892
		c-0.208,0.635-0.362,1.273-0.451,1.929c-0.089,0.655-0.111,1.327-0.049,2.026c0.063,0.543,0.167,1.078,0.31,1.599
		c0.144,0.522,0.327,1.031,0.547,1.523c0.222,0.492,0.481,0.968,0.776,1.421c0.293,0.453,0.624,0.884,0.99,1.291
		c0.66,0.778,1.435,1.543,2.293,2.234c0.858,0.692,1.8,1.311,2.796,1.795c0.997,0.483,2.051,0.833,3.133,0.99
		c1.081,0.155,2.188,0.117,3.296-0.176c1.006-0.266,1.878-0.7,2.648-1.263c0.771-0.56,1.438-1.242,2.036-1.998
		c0.597-0.755,1.118-1.583,1.596-2.433c0.481-0.85,0.916-1.722,1.337-2.567c0.085-0.167,0.167-0.333,0.251-0.5
		c0.082-0.165,0.165-0.33,0.25-0.494c0.08-0.163,0.166-0.324,0.245-0.483c0.084-0.159,0.169-0.316,0.251-0.469l0.15-0.27
		l0.146-0.269l0.147-0.271l0.146-0.271c0.316-0.582,0.633-1.164,0.951-1.744c0.316-0.58,0.633-1.163,0.951-1.744
		c0.318-0.581,0.634-1.164,0.953-1.743c0.315-0.583,0.637-1.164,0.956-1.745c0.157-0.221,0.351-0.398,0.569-0.529
		c0.218-0.133,0.459-0.221,0.704-0.261c0.245-0.041,0.506-0.033,0.752,0.023c0.246,0.058,0.489,0.163,0.708,0.322
		c0.178,0.126,0.327,0.279,0.45,0.449c0.121,0.169,0.216,0.357,0.277,0.553c0.061,0.197,0.092,0.404,0.089,0.613
		c-0.004,0.21-0.036,0.419-0.111,0.625l-1.677,3.316l-1.679,3.318l-1.68,3.318L35.6,26.716c-0.1,0.151-0.403,0.635-0.747,1.373
		c-0.346,0.735-0.732,1.722-1.005,2.876c-0.271,1.155-0.427,2.475-0.306,3.879c0.123,1.406,0.52,2.896,1.354,4.385l0.219,0.395
		l0.219,0.395l0.22,0.396l0.219,0.394c0.618,1.062,1.148,1.972,1.569,2.822c0.423,0.851,0.741,1.64,0.932,2.458
		c0.194,0.82,0.262,1.664,0.192,2.625C38.398,49.674,38.188,50.753,37.815,52.035z M17.803,51.13c0.912,0.496,0.383,0.2,1.345,0.607
		c0.963,0.407,1.947,0.769,2.954,1.079c1.006,0.315,2.037,0.579,3.083,0.794c1.045,0.216,2.112,0.379,3.193,0.486
		c1.082,0.109,2.176,0.167,3.288,0.167c1.109,0,2.205-0.058,3.288-0.167c1.077-0.107,3.192-0.486,4.238-0.701l0.35-1.747
		c0.323-1.298,0.486-2.415,0.511-3.425c0.024-1.009-0.092-1.912-0.32-2.785c-0.227-0.87-0.572-1.708-1.004-2.592
		c-0.433-0.885-0.956-1.813-1.55-2.859l-0.219-0.384l-0.219-0.385l-0.219-0.383l-0.218-0.385c-0.744-1.33-1.078-2.67-1.154-3.936
		c-0.081-1.269,0.093-2.456,0.359-3.481c0.267-1.026,0.626-1.892,0.924-2.501c0.298-0.611,0.529-0.971,0.54-0.992l1.687-3.346
		l1.687-3.346l1.688-3.349l1.687-3.346c0.229-0.432,0.354-0.89,0.396-1.347c0.038-0.459-0.015-0.916-0.147-1.349
		c-0.136-0.431-0.352-0.837-0.642-1.193c-0.29-0.354-0.656-0.66-1.089-0.886c-0.431-0.227-0.892-0.356-1.348-0.395
		c-0.457-0.036-0.916,0.015-1.347,0.149c-0.434,0.134-0.841,0.352-1.194,0.643c-0.357,0.29-0.659,0.656-0.889,1.087l-0.95,1.745
		l-0.954,1.744l-0.951,1.745l-0.955,1.744l-0.144,0.28l-0.146,0.279l-0.144,0.28l-0.146,0.28c-0.085,0.157-0.174,0.318-0.259,0.481
		c-0.086,0.163-0.171,0.329-0.256,0.496c-0.084,0.167-0.168,0.336-0.255,0.508c-0.084,0.171-0.171,0.343-0.254,0.516
		c-0.396,0.807-0.795,1.621-1.227,2.401c-0.434,0.782-0.897,1.53-1.417,2.203c-0.519,0.675-1.093,1.273-1.745,1.76
		c-0.655,0.487-1.385,0.858-2.219,1.078c-0.938,0.246-1.889,0.262-2.82,0.109c-0.935-0.158-1.846-0.486-2.713-0.927
		c-0.867-0.443-1.685-0.995-2.425-1.601c-0.742-0.608-1.405-1.269-1.961-1.922c-0.31-0.345-0.588-0.711-0.839-1.095
		c-0.251-0.386-0.469-0.788-0.659-1.204c-0.189-0.417-0.346-0.849-0.465-1.291c-0.125-0.441-0.212-0.895-0.267-1.354
		c-0.053-0.592-0.03-1.169,0.053-1.743c0.084-0.571,0.228-1.137,0.416-1.704c0.19-0.567,0.425-1.133,0.691-1.706
		c0.266-0.573,0.559-1.153,0.873-1.746c0.211-0.405,0.424-0.813,0.631-1.224c0.208-0.408,0.414-0.821,0.622-1.231
		c0.205-0.411,0.408-0.821,0.61-1.23c0.202-0.409,0.402-0.815,0.601-1.22l0.268-0.54l0.269-0.541l0.267-0.54l0.27-0.539
		c0.119-0.203,0.228-0.412,0.319-0.625c0.096-0.215,0.178-0.435,0.246-0.657c0.07-0.224,0.125-0.45,0.171-0.68
		c0.042-0.229,0.073-0.464,0.089-0.699c-0.014-0.499-0.131-0.971-0.327-1.398c-0.196-0.426-0.473-0.807-0.81-1.125
		c-0.336-0.316-0.733-0.568-1.172-0.737c-0.435-0.169-0.915-0.255-1.415-0.241L15.828-1l-0.125,0.01l-0.126,0.016L15.45-0.956
		c-0.484,0.105-0.914,0.305-1.298,0.562c-0.382,0.256-0.721,0.57-1.017,0.905c-0.297,0.334-0.548,0.687-0.767,1.021
		c-0.218,0.335-0.399,0.65-0.549,0.907l-0.156,0.269l-0.159,0.27l-0.158,0.271l-0.156,0.27c-0.461,0.798-0.927,1.605-1.381,2.421
		C9.355,6.755,8.914,7.581,8.5,8.42c-0.416,0.84-0.803,1.692-1.147,2.56c-0.343,0.869-0.646,1.753-0.887,2.656
		c-0.59,2.245-0.67,4.5-0.368,6.699c0.304,2.198,0.99,4.343,1.927,6.366c0.938,2.021,2.129,3.926,3.446,5.642
		c1.316,1.717,2.757,3.251,4.192,4.533c0.544,0.477,1.087,1.02,1.573,1.625c0.482,0.602,0.907,1.263,1.208,1.965
		c0.3,0.702,0.479,1.449,0.472,2.227c-0.008,0.778-0.199,1.585-0.637,2.414c-0.164,0.316-0.304,0.642-0.42,0.978
		c-0.116,0.334-0.205,0.676-0.272,1.021c-0.066,0.346-0.107,0.696-0.124,1.051c-0.017,0.353-0.006,0.708,0.026,1.061"/>
	<path fill="#FFFFFF" d="M23.186,11.794l0.001-0.333h-0.041c-0.99,0-1.936,0.197-2.798,0.558c-0.871,0.363-1.66,0.891-2.321,1.547
		c-0.661,0.652-1.199,1.435-1.573,2.304l0,0c-0.376,0.869-0.583,1.827-0.589,2.831v0.041c0,0.99,0.196,1.935,0.558,2.797
		l-0.008-0.02l0.008,0.019c0.364,0.873,0.891,1.661,1.546,2.323c0.656,0.664,1.435,1.201,2.305,1.574
		c0.868,0.373,1.825,0.583,2.83,0.588h0.044c0.988,0,1.931-0.197,2.792-0.554c0.873-0.365,1.66-0.893,2.324-1.547l0,0
		c0.662-0.655,1.198-1.436,1.571-2.305c0.375-0.869,0.583-1.826,0.588-2.831v-0.01v-0.009v-0.011v-0.009
		c0-0.998-0.201-1.954-0.568-2.823c-0.367-0.868-0.897-1.651-1.55-2.308h0.001c-0.655-0.656-1.431-1.192-2.297-1.564l0,0
		c-0.868-0.37-1.822-0.578-2.82-0.586L23.186,11.794l-0.003,0.333c0.91,0.007,1.775,0.195,2.562,0.533l0,0
		c0.786,0.337,1.492,0.821,2.088,1.421l-0.026-0.026l0.027,0.026c0.594,0.597,1.075,1.308,1.408,2.096
		c0.333,0.788,0.516,1.656,0.516,2.563v0.009v0.01v0.01v0.009v-0.001c-0.005,0.915-0.195,1.783-0.533,2.571
		c-0.34,0.79-0.825,1.5-1.429,2.094l0.044-0.043l-0.044,0.042c-0.603,0.596-1.318,1.075-2.111,1.406
		c-0.78,0.325-1.637,0.506-2.536,0.506h-0.042c-0.914-0.005-1.781-0.196-2.57-0.535c-0.79-0.339-1.497-0.826-2.093-1.43
		c-0.597-0.601-1.075-1.318-1.407-2.111v-0.001c-0.326-0.781-0.506-1.637-0.506-2.538v-0.037c0.007-0.914,0.195-1.782,0.535-2.571
		l0.017-0.038l-0.017,0.038c0.34-0.788,0.829-1.499,1.429-2.092c0.602-0.594,1.319-1.075,2.111-1.405
		c0.782-0.327,1.64-0.506,2.541-0.506h0.038L23.186,11.794z M23.186,24.11l-0.003-0.333h-0.041c-0.681,0-1.331-0.136-1.924-0.382
		l0,0c-0.604-0.249-1.148-0.615-1.612-1.067l-0.007-0.007l0.008,0.008c-0.459-0.453-0.83-0.992-1.089-1.594v-0.001
		c-0.262-0.6-0.405-1.261-0.411-1.957v-0.011v0.009V18.74c0-0.683,0.135-1.333,0.38-1.928l-0.004,0.006l0.002-0.005
		c0.254-0.604,0.617-1.151,1.07-1.61l-0.013,0.014l0.013-0.013c0.457-0.459,0.993-0.833,1.595-1.092
		c0.598-0.259,1.257-0.404,1.955-0.409h0.031c0.687,0,1.338,0.135,1.933,0.38c0.603,0.251,1.149,0.617,1.61,1.069
		c0.46,0.452,0.832,0.992,1.094,1.593l-0.008-0.014l0.008,0.013c0.258,0.599,0.403,1.261,0.407,1.957v0.007v0.009v0.01v0.01l0,0
		c-0.001,0.692-0.143,1.351-0.396,1.952l-0.003,0.009l0.003-0.01c-0.254,0.601-0.618,1.143-1.07,1.597l0.019-0.019l-0.019,0.019
		c-0.452,0.456-0.991,0.827-1.589,1.084c-0.597,0.256-1.252,0.401-1.946,0.406L23.186,24.11l0.002,0.333
		c0.783-0.007,1.527-0.172,2.202-0.461c0.679-0.292,1.288-0.71,1.799-1.225h-0.001c0.515-0.516,0.925-1.127,1.213-1.805l0.006-0.01
		l-0.004,0.008c0.286-0.679,0.444-1.426,0.445-2.208v-0.011v-0.011v-0.009v-0.009V18.7c-0.004-0.787-0.171-1.536-0.462-2.216
		l0.007,0.016l-0.007-0.016c-0.295-0.679-0.717-1.292-1.24-1.804c-0.52-0.512-1.137-0.923-1.82-1.208
		c-0.673-0.278-1.413-0.432-2.187-0.432h-0.038c-0.785,0.005-1.536,0.169-2.214,0.463c-0.681,0.294-1.292,0.717-1.804,1.235l0,0
		c-0.513,0.521-0.926,1.137-1.21,1.821l0.002-0.008l-0.003,0.009c-0.277,0.673-0.432,1.411-0.432,2.183v0.043v-0.001
		c0.007,0.785,0.17,1.535,0.465,2.218v-0.002c0.293,0.681,0.713,1.292,1.233,1.804l0.001,0.001c0.521,0.51,1.138,0.924,1.822,1.208
		l0,0c0.67,0.278,1.41,0.433,2.179,0.433h0.046V24.11z M37.014-4.729h0.334l0,0v-0.005v-0.014v-0.027v-0.068l-0.044-0.101
		L37.302-4.95l-0.018-0.039l-0.006-0.013l-0.027-0.045l-0.019-0.034l-0.01-0.017l-0.077-0.104l-0.015-0.019l-0.089-0.095
		l-0.013-0.013l-0.094-0.081l-0.019-0.015l-0.109-0.071l-0.031-0.022l-0.069-0.026h-0.002l-0.037-0.013l-0.004-0.001l-0.029-0.011
		l0.002,0.002l-0.033-0.012L36.55-5.597h-0.097h-0.037h-0.041h-0.038h-0.021h-0.018h-0.021h-0.022h-0.023h-0.026h-0.027h-0.026
		h-0.027h-0.028H36.07h-0.028H36l-1.961,0.534L32.12-4.539l-1.918,0.523l-1.946,0.531l-0.264,0.125l-0.051,0.023l-0.229,0.218
		L27.672-3.08L27.53-2.798l-0.026,0.051L27.46-2.427l-0.003,0.022v1.365v1.344v1.342v1.343h0.333l0.136-0.306l-0.304-0.135
		l-0.019-0.008l-0.338-0.104l-0.019-0.005l-0.345-0.064L26.88,2.364l-0.353-0.022h-0.01h-0.011c-0.439,0-0.86,0.088-1.242,0.25
		l0.006-0.003l-0.007,0.003c-0.383,0.163-0.725,0.396-1.014,0.683L24.241,3.28l0.007-0.006c-0.29,0.288-0.521,0.632-0.684,1.016
		l-0.003,0.006l0.003-0.005c-0.161,0.38-0.251,0.8-0.251,1.24c0,0.441,0.09,0.862,0.251,1.242v0.001
		c0.163,0.381,0.396,0.726,0.684,1.014h0.001c0.289,0.288,0.631,0.522,1.014,0.683c0.383,0.162,0.804,0.25,1.243,0.25
		c0.442,0,0.861-0.089,1.243-0.251c0.382-0.162,0.725-0.395,1.014-0.684c0.289-0.288,0.521-0.632,0.683-1.015l-0.004,0.008
		l0.002-0.006c0.163-0.383,0.251-0.806,0.251-1.244V3.693V1.852v-1.84v-1.587l1.277-0.348l1.526-0.416l1.527-0.415l1.103-0.301v0.65
		v1.085v1.085V0.85h0.331l0.136-0.305l-0.305-0.134l-0.016-0.011l-0.34-0.104l-0.019-0.006L34.57,0.226l-0.019-0.003L34.199,0.2
		h-0.014h-0.01c-0.438,0-0.86,0.089-1.241,0.25l-0.003,0.002l0.003-0.002c-0.38,0.164-0.725,0.396-1.011,0.686l0.002-0.003
		l-0.002,0.002c-0.29,0.29-0.524,0.632-0.688,1.014V2.15c-0.159,0.38-0.249,0.801-0.249,1.242c0,0.439,0.091,0.86,0.249,1.24v0.002
		c0.163,0.381,0.397,0.726,0.688,1.014l0,0c0.287,0.289,0.631,0.521,1.011,0.684l0,0c0.381,0.162,0.803,0.25,1.241,0.25
		c0.443,0,0.862-0.088,1.244-0.25c0.38-0.162,0.726-0.395,1.014-0.683c0.288-0.289,0.522-0.633,0.685-1.015l0,0
		c0.163-0.382,0.249-0.803,0.249-1.242V1.422v-1.969v-1.969v-1.96l0.001-0.017l0.003-0.027v-0.016l-0.003-0.044l-0.002-0.032
		l0.001,0.007l-0.001-0.004l-0.002-0.038v-0.017l-0.008-0.045L37.35-4.741v-0.014l-0.01-0.047L37.014-4.729h0.334H37.014
		l-0.325,0.072l0.008,0.023l0.002,0.023v0.004l0.007,0.025v0.014l0.001,0.022l0.002,0.033L36.706-4.52l0.332-0.017l-0.332-0.017
		l-0.001,0.027l-0.001,0.023v0.009v1.979v1.969v1.967v1.969c0,0.349-0.072,0.682-0.199,0.983l0.018-0.038l-0.018,0.038
		c-0.127,0.301-0.313,0.573-0.542,0.804c-0.228,0.229-0.502,0.412-0.805,0.542c-0.299,0.126-0.631,0.197-0.982,0.197
		c-0.348,0-0.68-0.07-0.981-0.198l-0.007-0.003l0.007,0.003c-0.302-0.129-0.573-0.312-0.797-0.541h-0.003
		c-0.23-0.23-0.415-0.501-0.545-0.805v0.001c-0.126-0.303-0.196-0.635-0.196-0.983c0-0.348,0.071-0.682,0.196-0.984v0.001
		c0.13-0.302,0.314-0.575,0.545-0.804l-0.003,0.003l0.006-0.006c0.224-0.228,0.495-0.412,0.798-0.542l0.003-0.002l-0.004,0.003
		c0.3-0.127,0.634-0.198,0.981-0.198V0.531l-0.021,0.333l0.313,0.021l0.289,0.054l0.282,0.087l0.287,0.126l0.468,0.207v-1.596
		v-1.084v-1.085v-1.085v-0.436l-1.941,0.53l-1.526,0.416l-1.526,0.416l-1.77,0.483v2.095v1.842v1.841v1.841
		c0,0.352-0.069,0.682-0.198,0.981v0.001c-0.127,0.303-0.31,0.574-0.54,0.802c-0.229,0.23-0.5,0.414-0.802,0.541
		C27.189,7.99,26.858,8.06,26.508,8.06c-0.35,0-0.68-0.07-0.984-0.199c-0.3-0.126-0.573-0.311-0.805-0.541h0.001
		c-0.229-0.228-0.412-0.499-0.542-0.802V6.52c-0.126-0.303-0.198-0.635-0.198-0.984s0.072-0.681,0.198-0.984V4.55
		c0.129-0.303,0.313-0.574,0.542-0.804h-0.001c0.232-0.229,0.503-0.415,0.805-0.543l-0.006,0.005l0.005-0.002
		c0.305-0.127,0.635-0.198,0.985-0.198V2.674l-0.021,0.332l0.313,0.02l0.288,0.054l0.282,0.086l0.286,0.128l0.468,0.208V1.646V0.305
		v-1.344v-1.32l0.025-0.186l0.066-0.13l0.108-0.104l0.163-0.077l1.89-0.516l1.919-0.523l1.92-0.523l1.915-0.524l-0.086-0.322v0.333
		h0.027h0.029h0.026h0.026h0.028h0.025h0.028h0.025h0.021h0.02h0.021h0.019h0.039h0.038h0.038h0.041v-0.332L36.384-4.95l0.034,0.012
		l0.002,0.001l0.031,0.01l0.028,0.009l0.03,0.012l0.114-0.313l-0.182,0.279l0.075,0.047l0.051,0.046l0.05,0.052l0.041,0.056
		l0.01,0.018l0.015,0.021l0.013,0.023l0.012,0.03l0.306-0.131h-0.333v0.027v0.014v0.005l0,0v0.037l0.008,0.035L37.014-4.729z
		 M26.514,6.753V6.421c-0.133,0-0.256-0.027-0.37-0.075l-0.303-0.203l-0.202-0.303l0.012,0.029l-0.012-0.029
		c-0.049-0.114-0.076-0.238-0.076-0.37c0-0.131,0.027-0.255,0.076-0.371l0.005-0.012l-0.005,0.013L25.841,4.8l0.011-0.01
		l-0.009,0.007l0.303-0.203c0.113-0.049,0.236-0.074,0.369-0.074c0.135,0,0.257,0.027,0.368,0.074l0.004,0.001h-0.001l0.3,0.202
		l0.003,0.004l0,0l0.204,0.299l0.307-0.13l-0.308,0.127c0.049,0.117,0.076,0.242,0.076,0.373c0,0.132-0.027,0.257-0.075,0.372V5.842
		l-0.205,0.302l0.003-0.003l-0.005,0.005l-0.3,0.202L26.882,6.35h0.001c-0.111,0.048-0.235,0.075-0.368,0.075L26.514,6.753
		l0.001,0.334c0.222,0,0.437-0.046,0.631-0.128h-0.002c0.194-0.081,0.372-0.2,0.517-0.349l-0.238-0.233l0.234,0.236
		c0.149-0.147,0.267-0.322,0.349-0.515l0.003-0.006l-0.003,0.004c0.081-0.191,0.127-0.406,0.127-0.627
		c0-0.223-0.046-0.435-0.125-0.628l-0.002-0.002c-0.082-0.192-0.2-0.367-0.349-0.514l-0.234,0.239L27.66,4.33
		c-0.146-0.148-0.324-0.267-0.517-0.349h0.002c-0.193-0.082-0.408-0.127-0.631-0.127c-0.223,0-0.435,0.045-0.629,0.127
		c-0.192,0.081-0.367,0.2-0.515,0.347h0.002c-0.146,0.146-0.265,0.32-0.347,0.512l0,0c-0.082,0.193-0.127,0.407-0.127,0.629
		c0,0.223,0.045,0.437,0.127,0.629l-0.023-0.055l0.023,0.055c0.082,0.192,0.202,0.367,0.345,0.514
		c0.148,0.147,0.323,0.266,0.515,0.347c0.194,0.082,0.406,0.127,0.629,0.127L26.514,6.753L26.514,6.753z M34.186,4.658V4.326
		c-0.133,0-0.256-0.026-0.371-0.075h0.003l0,0l-0.304-0.206l-0.011-0.01l0.011,0.011l-0.203-0.301L33.307,3.74l0.004,0.008
		c-0.049-0.118-0.076-0.243-0.076-0.372c0-0.13,0.027-0.257,0.076-0.373l0.003-0.006l-0.003,0.007l0.203-0.302l0.009-0.008
		l-0.011,0.01l0.303-0.206L33.812,2.5c0.114-0.048,0.24-0.075,0.371-0.075c0.136,0,0.26,0.026,0.371,0.075h-0.001l0.302,0.204
		l0.008,0.006l-0.005-0.004l0.201,0.302V3.007c0.048,0.11,0.074,0.237,0.074,0.37v0.009c0,0.129-0.026,0.25-0.074,0.364l0.012-0.027
		L35.06,3.75l-0.2,0.302l0.005-0.005L34.86,4.051l-0.3,0.205l-0.008,0.003l0.008-0.003c-0.113,0.049-0.238,0.076-0.371,0.077l0,0
		h-0.078l-0.072,0.035l0.146,0.299V4.333l0,0h-0.002v0.333h0.334V4.665V4.663V4.661V4.658V4.326h-0.334v0.332h-0.333v0.003v0.001
		v0.001v0.002v0.333h0.335l0,0h0.081l0.071-0.036l-0.148-0.298v0.333h0.002c0.225-0.001,0.438-0.048,0.63-0.132l0,0
		c0.194-0.083,0.368-0.205,0.513-0.349v0.001c0.145-0.146,0.262-0.32,0.346-0.515l-0.015,0.03l0.015-0.031
		c0.077-0.19,0.121-0.399,0.121-0.618V3.376c0-0.222-0.044-0.435-0.127-0.63l-0.003-0.007l0.003,0.006
		c-0.08-0.189-0.195-0.364-0.347-0.512l0.002,0.001c-0.148-0.148-0.321-0.265-0.513-0.347l-0.003-0.001h0.002
		c-0.193-0.082-0.407-0.127-0.632-0.127c-0.219,0-0.433,0.044-0.627,0.126h-0.004l0,0c-0.191,0.083-0.364,0.2-0.512,0.346
		l0.011-0.011l-0.011,0.012c-0.145,0.146-0.266,0.32-0.346,0.514l0.002-0.006l-0.002,0.008c-0.079,0.19-0.128,0.404-0.128,0.628
		c0,0.225,0.049,0.437,0.128,0.627l0.001,0.006l-0.001-0.004c0.08,0.194,0.197,0.368,0.346,0.514l0,0
		c0.146,0.146,0.319,0.263,0.512,0.345l0.004,0.002c0.194,0.082,0.408,0.125,0.627,0.125V4.658h-0.332H34.186z M55.614,22.378h0.334
		v-0.016l0.001-0.019v-0.016l-0.001-0.035v-0.018l0,0V22.27v-0.015v-0.027v-0.122l-0.106-0.125l-0.002-0.002l-0.027-0.034
		l-0.006-0.006l-0.034-0.035l-0.012-0.01l-0.043-0.036l-0.217,0.252l0.298-0.153l-0.037-0.073l-0.014-0.024l-0.063-0.087
		l-0.017-0.021l-0.078-0.077l-0.018-0.016l-0.084-0.062l-0.01-0.006l-0.039-0.026l-0.18,0.281l0.183-0.278l-0.027-0.02l-0.027-0.015
		l-0.024-0.018l-0.04-0.027l-0.08-0.027l0.003,0.001l-0.037-0.013l-0.107,0.315l0.109-0.313l-0.033-0.012l-0.004-0.001l-0.038-0.012
		l-0.05-0.017H54.99h-0.038h-0.041h-0.038h-0.009h-0.008H54.85h-0.009h-0.023H54.79h-0.024h-0.027h-0.026h-0.026h-0.027h-0.025
		H54.59l-2.499,0.679l-2.453,0.668l-2.459,0.667l-2.479,0.675l-0.266,0.123l-0.053,0.023l-0.227,0.221l-0.041,0.039l-0.141,0.279
		l-0.029,0.051l-0.038,0.319l-0.002,0.023v1.835v1.81v1.812v1.812h0.33l0.185-0.278c-0.44-0.283-0.913-0.462-1.394-0.547
		c-0.215-0.035-0.431-0.056-0.646-0.056c-0.267,0-0.537,0.028-0.799,0.087c-0.47,0.102-0.922,0.295-1.326,0.57
		c-0.404,0.273-0.763,0.636-1.044,1.071c-0.282,0.438-0.46,0.911-0.544,1.392l0,0c-0.039,0.217-0.056,0.431-0.056,0.647
		c0,0.267,0.027,0.534,0.083,0.798v0.002c0.104,0.469,0.297,0.919,0.573,1.325h-0.002c0.274,0.406,0.635,0.761,1.07,1.044
		c0.438,0.279,0.911,0.46,1.396,0.542c0.213,0.037,0.429,0.057,0.643,0.057c0.269,0,0.538-0.027,0.799-0.085
		c0.47-0.102,0.921-0.295,1.327-0.57c0.406-0.277,0.764-0.638,1.043-1.074v0.001c0.1-0.152,0.186-0.312,0.258-0.477l-0.304-0.136
		l0.304,0.143c0.078-0.171,0.14-0.339,0.188-0.51l-0.001,0.001c0.052-0.171,0.09-0.349,0.116-0.529l-0.001,0.005
		c0.025-0.18,0.038-0.358,0.038-0.539v-2.39v-2.39v-2.393v-2.137l1.814-0.492l2.062-0.563l2.063-0.562l1.641-0.445v1.118v1.553
		v1.552v1.555h0.335l0.181-0.281c-0.438-0.281-0.913-0.462-1.396-0.544c-0.213-0.038-0.429-0.056-0.642-0.056
		c-0.271,0-0.539,0.027-0.799,0.085c-0.472,0.101-0.924,0.295-1.33,0.57c-0.403,0.275-0.761,0.635-1.041,1.071l-0.006,0.009
		l0.006-0.012c-0.284,0.439-0.462,0.914-0.545,1.394l-0.008,0.029l0.008-0.029c-0.039,0.214-0.057,0.428-0.057,0.642
		c0,0.272,0.027,0.542,0.087,0.803c0.102,0.472,0.292,0.922,0.569,1.328l0.008,0.014l-0.008-0.014
		c0.278,0.403,0.636,0.761,1.071,1.042c0.437,0.283,0.911,0.462,1.391,0.544c0.215,0.037,0.431,0.056,0.643,0.056
		c0.271,0,0.54-0.026,0.803-0.084c0.471-0.102,0.921-0.295,1.326-0.57c0.407-0.276,0.763-0.637,1.043-1.073l-0.281-0.18l0.279,0.182
		c0.102-0.155,0.188-0.313,0.262-0.479l-0.303-0.134l0.3,0.14c0.079-0.163,0.141-0.334,0.19-0.506v-0.004l0,0
		c0.049-0.168,0.087-0.343,0.115-0.521l0.001-0.01v0.008c0.023-0.179,0.034-0.357,0.034-0.538v-2.531v-2.531v-2.532v-2.548
		l-0.002-0.042l-0.002-0.01l-0.006-0.033l-0.003-0.025l-0.005-0.023v-0.002l-0.329,0.051h0.334v-0.002v-0.002V22.38v-0.002H55.614
		h-0.332v0.002v0.002v0.002v0.002v0.025l0.008,0.05l0.003,0.025l0.004,0.018v0.001v2.514v2.532v2.531v2.531
		c0,0.148-0.01,0.298-0.032,0.446l0.003-0.003c-0.021,0.145-0.057,0.293-0.095,0.438l0.319,0.089l-0.319-0.093
		c-0.043,0.142-0.095,0.281-0.156,0.413l-0.001,0.003c-0.062,0.138-0.133,0.265-0.213,0.389l-0.002,0.003l0,0
		c-0.231,0.359-0.523,0.654-0.854,0.884c-0.336,0.227-0.705,0.384-1.094,0.468c-0.219,0.047-0.439,0.071-0.662,0.071
		c-0.176,0-0.353-0.016-0.528-0.046c-0.396-0.069-0.786-0.218-1.145-0.451c-0.359-0.232-0.657-0.523-0.885-0.856l-0.009-0.014
		l0.009,0.015c-0.229-0.332-0.384-0.702-0.467-1.094c-0.046-0.216-0.073-0.438-0.073-0.662c0-0.175,0.018-0.353,0.046-0.525v0.001
		c0.07-0.399,0.217-0.787,0.451-1.145v-0.003c0.233-0.359,0.525-0.656,0.855-0.883c0.334-0.227,0.704-0.386,1.094-0.471
		c0.216-0.043,0.438-0.069,0.66-0.069c0.176,0,0.354,0.013,0.528,0.045c0.395,0.067,0.788,0.217,1.145,0.449l0.516,0.328v-2.162
		v-1.552v-1.553v-1.553v-0.436l-2.479,0.675l-2.063,0.562l-2.062,0.562l-2.308,0.629v2.645v2.39v2.39v2.39
		c0,0.149-0.01,0.298-0.031,0.442l0.002-0.01l-0.003,0.013c-0.02,0.146-0.051,0.29-0.092,0.43l-0.001,0.003
		c-0.04,0.142-0.092,0.277-0.154,0.41l-0.001,0.002l0,0c-0.062,0.135-0.132,0.266-0.212,0.392l0,0
		c-0.233,0.36-0.526,0.657-0.856,0.884c-0.334,0.228-0.709,0.385-1.093,0.469c-0.216,0.045-0.437,0.071-0.66,0.071
		c-0.177,0-0.353-0.016-0.531-0.046c-0.396-0.069-0.785-0.217-1.145-0.448c-0.361-0.233-0.656-0.524-0.882-0.858h-0.001
		c-0.228-0.33-0.385-0.704-0.471-1.094v0.002c-0.046-0.216-0.07-0.438-0.07-0.658c0-0.178,0.017-0.354,0.045-0.53l0.005-0.024
		L39.32,34.8c0.07-0.399,0.216-0.786,0.45-1.147c0.23-0.359,0.526-0.656,0.857-0.884c0.334-0.227,0.704-0.384,1.093-0.468
		c0.215-0.048,0.437-0.071,0.658-0.071c0.178,0,0.355,0.015,0.53,0.046c0.396,0.068,0.786,0.216,1.146,0.447l0.516,0.334v-2.424
		v-1.812v-1.811v-1.79l0.027-0.185l0.066-0.133l0.107-0.103l0.163-0.076l2.426-0.66l2.458-0.667l2.453-0.667l2.456-0.668
		l-0.087-0.322v0.333h0.025h0.027h0.026h0.026h0.027h0.024h0.027h0.023h0.009h0.007h0.009h0.008h0.038h0.04h0.039h0.04v-0.333
		l-0.107,0.316l0.033,0.01l0.034,0.012l0.003,0.001l0.035,0.013h0.002l0.034,0.012l0.106-0.317l-0.192,0.272l0.029,0.02l0.003,0.002
		l0.036,0.024l0.029,0.019l0.002,0.001l0.023,0.014l0.035,0.027l0.025,0.023l0.017,0.022l0.024,0.05l0.03,0.058l0.069,0.061
		l0.013,0.012l0.021,0.022l0.024,0.028l0.252-0.216h-0.332v0.027v0.015v0.005l0,0V22.3v0.007l0.001,0.018l-0.001,0.009v0.008v0.034
		h0.325V22.378z M42.376,37.151l0.008-0.333c-0.214-0.004-0.412-0.05-0.596-0.13c-0.18-0.08-0.341-0.195-0.479-0.337v0.001
		c-0.135-0.141-0.244-0.306-0.315-0.491l0.001,0.008l-0.002-0.009c-0.072-0.175-0.11-0.36-0.11-0.562v-0.022v-0.003v-0.005
		c0.003-0.212,0.05-0.409,0.13-0.594l-0.002,0.004h0.001c0.082-0.186,0.194-0.346,0.336-0.482h0.003
		c0.138-0.135,0.305-0.244,0.489-0.32l-0.006,0.004l0.002-0.004c0.177-0.068,0.368-0.109,0.572-0.109h0.027
		c0.21,0.006,0.405,0.051,0.586,0.131l0.009,0.005l-0.01-0.006c0.184,0.081,0.343,0.19,0.477,0.328l-0.003-0.004l0.005,0.006
		c0.135,0.136,0.244,0.299,0.315,0.479l0.002,0.005c0.078,0.18,0.117,0.372,0.117,0.585c0,0.21-0.042,0.411-0.122,0.592
		l-0.003,0.002c-0.077,0.185-0.188,0.349-0.328,0.486l-0.002,0.001c-0.135,0.137-0.303,0.249-0.486,0.325H42.99
		c-0.183,0.075-0.385,0.118-0.594,0.118h-0.01l0.005,0.334v-0.334h-0.003h-0.005h-0.005h-0.003V37.151l0.008-0.333L42.376,37.151
		v0.333h0.003h0.005h0.005h0.006h0.002h0.003l0,0c0.298,0,0.588-0.06,0.847-0.171l-0.001,0.001c0.265-0.11,0.506-0.269,0.703-0.469
		l-0.005,0.004h0.004c0.201-0.199,0.363-0.437,0.475-0.701l-0.002,0.004c0.117-0.265,0.179-0.556,0.179-0.857
		c0-0.299-0.06-0.584-0.17-0.847l-0.307,0.131l0.308-0.125c-0.107-0.262-0.266-0.497-0.46-0.695l0.003,0.003l-0.003-0.003
		c-0.192-0.197-0.424-0.358-0.684-0.471l-0.009-0.004l0.008,0.003c-0.258-0.112-0.541-0.18-0.84-0.185h-0.04
		c-0.289,0-0.565,0.059-0.817,0.16h-0.004c-0.26,0.104-0.498,0.261-0.699,0.457v-0.002c-0.203,0.196-0.368,0.432-0.483,0.688
		L40.4,34.408c-0.112,0.259-0.183,0.547-0.185,0.852l0.333,0.005l-0.333-0.013v0.049c0,0.287,0.056,0.562,0.158,0.815l-0.004-0.008
		l0.004,0.005c0.105,0.266,0.26,0.502,0.457,0.705l0.007,0.007l-0.007-0.007c0.194,0.198,0.425,0.363,0.689,0.48
		c0.26,0.115,0.548,0.182,0.85,0.187h0.003h0.002L42.376,37.151L42.376,37.151z M52.194,34.476v-0.335
		c-0.212,0-0.411-0.043-0.596-0.121c-0.182-0.078-0.348-0.188-0.487-0.33v0.001c-0.138-0.138-0.25-0.303-0.327-0.483l-0.001-0.006
		c-0.079-0.183-0.122-0.383-0.122-0.596c0-0.211,0.043-0.411,0.122-0.592l0.003-0.012l-0.002,0.005
		c0.077-0.18,0.189-0.346,0.328-0.484l-0.002,0.002c0.141-0.142,0.307-0.254,0.488-0.332l0.009-0.002l-0.007,0.002
		c0.183-0.077,0.381-0.119,0.594-0.119s0.413,0.042,0.596,0.119l0.003,0.001l-0.001-0.001c0.185,0.078,0.348,0.19,0.489,0.332
		l-0.002-0.002c0.14,0.139,0.249,0.305,0.33,0.488l-0.003-0.009l0.003,0.009c0.077,0.185,0.121,0.384,0.121,0.595
		c0,0.212-0.044,0.413-0.121,0.6l-0.007,0.015l0.007-0.019c-0.081,0.187-0.19,0.352-0.33,0.488c-0.14,0.142-0.303,0.252-0.487,0.33
		s-0.386,0.121-0.598,0.121V34.476v0.332c0.304,0,0.594-0.063,0.854-0.175c0.267-0.11,0.503-0.273,0.702-0.47
		c0.198-0.197,0.357-0.437,0.471-0.698v-0.002c0.111-0.262,0.173-0.552,0.173-0.854c0-0.305-0.062-0.596-0.173-0.855v-0.003
		c-0.113-0.262-0.272-0.498-0.471-0.697l-0.004-0.003c-0.195-0.194-0.432-0.358-0.698-0.471l0.002,0.003l-0.001-0.001
		c-0.262-0.113-0.555-0.174-0.855-0.174c-0.302,0-0.593,0.061-0.854,0.174l0.002-0.002c-0.267,0.112-0.502,0.275-0.699,0.471
		l-0.002,0.004l0,0c-0.197,0.198-0.359,0.435-0.47,0.699l0.307,0.128l-0.305-0.131c-0.116,0.263-0.176,0.555-0.176,0.858
		c0,0.301,0.06,0.592,0.176,0.855l0.305-0.131l-0.307,0.127c0.11,0.269,0.272,0.505,0.47,0.7l0.008,0.007l-0.008-0.005
		c0.199,0.196,0.435,0.359,0.701,0.47c0.259,0.111,0.551,0.175,0.853,0.175V34.476z M37.815,52.035l-0.066-0.326
		c-1.544,0.317-3.104,0.51-4.666,0.582c-0.462,0.022-0.929,0.032-1.394,0.032c-1.096,0-2.188-0.062-3.275-0.18
		c-1.551-0.169-3.086-0.457-4.592-0.864c-1.509-0.406-2.992-0.932-4.433-1.573l-0.136,0.305l0.324-0.083
		c-0.085-0.333-0.14-0.675-0.163-1.013c-0.009-0.135-0.013-0.269-0.013-0.406c0-0.205,0.011-0.41,0.031-0.613
		c0.037-0.339,0.103-0.673,0.197-1.004l0.004-0.016l-0.004,0.018c0.097-0.325,0.22-0.647,0.373-0.955l-0.298-0.149l0.295,0.154
		c0.449-0.861,0.716-1.748,0.809-2.645l0.005-0.057l-0.005,0.055c0.022-0.225,0.033-0.455,0.033-0.684
		c0-0.672-0.098-1.345-0.293-2.014l0.004,0.014L20.547,40.6c-0.264-0.896-0.696-1.786-1.295-2.653
		c-0.602-0.87-1.365-1.717-2.291-2.539c-1.336-1.189-2.684-2.613-3.916-4.208c-1.228-1.592-2.345-3.354-3.224-5.219
		c-0.878-1.865-1.521-3.832-1.807-5.834c-0.108-0.761-0.164-1.526-0.164-2.293c0-1.256,0.153-2.516,0.489-3.77v-0.001
		c0.222-0.839,0.502-1.668,0.829-2.491l0,0c0.326-0.819,0.693-1.63,1.09-2.434l0.009-0.016l-0.008,0.016
		c0.394-0.801,0.822-1.596,1.258-2.384l-0.015,0.027l0.015-0.026c0.437-0.787,0.892-1.569,1.34-2.345l-0.004,0.005l0.158-0.268
		l0.155-0.262l-0.013,0.022l0.168-0.285l0.157-0.266l0.001-0.001c0.163-0.285,0.331-0.57,0.511-0.841l0,0
		c0.177-0.27,0.366-0.525,0.565-0.752h0.002c0.196-0.226,0.405-0.419,0.62-0.571l0.013-0.008L15.177,1.21
		c0.219-0.151,0.441-0.258,0.683-0.317l-0.079-0.324l0.055,0.329l0.265-0.021l0.087,0.002l0.338,0.057h0.003h0.001l0.322,0.129
		L16.85,1.062l0.294,0.202l0.216-0.253l-0.229,0.242l0.273,0.259l0.209,0.307l0.274-0.187l-0.297,0.155l0.129,0.322l0.319-0.095
		l-0.322,0.089l0.057,0.341l0.331-0.022l-0.331-0.033c-0.016,0.163-0.042,0.322-0.077,0.483l0.001-0.007l-0.001,0.004
		c-0.035,0.161-0.078,0.317-0.128,0.47l0.001-0.005l-0.001,0.003c-0.052,0.154-0.111,0.304-0.181,0.45l-0.009,0.022l0.009-0.021
		c-0.07,0.148-0.146,0.293-0.229,0.431L17.15,4.23l-0.273,0.566L16.9,4.745l-0.293,0.602L16.34,5.899L16.33,5.92l-0.258,0.53
		l0.297,0.146l-0.297-0.148c-0.198,0.395-0.396,0.797-0.592,1.203l-0.004,0.01l0.004-0.011c-0.2,0.407-0.399,0.814-0.601,1.224
		c-0.203,0.411-0.407,0.822-0.614,1.229l0,0c-0.208,0.405-0.417,0.812-0.634,1.208v0.004l-0.001,0.002
		c-0.342,0.653-0.667,1.293-0.961,1.933l-0.004,0.009l0.005-0.01c-0.297,0.639-0.554,1.279-0.769,1.926l-0.006,0.019l0.006-0.017
		c-0.212,0.651-0.373,1.309-0.465,1.989l0,0c-0.056,0.417-0.085,0.842-0.085,1.274c0,0.271,0.011,0.547,0.036,0.826v0.004
		l0.001,0.004c0.065,0.56,0.172,1.11,0.32,1.649c0.147,0.539,0.335,1.063,0.564,1.571c0.229,0.509,0.495,1,0.802,1.467l-0.005-0.006
		l0.004,0.005c0.302,0.468,0.645,0.915,1.02,1.333l0.248-0.223l-0.253,0.216c0.674,0.794,1.461,1.573,2.339,2.278h-0.001
		c0.875,0.707,1.836,1.337,2.86,1.833c1.023,0.497,2.109,0.858,3.23,1.021c0.426,0.062,0.854,0.093,1.286,0.093
		c0.709,0,1.426-0.086,2.145-0.275c1.046-0.278,1.957-0.733,2.758-1.315c0.801-0.583,1.49-1.288,2.1-2.062
		c0.609-0.775,1.143-1.617,1.625-2.477c0.485-0.859,0.923-1.736,1.345-2.581l-0.002,0.006l0.001-0.004
		c0.086-0.168,0.169-0.336,0.252-0.5l0.013-0.025l-0.013,0.025c0.082-0.166,0.165-0.33,0.246-0.49l-0.001,0.004l0.004-0.006
		c0.081-0.161,0.163-0.321,0.244-0.481l-0.002,0.004l0.002-0.001c0.081-0.156,0.166-0.311,0.247-0.464l0.148-0.267l0.148-0.271
		l0.006-0.013l0.141-0.259l0.147-0.27l0,0c0.316-0.582,0.634-1.164,0.949-1.745l-0.008,0.018l0.008-0.016
		c0.317-0.581,0.635-1.162,0.951-1.744c0.318-0.582,0.634-1.163,0.952-1.744l0.005-0.01l-0.002,0.008
		c0.312-0.581,0.634-1.162,0.953-1.743l-0.291-0.16l0.27,0.195c0.133-0.187,0.292-0.33,0.473-0.438l0.003-0.002l-0.003,0.001
		c0.183-0.109,0.38-0.183,0.586-0.217h-0.004h0.003l0.262-0.022c0.123,0,0.242,0.015,0.363,0.042h-0.004l0,0
		c0.209,0.047,0.407,0.134,0.592,0.267l0.004,0.004l-0.004-0.004c0.146,0.105,0.269,0.232,0.371,0.373v0.003
		c0.102,0.138,0.179,0.293,0.229,0.456l-0.002-0.008l0.002,0.011c0.052,0.156,0.078,0.322,0.078,0.487v0.025h0.332l-0.332-0.007
		c-0.004,0.178-0.032,0.352-0.09,0.52l0.311,0.111l-0.296-0.15l-1.68,3.317l-1.678,3.317l-1.68,3.318l-1.679,3.318l0.298,0.149
		l-0.28-0.184c-0.107,0.166-0.415,0.662-0.769,1.415c-0.354,0.751-0.749,1.759-1.028,2.939l0,0c-0.212,0.902-0.356,1.91-0.356,2.979
		c0,0.33,0.015,0.665,0.046,1.007l0.005,0.056v-0.056c0.123,1.446,0.534,2.988,1.393,4.521l0.222,0.392l-0.016-0.023l0.231,0.418
		l0.219,0.396l0.219,0.392l0.002,0.002l0.004,0.006c0.615,1.06,1.142,1.967,1.559,2.804c0.413,0.835,0.722,1.6,0.904,2.386
		l-0.006-0.013l0.006,0.013c0.137,0.584,0.209,1.181,0.209,1.83c0,0.225-0.008,0.454-0.026,0.692l0,0
		c-0.071,0.934-0.274,1.987-0.644,3.258L37.815,52.035l-0.066-0.326L37.815,52.035l0.319,0.092c0.377-1.299,0.594-2.399,0.668-3.391
		v-0.002c0.02-0.252,0.028-0.502,0.028-0.739c0-0.699-0.079-1.353-0.229-1.984l0,0c-0.199-0.85-0.529-1.667-0.957-2.529
		c-0.43-0.865-0.962-1.779-1.581-2.843l-0.288,0.168l0.293-0.161l-0.22-0.395l-0.219-0.396l-0.219-0.393l0.008,0.012l-0.228-0.406
		c-0.811-1.448-1.196-2.889-1.314-4.254l-0.002-0.047l0.002,0.047c-0.026-0.321-0.04-0.639-0.04-0.951
		c0-1.008,0.137-1.963,0.338-2.822l0,0c0.268-1.126,0.647-2.092,0.985-2.812c0.336-0.718,0.63-1.193,0.723-1.331l0.01-0.015
		l1.688-3.334l1.68-3.317l1.679-3.318l1.689-3.335l0.006-0.02c0.084-0.244,0.124-0.489,0.13-0.729v-0.004v-0.001v-0.025
		c0-0.235-0.036-0.467-0.107-0.689l0.004,0.008l-0.004-0.005c-0.071-0.23-0.178-0.451-0.322-0.652l-0.27,0.197l0.27-0.194
		c-0.141-0.197-0.315-0.376-0.523-0.525h0.002c-0.258-0.186-0.541-0.31-0.833-0.377l0,0l0,0c-0.17-0.037-0.339-0.056-0.511-0.056
		c-0.124,0-0.245,0.011-0.367,0.029h-0.003c-0.287,0.048-0.569,0.15-0.821,0.305l-0.005,0.003l0.006-0.004
		c-0.259,0.154-0.485,0.364-0.669,0.619l-0.013,0.016l-0.01,0.019c-0.32,0.582-0.642,1.165-0.957,1.748l-0.005,0.008l0.007-0.01
		c-0.321,0.581-0.638,1.164-0.956,1.745c-0.315,0.583-0.634,1.163-0.95,1.744l0.011-0.02l-0.011,0.02
		c-0.316,0.582-0.634,1.162-0.951,1.744l-0.147,0.27l-0.146,0.271l-0.007,0.012l-0.139,0.256l-0.147,0.269l-0.004,0.002
		c-0.081,0.153-0.167,0.311-0.251,0.471l0.003-0.003l-0.006,0.006c-0.08,0.159-0.165,0.32-0.247,0.486l0.298,0.149l-0.295-0.152
		c-0.086,0.166-0.169,0.331-0.252,0.497l-0.013,0.024l0.013-0.024c-0.083,0.165-0.166,0.334-0.25,0.499v0.002
		c-0.422,0.844-0.854,1.71-1.33,2.552c-0.474,0.84-0.989,1.656-1.569,2.39c-0.58,0.739-1.227,1.396-1.968,1.936
		c-0.742,0.539-1.573,0.954-2.537,1.206c-0.661,0.177-1.319,0.257-1.975,0.257c-0.399,0-0.796-0.029-1.191-0.086
		c-1.042-0.15-2.063-0.488-3.034-0.96c-0.971-0.471-1.894-1.077-2.733-1.753l-0.014-0.014l0.013,0.014
		c-0.842-0.678-1.602-1.431-2.249-2.191l-0.003-0.004l-0.002-0.003c-0.354-0.395-0.676-0.812-0.958-1.25h-0.004
		c-0.287-0.44-0.538-0.899-0.75-1.376c-0.215-0.477-0.394-0.968-0.531-1.474c-0.139-0.505-0.238-1.023-0.301-1.549l-0.33,0.039
		l0.331-0.03c-0.023-0.259-0.034-0.515-0.034-0.766c0-0.403,0.027-0.796,0.081-1.185l0,0c0.086-0.633,0.236-1.252,0.436-1.872
		l-0.005,0.019l0.005-0.017c0.204-0.62,0.456-1.234,0.74-1.856l-0.004,0.011l0.005-0.012c0.284-0.623,0.606-1.253,0.945-1.901
		l-0.296-0.154l0.293,0.159c0.22-0.407,0.435-0.816,0.643-1.227l-0.009,0.02l0.009-0.019c0.211-0.41,0.416-0.823,0.619-1.235
		c0.203-0.412,0.402-0.821,0.6-1.225V7.947c0.197-0.404,0.394-0.803,0.591-1.196l0.27-0.554l0.267-0.551l0.27-0.552l-0.025,0.051
		l0.293-0.601l-0.298-0.146l0.283,0.164c0.097-0.16,0.184-0.325,0.263-0.493l0,0c0.08-0.169,0.151-0.344,0.209-0.521l0.001-0.001
		c0.059-0.177,0.106-0.356,0.146-0.537V3.009c0.04-0.179,0.07-0.364,0.09-0.552l0.003-0.028l-0.003-0.027
		c-0.01-0.161-0.036-0.319-0.078-0.475L18.36,1.923L18.358,1.92c-0.044-0.149-0.103-0.298-0.176-0.437l-0.009-0.018l-0.242-0.355
		L17.912,1.08l-0.326-0.309L17.58,0.766L17.573,0.76c-0.128-0.108-0.266-0.203-0.408-0.28l-0.002-0.002
		c-0.143-0.075-0.296-0.139-0.457-0.184l-0.088,0.322l0.091-0.32c-0.158-0.045-0.322-0.073-0.486-0.081l-0.124-0.002
		c-0.125,0-0.249,0.01-0.374,0.03l-0.012,0.001l-0.01,0.004c-0.331,0.081-0.633,0.228-0.906,0.417l-0.014,0.009l0.014-0.008
		c-0.273,0.19-0.518,0.422-0.744,0.679h0.001c-0.224,0.257-0.431,0.537-0.621,0.827l0,0c-0.19,0.289-0.366,0.586-0.531,0.876
		l-0.154,0.261l0.007-0.01L12.592,3.57l-0.155,0.264l-0.156,0.264l0.003-0.005L12.28,4.099c-0.446,0.776-0.903,1.56-1.345,2.355
		l-0.014,0.025l0.014-0.026C10.495,7.246,10.063,8.05,9.66,8.866l0.01-0.017L9.662,8.866c-0.406,0.815-0.779,1.643-1.113,2.483l0,0
		c-0.333,0.842-0.624,1.694-0.852,2.563v-0.001c-0.353,1.312-0.512,2.633-0.512,3.942c0,0.8,0.06,1.598,0.174,2.387
		c0.296,2.081,0.96,4.11,1.861,6.023c0.904,1.917,2.045,3.717,3.301,5.344c1.259,1.626,2.633,3.078,4,4.296
		c0.891,0.793,1.619,1.602,2.184,2.422c0.564,0.816,0.964,1.641,1.204,2.462l-0.003-0.012l0.003,0.012
		c0.179,0.612,0.268,1.221,0.268,1.826c0,0.207-0.011,0.413-0.031,0.62v-0.002c-0.083,0.812-0.325,1.612-0.736,2.408l-0.003,0.003
		l-0.001,0.002c-0.169,0.346-0.309,0.703-0.416,1.065l-0.004,0.017l0.004-0.017c-0.105,0.367-0.18,0.739-0.219,1.115
		c-0.023,0.227-0.035,0.456-0.035,0.684c0,0.152,0.005,0.302,0.015,0.452c0.026,0.379,0.086,0.759,0.181,1.13l0.039,0.156
		l0.149,0.068c1.471,0.656,2.988,1.193,4.53,1.606c1.541,0.414,3.108,0.71,4.695,0.885c1.111,0.122,2.227,0.181,3.347,0.181
		c0.475,0,0.949-0.011,1.425-0.031c1.597-0.075,3.189-0.271,4.767-0.594l0.197-0.039l0.057-0.195L37.815,52.035z M17.644,51.422
		c0.456,0.247,0.559,0.304,0.694,0.354c0.125,0.047,0.202,0.067,0.68,0.268c0.973,0.41,1.968,0.776,2.985,1.092
		c1.017,0.315,2.059,0.584,3.116,0.801c1.055,0.218,2.133,0.381,3.226,0.492c1.091,0.111,2.199,0.168,3.322,0.168
		c1.122,0,2.228-0.057,3.322-0.168c1.106-0.113,3.216-0.49,4.272-0.707l0.215-0.044l0.392-1.965l-0.325-0.064l0.321,0.08
		c0.331-1.317,0.497-2.46,0.521-3.498l0.003-0.263c0-0.936-0.12-1.79-0.334-2.612c-0.236-0.901-0.59-1.762-1.027-2.657l0,0
		c-0.44-0.896-0.966-1.83-1.557-2.876l0.007,0.016l-0.227-0.4l-0.221-0.386l-0.22-0.383l-0.008-0.013l-0.207-0.371l-0.005-0.006
		l0.005,0.007c-0.717-1.284-1.038-2.571-1.111-3.792v-0.002c-0.015-0.205-0.021-0.408-0.021-0.61c0-0.997,0.151-1.934,0.369-2.765
		c0.258-1.002,0.611-1.845,0.899-2.438l0,0c0.146-0.299,0.274-0.534,0.369-0.697l0.109-0.189l0.03-0.051l0.025-0.041l0.001-0.004
		l1.691-3.35l1.688-3.346l1.687-3.346l1.686-3.347l-0.298-0.149l0.294,0.156c0.25-0.475,0.39-0.976,0.434-1.477l0,0l0.013-0.324
		c0-0.393-0.061-0.781-0.174-1.152v0.007l-0.002-0.008c-0.146-0.471-0.382-0.917-0.703-1.304l0.017,0.02l-0.017-0.02
		c-0.314-0.388-0.717-0.723-1.19-0.971c-0.47-0.248-0.973-0.389-1.474-0.431l-0.317-0.013c-0.396,0-0.785,0.059-1.157,0.174
		c-0.472,0.146-0.92,0.384-1.309,0.705l0.009-0.006l-0.008,0.004c-0.389,0.319-0.723,0.721-0.969,1.192l0.295,0.156l-0.293-0.161
		l-0.967,1.773l-0.938,1.714l-0.953,1.745l-0.955,1.748l-0.146,0.281l-0.146,0.281l-0.144,0.278l-0.146,0.281l0.296,0.155
		l-0.294-0.162c-0.086,0.16-0.176,0.323-0.261,0.489l-0.003,0.005l0.003-0.006c-0.086,0.165-0.171,0.33-0.259,0.499l-0.007,0.012
		l0.007-0.011c-0.086,0.169-0.172,0.339-0.254,0.511l0.017-0.032l-0.017,0.032c-0.086,0.171-0.171,0.344-0.256,0.517
		c-0.395,0.807-0.793,1.616-1.22,2.387l0.011-0.018l-0.011,0.018c-0.43,0.772-0.885,1.507-1.39,2.161l0.016-0.02l-0.016,0.021
		c-0.506,0.655-1.059,1.23-1.681,1.696l-0.016,0.013l0.016-0.014c-0.624,0.464-1.313,0.814-2.104,1.021
		c-0.512,0.135-1.031,0.199-1.548,0.199c-0.378,0-0.756-0.035-1.132-0.098c-0.894-0.148-1.775-0.465-2.617-0.893
		c-0.842-0.431-1.641-0.97-2.366-1.563c-0.725-0.595-1.376-1.24-1.919-1.878l-0.002-0.003l-0.002-0.003
		c-0.298-0.332-0.567-0.686-0.808-1.057h-0.001c-0.241-0.371-0.451-0.757-0.634-1.16l-0.008-0.017l0.008,0.018
		c-0.182-0.401-0.333-0.817-0.449-1.242l-0.003-0.009l0.003,0.006c-0.12-0.425-0.205-0.86-0.258-1.303l-0.33,0.04l0.332-0.028
		c-0.019-0.206-0.027-0.407-0.027-0.609c0-0.354,0.027-0.706,0.078-1.055c0.081-0.547,0.22-1.096,0.404-1.646l0,0
		c0.185-0.552,0.413-1.107,0.676-1.672l0,0c0.263-0.567,0.554-1.142,0.865-1.731l0.002-0.001c0.21-0.405,0.424-0.814,0.631-1.227
		c0.21-0.41,0.416-0.822,0.623-1.233l0.008-0.016l-0.008,0.015c0.204-0.41,0.408-0.823,0.611-1.231
		c0.202-0.41,0.402-0.815,0.601-1.218l0.267-0.538l-0.032,0.066l0.301-0.607l-0.025,0.049l0.292-0.588l0.27-0.538l-0.299-0.148
		l0.289,0.167c0.123-0.212,0.238-0.434,0.336-0.663l-0.001,0.004V4.663c0.101-0.225,0.187-0.457,0.261-0.691l0.003-0.014
		L19.74,3.969c0.073-0.236,0.131-0.475,0.178-0.713l0.001-0.005l0,0c0.043-0.242,0.077-0.486,0.093-0.735L20.013,2.5V2.483
		c-0.016-0.544-0.145-1.061-0.36-1.525l-0.004-0.011l0.006,0.012c-0.214-0.466-0.517-0.884-0.884-1.229l0.023,0.023l-0.023-0.024
		c-0.369-0.347-0.803-0.622-1.282-0.807l-0.004-0.001l0.005,0.001c-0.443-0.172-0.923-0.266-1.423-0.266L15.944-1.34h-0.002
		l-0.129,0.006h-0.006l-0.132,0.012h-0.006l-0.13,0.015h-0.005l-0.133,0.02l-0.01,0.001l-0.01,0.002
		c-0.528,0.115-1,0.333-1.413,0.611L13.938-0.65l0.031-0.021c-0.414,0.276-0.771,0.611-1.082,0.961L12.88,0.296l0.008-0.007
		c-0.312,0.35-0.574,0.716-0.798,1.058l0.026-0.039l-0.026,0.04c-0.225,0.344-0.409,0.665-0.558,0.923l-0.157,0.268l-0.008,0.015
		l-0.151,0.254l-0.004,0.008L11.059,3.08l-0.158,0.27l0.014-0.025l-0.013,0.026c-0.461,0.8-0.926,1.606-1.384,2.427
		C9.063,6.597,8.62,7.428,8.201,8.272c-0.42,0.848-0.81,1.708-1.159,2.586l0,0c-0.348,0.878-0.653,1.773-0.899,2.692l-0.001,0.001
		c-0.378,1.438-0.55,2.877-0.55,4.304c0,0.847,0.062,1.69,0.176,2.525c0.31,2.237,1.006,4.413,1.955,6.461
		c0.95,2.049,2.155,3.97,3.484,5.706c1.329,1.734,2.782,3.283,4.235,4.578l0.001,0.003c0.532,0.465,1.063,0.998,1.533,1.583V38.71
		c0.466,0.585,0.874,1.221,1.163,1.888l0.009,0.023l-0.009-0.023c0.28,0.653,0.444,1.341,0.444,2.054v0.042l0.333-0.001
		l-0.333-0.004c-0.008,0.724-0.184,1.477-0.598,2.259l-0.001,0.002c-0.172,0.333-0.319,0.674-0.438,1.026v-0.002
		c-0.122,0.349-0.215,0.707-0.286,1.065l0,0c-0.069,0.363-0.111,0.73-0.13,1.1l-0.008,0.353
		C17.122,48.744,17.621,51.171,17.644,51.422l1.043-0.485c-0.022-0.231-0.897-2.213-0.897-2.444l0.007-0.323
		c0.016-0.337,0.055-0.674,0.117-1.005v0.002c0.066-0.33,0.152-0.656,0.262-0.974l0.003-0.008l-0.003,0.004
		c0.109-0.317,0.244-0.629,0.4-0.931l-0.001,0.005v-0.002c0.461-0.87,0.668-1.736,0.677-2.567v-0.005l0,0v-0.039
		c0-0.814-0.19-1.592-0.5-2.316l0,0c-0.316-0.737-0.757-1.42-1.251-2.041h-0.002c-0.499-0.62-1.058-1.179-1.611-1.667l0.004,0.005
		l-0.003-0.003c-1.419-1.267-2.847-2.785-4.148-4.484c-1.304-1.7-2.483-3.582-3.409-5.581c-0.927-1.999-1.602-4.111-1.899-6.271
		c-0.112-0.806-0.17-1.619-0.17-2.434c0-1.374,0.167-2.754,0.529-4.135L6.787,13.73l0.001-0.007c0.238-0.889,0.536-1.761,0.875-2.62
		l0,0c0.341-0.857,0.723-1.702,1.137-2.535c0.413-0.833,0.851-1.654,1.303-2.467s0.916-1.617,1.378-2.416l0.155-0.27l0.012-0.019
		l0.146-0.252l0.009-0.014l0.15-0.254l-0.01,0.014l0.166-0.284V2.605c0.148-0.257,0.326-0.567,0.538-0.892l0,0
		c0.213-0.326,0.457-0.666,0.738-0.981l0.001-0.001c0.281-0.317,0.597-0.612,0.951-0.849h0.001c0.353-0.238,0.744-0.418,1.182-0.514
		l-0.07-0.326l0.051,0.329l0.121-0.018l0.115-0.015l0.113-0.009l0.121-0.005l-0.016-0.333l0.01,0.333l0.102-0.002
		c0.417,0,0.817,0.078,1.181,0.221h0.001c0.4,0.153,0.76,0.381,1.064,0.667l0,0c0.308,0.29,0.558,0.635,0.735,1.021h0.001
		c0.179,0.387,0.285,0.814,0.297,1.269L19.68,2.49l-0.332-0.022c-0.015,0.219-0.043,0.442-0.084,0.661l0.327,0.059l-0.326-0.066
		c-0.044,0.221-0.098,0.435-0.163,0.647l-0.001,0.007l0.002-0.008c-0.066,0.212-0.145,0.42-0.234,0.623l-0.001,0.002
		c-0.086,0.2-0.188,0.398-0.3,0.592l-0.006,0.01l-0.273,0.546l-0.269,0.541l-0.267,0.541l-0.268,0.538l-0.002,0.001
		c-0.199,0.404-0.4,0.811-0.601,1.22c-0.2,0.409-0.405,0.819-0.608,1.23l-0.007,0.015l0.007-0.017
		c-0.208,0.411-0.413,0.821-0.622,1.23c-0.208,0.408-0.418,0.815-0.629,1.221l0.001-0.001c-0.317,0.597-0.613,1.18-0.881,1.762l0,0
		c-0.271,0.582-0.509,1.159-0.705,1.741l0,0c-0.192,0.581-0.344,1.167-0.429,1.761c-0.055,0.381-0.087,0.764-0.087,1.152
		c0,0.222,0.011,0.443,0.031,0.668v0.005l0.001,0.004c0.056,0.477,0.148,0.946,0.275,1.406v-0.002
		c0.126,0.459,0.287,0.907,0.484,1.34l0,0c0.195,0.433,0.422,0.848,0.684,1.249h-0.001c0.259,0.399,0.548,0.779,0.871,1.137
		l0.249-0.223l-0.254,0.216c0.571,0.667,1.248,1.343,2.006,1.962c0.755,0.62,1.593,1.187,2.484,1.64
		c0.892,0.454,1.835,0.794,2.808,0.957c0.41,0.068,0.825,0.105,1.242,0.105c0.57,0,1.148-0.068,1.717-0.221
		c0.878-0.229,1.649-0.623,2.334-1.131l0.017-0.013l-0.017,0.013c0.682-0.512,1.275-1.131,1.81-1.825l0.013-0.018l-0.014,0.018
		c0.535-0.691,1.007-1.454,1.445-2.243l-0.01,0.02l0.01-0.021c0.438-0.79,0.842-1.609,1.237-2.416
		c0.082-0.172,0.168-0.344,0.251-0.515l-0.027,0.059l0.027-0.06c0.085-0.171,0.17-0.34,0.255-0.504l0,0
		c0.082-0.167,0.168-0.331,0.255-0.492v-0.003c0.082-0.159,0.168-0.315,0.254-0.471l0.001-0.003l0.148-0.285l0.144-0.278
		l0.146-0.282l0.005-0.009l0.139-0.267l0.954-1.739l0.951-1.745l0.982-1.797l0.923-1.693l0.001-0.004
		c0.208-0.392,0.481-0.723,0.805-0.985l0.001-0.001c0.317-0.264,0.688-0.46,1.08-0.582c0.308-0.095,0.631-0.145,0.959-0.145
		l0.26,0.011c0.414,0.035,0.833,0.152,1.222,0.357c0.395,0.206,0.725,0.482,0.986,0.802l0,0c0.265,0.323,0.46,0.69,0.581,1.083
		l-0.002-0.005l0.002,0.003c0.095,0.309,0.146,0.632,0.146,0.957l-0.013,0.267l0,0c-0.034,0.415-0.15,0.828-0.356,1.22l-1.69,3.353
		l-1.688,3.346l-1.687,3.348l-1.688,3.346l0.298,0.148l-0.293-0.156l0.229,0.125l-0.224-0.136l-0.006,0.011l0.229,0.125
		l-0.224-0.136c-0.019,0.028-0.257,0.407-0.552,1.014l0,0c-0.303,0.623-0.673,1.506-0.948,2.561
		c-0.227,0.877-0.389,1.87-0.389,2.934c0,0.217,0.008,0.433,0.021,0.654v-0.003c0.082,1.31,0.427,2.703,1.195,4.08l0.219,0.385
		l0.003,0.007l0.217,0.379l0.221,0.384l0.014,0.022l0.204,0.361l-0.007-0.014l0.007,0.012c0.59,1.047,1.111,1.971,1.537,2.842
		l-0.013-0.023l0.013,0.023c0.43,0.873,0.763,1.69,0.981,2.531c0.203,0.772,0.313,1.566,0.313,2.445l0.002,0.25
		c-0.022,0.979-0.181,2.071-0.501,3.351l-0.002,0.008l-0.349,1.756l0.325,0.064l-0.065-0.326c-1.037,0.212-3.156,0.592-4.207,0.697
		c-1.071,0.108-2.156,0.165-3.255,0.165c-1.101,0-2.186-0.057-3.255-0.165c-1.07-0.109-2.125-0.271-3.158-0.482
		c-1.036-0.211-2.057-0.476-3.052-0.786c-0.995-0.309-1.97-0.667-2.922-1.068c-0.482-0.205-0.622-0.244-0.703-0.274
		c-0.068-0.025-0.156-0.069-0.614-0.319L17.644,51.422z"/>
</g>
</svg>
