<?xml version="1.0" encoding="utf-8"?>
<!-- Generator: Adobe Illustrator 15.0.0, SVG Export Plug-In . SVG Version: 6.00 Build 0)  -->
<!DOCTYPE svg PUBLIC "-//W3C//DTD SVG 1.1//EN" "http://www.w3.org/Graphics/SVG/1.1/DTD/svg11.dtd">
<svg version="1.1" id="Layer_1" xmlns="http://www.w3.org/2000/svg" xmlns:xlink="http://www.w3.org/1999/xlink" x="0px" y="0px"
	 width="60px" height="60px" viewBox="0 -5 60 60" enable-background="new 0 -5 60 60" xml:space="preserve">
<g>
	<path fill="#FFFFFF" d="M12.956,36.342l0.655,0.736c0.04-0.039,1.645-1.465,3.265-3.863c1.614-2.395,3.266-5.781,3.27-9.743v-1.97
		l-1.576,1.182l0,0c-0.086,0.07-1.408,0.959-3.059,0.948c-0.699-0.001-1.464-0.144-2.29-0.57c-0.823-0.427-1.715-1.143-2.623-2.333
		l-0.784,0.598l0.795-0.581c-1.386-1.899-2.876-3.486-4.057-4.628c-0.59-0.57-1.102-1.028-1.486-1.356
		c-0.192-0.165-0.351-0.297-0.473-0.396c-0.13-0.102-0.191-0.153-0.286-0.218l-0.547,0.818l0.604-0.777
		c-0.458-0.357-1.011-0.536-1.544-0.535c-0.744,0-1.451,0.329-1.946,0.894L0.855,14.57l-0.019,0.023
		c-0.358,0.458-0.538,1.012-0.536,1.544c0.001,0.745,0.329,1.452,0.896,1.946l0.279,0.243h0.369v-0.97L1.489,18.26
		c0.061,0.018,0.129,0.061,0.356,0.067v-0.97L1.489,18.26l0.319-0.811l-0.462,0.738l0.142,0.073l0.319-0.811l-0.463,0.738
		l0.217-0.347l-0.237,0.334l0.021,0.013l0.217-0.347l-0.237,0.334c0.018,0.01,0.206,0.161,0.447,0.375
		c0.74,0.654,2.166,2.014,3.611,3.72l0.751-0.637l-0.78,0.601l1.301,1.686l0.781-0.602l-0.812,0.557
		c0.546,0.791,1.172,1.515,1.629,2.209c0.463,0.697,0.73,1.32,0.726,1.906v2.68c0.006,0.574-0.276,1.225-0.761,1.943
		c-0.479,0.719-1.123,1.459-1.67,2.252l0.812,0.559l-0.74-0.65c-0.571,0.654-0.972,1.215-1.151,1.48l0.819,0.549l-0.761-0.627
		c-1.036,1.258-2.098,2.324-2.908,3.078c-0.406,0.371-0.746,0.674-0.992,0.883c-0.123,0.105-0.219,0.189-0.292,0.248l-0.086,0.074
		l-0.034,0.029l-0.062,0.055l0.69,0.703l-0.605-0.777c-0.621,0.477-0.967,1.209-0.962,1.939c0,0.564,0.198,1.123,0.56,1.588
		l0.004,0.006l0.006,0.008c0.487,0.6,1.202,0.975,1.994,0.98c0.237,0,0.491-0.027,0.767-0.105c0.271-0.082,0.574-0.219,0.848-0.488
		l0.085-0.084l0.064-0.105L3.979,43.83l0.524,0.516l0.102-0.139L3.977,43.83l0.524,0.516l-0.105-0.104l0.1,0.109l0.005-0.006
		l-0.105-0.104l0.1,0.109c0.017-0.021,0.168-0.143,0.372-0.293c0.732-0.537,2.229-1.561,3.881-2.805
		c1.657-1.25,3.475-2.723,4.916-4.23L12.956,36.342l0.655,0.736L12.956,36.342l-0.711-0.684c-1.57,1.646-3.779,3.369-5.617,4.713
		c-0.919,0.674-1.745,1.256-2.366,1.695c-0.31,0.223-0.569,0.408-0.77,0.559l-0.269,0.221l-0.127,0.117
		c-0.046,0.049-0.097,0.098-0.178,0.225l0.845,0.51L3.066,43l0.09,0.088l-0.062-0.115L3.066,43l0.09,0.088l-0.062-0.115
		l-0.252,0.045c-0.127,0.004-0.331-0.082-0.46-0.244l-0.767,0.615l0.778-0.604c-0.107-0.141-0.142-0.271-0.144-0.379
		c0.007-0.145,0.047-0.256,0.203-0.385l0.045-0.037l0.04-0.037l-0.496-0.506l0.462,0.537l0.033-0.031l-0.496-0.506l0.462,0.537
		c0.026-0.025,0.22-0.182,0.486-0.41c0.812-0.703,2.45-2.186,4.061-4.141l0.03-0.037l0.026-0.043
		c0.13-0.193,0.496-0.705,0.997-1.279l0.039-0.043l0.033-0.047c0.449-0.662,1.105-1.414,1.68-2.271
		c0.568-0.85,1.09-1.844,1.095-3.037v-2.68c-0.004-1.178-0.503-2.162-1.053-2.996c-0.558-0.839-1.195-1.571-1.648-2.236
		l-0.016-0.023l-1.333-1.726l-0.014-0.015c-1.101-1.298-2.176-2.394-2.993-3.171c-0.408-0.388-0.751-0.698-1.006-0.916
		c-0.127-0.109-0.231-0.196-0.318-0.264l-0.134-0.099l-0.106-0.064l-0.119-0.056c-0.064-0.02-0.137-0.063-0.367-0.07v0.985
		l0.648-0.742c-0.148-0.131-0.223-0.306-0.223-0.464L2.39,15.8l-0.778-0.604l0.739,0.65c0.132-0.148,0.309-0.223,0.467-0.222
		l0.334,0.12l0.028,0.021l0.029,0.02l0.241-0.361l-0.251,0.354l0.011,0.006l0.242-0.361l-0.25,0.354l0.191,0.152
		c0.787,0.636,3.393,2.914,5.622,5.977l0.006,0.008l0.007,0.009c1.055,1.381,2.171,2.311,3.285,2.886
		c1.113,0.577,2.216,0.793,3.195,0.792c2.486-0.014,4.153-1.285,4.241-1.342l-0.591-0.788h-0.985
		c0.004,3.394-1.447,6.442-2.934,8.644c-0.742,1.1-1.487,1.982-2.041,2.584c-0.278,0.301-0.509,0.533-0.667,0.686l-0.18,0.172
		l-0.044,0.041l-0.01,0.01l-0.03,0.027l-0.027,0.027L12.956,36.342z M30.192,11.595v0.985c1.798,0,3.431-0.722,4.605-1.897
		c1.176-1.173,1.896-2.808,1.895-4.604c0.002-1.797-0.721-3.431-1.895-4.603c-1.177-1.174-2.808-1.898-4.605-1.897
		c-1.797,0-3.43,0.723-4.602,1.897c-1.175,1.172-1.898,2.806-1.897,4.603v0.011v0.013c0.085,3.583,2.956,6.473,6.5,6.478v-0.985
		v-0.985c-2.433,0.004-4.469-2.008-4.53-4.555l-0.985,0.023h0.985c0.004-2.525,2.004-4.526,4.53-4.53
		c2.527,0.004,4.528,2.004,4.53,4.53c-0.002,2.526-2.003,4.528-4.53,4.531v0.985H30.192z M18.011,17.866h0.985
		c-0.01-2.394-1.959-4.347-4.354-4.355c-2.394,0.008-4.347,1.961-4.356,4.355c0.011,2.396,1.963,4.346,4.356,4.355
		c1.182,0,2.272-0.469,3.066-1.25c0.793-0.779,1.29-1.883,1.288-3.105H18.011h-0.985c-0.003,1.369-1.073,2.378-2.384,2.385
		c-0.642,0-1.237-0.268-1.678-0.708c-0.44-0.441-0.708-1.036-0.708-1.678c0-0.642,0.268-1.237,0.708-1.678
		c0.441-0.44,1.037-0.708,1.678-0.708c0.641,0,1.236,0.268,1.678,0.708c0.44,0.439,0.706,1.036,0.706,1.678h0.985V17.866z
		 M58.154,41.09v-0.984v0.971l0.368-0.9c-0.062-0.018-0.127-0.064-0.368-0.072v0.973l0.368-0.902l-0.328,0.803l0.468-0.73
		l-0.14-0.072l-0.328,0.803l0.468-0.734l-0.01,0.016l0.01-0.016l0,0l-0.01,0.016l0.01-0.016c-0.155-0.117-0.751-0.629-1.509-1.367
		c-0.766-0.744-1.723-1.734-2.694-2.873l-0.749,0.641l0.82-0.545c-0.18-0.27-0.575-0.828-1.149-1.482l-0.738,0.648l0.792-0.584
		c-0.571-0.771-1.208-1.508-1.674-2.219c-0.473-0.713-0.741-1.363-0.739-1.947v-2.676c-0.004-0.533,0.263-1.176,0.732-1.885
		c0.46-0.709,1.084-1.448,1.623-2.235l-0.812-0.556l0.781,0.603l1.302-1.686l-0.78-0.603l0.751,0.637
		c1.041-1.228,2.07-2.256,2.846-2.984c0.388-0.364,0.711-0.652,0.939-0.855l0.274-0.237l0.086-0.072l0.092-0.084l-0.699-0.694
		l0.605,0.779c0.619-0.476,0.97-1.21,0.962-1.938c0.002-0.568-0.199-1.127-0.562-1.591l-0.073-0.098l0.073,0.096
		c-0.474-0.619-1.209-0.967-1.936-0.961c-0.569,0-1.127,0.198-1.589,0.559l0.604,0.778l-0.544-0.821
		c-0.098,0.066-0.159,0.116-0.291,0.219c-0.848,0.685-3.586,3.056-6.018,6.381l0.799,0.581l-0.779-0.603
		c-0.914,1.179-1.808,1.889-2.634,2.312c-0.831,0.422-1.602,0.565-2.307,0.566c-0.88,0-1.66-0.234-2.216-0.475
		c-0.275-0.12-0.494-0.239-0.638-0.325l-0.155-0.101l-0.033-0.022l0,0l-1.569-1.15v1.945c0.004,3.962,1.656,7.347,3.271,9.744
		c1.619,2.396,3.224,3.826,3.266,3.861l0.655-0.736l-0.715,0.68c1.725,1.805,4.001,3.566,5.883,4.926
		c0.939,0.68,1.78,1.256,2.401,1.676c0.309,0.207,0.563,0.377,0.74,0.5l0.203,0.141l0.038,0.031l0.372-0.486l-0.428,0.432
		l0.056,0.055l0.372-0.486l-0.428,0.432l0.048,0.049l0.056,0.043c0.47,0.361,1.041,0.512,1.512,0.504
		c0.79-0.006,1.505-0.381,1.993-0.982l-0.771-0.617l0.641,0.746c0.49-0.42,0.699-1.02,0.695-1.576c0-0.717-0.324-1.443-0.96-1.941
		l-0.265-0.203h-0.339V41.09l-0.604,0.777c0.138,0.105,0.203,0.275,0.199,0.389l-0.012,0.082l-0.004,0.004l0.038,0.025l-0.03-0.033
		l-0.008,0.01l0.038,0.025l-0.03-0.031l-0.069,0.059l-0.058,0.074c-0.126,0.16-0.329,0.248-0.454,0.244
		c-0.147-0.008-0.189-0.014-0.331-0.111l-0.589,0.785l0.696-0.695l-0.133-0.115c-0.116-0.092-0.255-0.182-0.469-0.326
		c-0.727-0.494-2.196-1.473-3.825-2.686c-1.631-1.215-3.421-2.666-4.751-4.059l-0.028-0.027l-0.027-0.027l-0.012-0.008
		c-0.14-0.129-1.637-1.51-3.071-3.693c-1.439-2.182-2.798-5.145-2.796-8.433H40.84l-0.579,0.795
		c0.085,0.055,1.744,1.292,4.207,1.304c0.98,0,2.085-0.209,3.202-0.781c1.117-0.569,2.24-1.49,3.3-2.86l0.008-0.01l0.008-0.012
		c1.295-1.778,2.717-3.292,3.836-4.373c0.56-0.541,1.041-0.974,1.397-1.276c0.178-0.153,0.32-0.272,0.422-0.354l0.124-0.096
		l0.027-0.022l0.004-0.002l-0.271-0.384l0.259,0.393l0.012-0.008l-0.271-0.384l0.259,0.393l0.03-0.021l0.029-0.024
		c0.14-0.108,0.271-0.143,0.381-0.143c0.142,0.005,0.255,0.045,0.382,0.202l0.042,0.053l-0.042-0.053
		c0.108,0.139,0.144,0.272,0.144,0.381c-0.004,0.141-0.044,0.254-0.199,0.381l-0.052,0.04l-0.044,0.044l0.504,0.5l-0.472-0.534
		l-0.029,0.03l0.501,0.499l-0.472-0.529c-0.021,0.02-0.203,0.172-0.456,0.393c-0.765,0.673-2.315,2.095-3.919,3.985l-0.012,0.015
		l-1.334,1.726l-0.019,0.025c-0.454,0.669-1.093,1.424-1.646,2.269c-0.548,0.84-1.046,1.809-1.052,2.961v2.68
		c0.004,1.18,0.498,2.174,1.063,3.033c0.567,0.859,1.232,1.619,1.734,2.301l0.024,0.033l0.025,0.031
		c0.502,0.572,0.866,1.084,0.992,1.273l0.031,0.053l0.038,0.043c1.14,1.338,2.254,2.469,3.095,3.273
		c0.424,0.402,0.778,0.725,1.039,0.949c0.134,0.113,0.241,0.203,0.327,0.273l0.135,0.1l0.1,0.062l0.122,0.059
		c0.063,0.02,0.133,0.064,0.374,0.072V41.09l-0.604,0.777L58.154,41.09z M51.107,46.912l0.698-0.689l-0.073-0.072
		c-0.09-0.076-0.341-0.283-0.759-0.646c-1.238-1.086-3.817-3.459-6.382-6.57L44.59,38.93l-0.002-0.002
		c-0.347-0.408-0.649-0.865-1.073-1.377L42.76,38.18l0.784-0.592c-0.993-1.311-2.206-2.676-3.145-4.043
		c-0.947-1.369-1.57-2.711-1.561-3.867v-9.27c0.002-1.276,0.458-2.28,1.169-3.323c0.703-1.037,1.66-2.05,2.489-3.245l-0.811-0.559
		l0.774,0.605l2.453-3.141l-0.776-0.606l0.751,0.639c1.73-2.036,3.433-3.756,4.707-4.974c0.638-0.61,1.167-1.093,1.543-1.427
		c0.188-0.168,0.337-0.297,0.438-0.388l0.127-0.11l0.04-0.035l0.058-0.054l-0.692-0.701l0.607,0.776
		c0.87-0.683,1.302-1.711,1.3-2.722c0-0.766-0.242-1.542-0.748-2.186l-0.024-0.034l0.024,0.033c-0.686-0.868-1.711-1.301-2.723-1.3
		c-0.763,0-1.541,0.246-2.188,0.751l-0.004,0.005l-0.002,0.001c-0.422,0.341-5.763,4.67-10.373,11.072l0.801,0.575l-0.713-0.682
		c-0.805,0.843-1.822,1.765-2.967,2.465c-1.144,0.706-2.394,1.182-3.7,1.214h-0.016l-0.019,0.001l-0.31,0.008
		c-1.085,0-2.209-0.319-3.4-0.999c-1.189-0.679-2.434-1.722-3.696-3.128l-0.732,0.66l0.798-0.576
		C18.566,2.851,13.366-1.258,12.957-1.588l-0.003-0.004L12.952-1.59c-0.646-0.506-1.423-0.751-2.187-0.751
		C9.752-2.343,8.726-1.91,8.045-1.041v-0.001C7.538-0.397,7.294,0.381,7.294,1.146C7.292,2.158,7.726,3.184,8.592,3.867l0.61-0.776
		L8.508,3.792l0.067,0.059C8.658,3.924,8.896,4.123,9.29,4.47c1.171,1.028,3.618,3.277,6.133,6.233l0.75-0.639l-0.77,0.617
		l2.146,2.681l0.77-0.617l-0.794,0.582c0.893,1.214,1.937,2.334,2.719,3.488c0.789,1.159,1.303,2.296,1.303,3.593v9.27
		c0.005,1.152-0.529,2.338-1.345,3.549c-0.81,1.211-1.871,2.402-2.754,3.605l0.794,0.582l-0.747-0.641
		c-0.943,1.098-1.58,1.973-1.804,2.271l0.791,0.59l-0.754-0.631c-1.771,2.105-3.528,3.883-4.848,5.137
		c-0.661,0.627-1.21,1.123-1.601,1.467c-0.195,0.176-0.35,0.309-0.459,0.402l-0.13,0.113L8.646,46.16l-0.071,0.066l0.705,0.686
		L8.67,46.139c-0.868,0.686-1.3,1.709-1.299,2.719c0,0.768,0.246,1.545,0.751,2.189l0.774-0.609l-0.788,0.59
		c0.691,0.916,1.762,1.314,2.78,1.314c0.719,0.004,1.507-0.215,2.162-0.766l-0.629-0.756l0.615,0.77
		c0.092-0.074,0.201-0.17,0.385-0.336c1.248-1.137,5.356-5.061,9.493-10.072l-0.761-0.629l0.741,0.648
		c0.762-0.873,1.818-1.904,3.043-2.707c1.228-0.805,2.608-1.371,4.051-1.4h0.012l0.016-0.002l0.298-0.008
		c1.189,0.002,2.402,0.369,3.692,1.15c1.288,0.779,2.639,1.977,4.026,3.578l-0.004-0.006v0.002c2.355,2.74,4.592,5.096,6.29,6.805
		c0.851,0.854,1.565,1.547,2.098,2.051c0.263,0.248,0.481,0.453,0.648,0.605c0.172,0.154,0.273,0.246,0.362,0.32l0.616-0.77
		l-0.628,0.756c0.651,0.551,1.442,0.77,2.161,0.766c1.031,0.01,2.035-0.445,2.731-1.254l0.032-0.039l0.032-0.039
		c0.438-0.621,0.659-1.35,0.659-2.076c0.002-1.014-0.435-2.043-1.287-2.768L51.107,46.912l0.698-0.689L51.107,46.912l-0.64,0.75
		c0.402,0.346,0.592,0.809,0.594,1.271c0,0.334-0.098,0.656-0.295,0.932l0.801,0.574l-0.739-0.652
		c-0.376,0.418-0.748,0.576-1.252,0.584c-0.354-0.004-0.636-0.086-0.904-0.307l-0.008-0.008l-0.004-0.002
		c-0.006-0.008-0.12-0.104-0.271-0.244c-1.095-0.994-4.816-4.568-8.867-9.285l-0.006-0.002c-1.481-1.709-2.965-3.045-4.492-3.969
		c-1.521-0.928-3.104-1.438-4.714-1.438c-0.133,0-0.267,0.006-0.4,0.01l0.052,0.984l-0.024-0.984
		c-1.931,0.047-3.652,0.787-5.086,1.723c-1.436,0.941-2.601,2.094-3.446,3.061l-0.012,0.01l-0.008,0.01
		c-2.312,2.805-4.628,5.275-6.414,7.078c-0.889,0.898-1.647,1.635-2.204,2.16c-0.278,0.266-0.507,0.473-0.675,0.625
		c-0.164,0.148-0.285,0.254-0.29,0.258l-0.008,0.008l-0.006,0.004c-0.269,0.221-0.55,0.305-0.902,0.309
		c-0.517,0.002-0.979-0.213-1.204-0.523l-0.007-0.01L9.668,49.83c-0.221-0.279-0.331-0.625-0.331-0.973
		c0.001-0.461,0.191-0.893,0.547-1.17l0.05-0.041l0.046-0.045l-0.608-0.594l0.572,0.629l0.036-0.035L9.373,47.01l0.572,0.631
		l-0.036-0.039l0.035,0.039h0.001l-0.036-0.039l0.035,0.039c0.052-0.045,0.335-0.287,0.752-0.656
		c1.265-1.123,3.873-3.543,6.537-6.713l0.021-0.021l0.016-0.025c0.233-0.311,0.824-1.123,1.721-2.166l0.025-0.029l0.022-0.031
		c0.801-1.098,1.887-2.316,2.8-3.674c0.906-1.354,1.676-2.885,1.681-4.646v-9.269c0-1.845-0.749-3.39-1.646-4.702
		c-0.902-1.318-1.966-2.458-2.76-3.542l-0.014-0.019l-2.167-2.708l-0.009-0.012c-1.792-2.104-3.54-3.853-4.854-5.088
		c-0.656-0.618-1.203-1.107-1.593-1.447c-0.194-0.17-0.351-0.304-0.458-0.396L9.892,2.389L9.862,2.364l0,0L9.309,2.983l0.585-0.589
		l-0.032-0.03L9.309,2.983l0.585-0.589L9.853,2.354L9.809,2.319C9.456,2.042,9.264,1.61,9.263,1.147c0-0.346,0.11-0.69,0.329-0.969
		L9.575,0.201l0.019-0.024c0.277-0.353,0.708-0.547,1.171-0.548c0.346,0,0.69,0.111,0.968,0.33L11.73-0.043l-0.004-0.002
		c0.358,0.283,5.421,4.296,9.699,10.227l0.03,0.043l0.036,0.04c1.369,1.519,2.757,2.702,4.183,3.518
		c1.424,0.815,2.896,1.259,4.378,1.259c0.142,0,0.283-0.003,0.425-0.012l-0.059-0.983l0.028,0.984
		c1.759-0.044,3.342-0.677,4.686-1.505c1.346-0.831,2.476-1.862,3.355-2.782l0.048-0.05l0.04-0.056
		c4.433-6.163,9.665-10.415,10.006-10.686v0.001l-0.006,0.004c0.276-0.219,0.619-0.33,0.968-0.33
		c0.462,0.001,0.895,0.193,1.175,0.548l0,0c0.217,0.279,0.329,0.623,0.329,0.969c0,0.464-0.191,0.895-0.548,1.171l-0.046,0.036
		l-0.04,0.04l0.565,0.571l-0.537-0.596l-0.028,0.025l0.565,0.571l-0.535-0.596l-0.195,0.169c-0.82,0.717-3.775,3.344-6.86,6.965
		l-0.014,0.016l-2.483,3.181l-0.016,0.024c-0.705,1.028-1.665,2.045-2.493,3.25c-0.826,1.198-1.518,2.646-1.514,4.435v9.269
		c0.012,1.832,0.882,3.477,1.906,4.98c1.037,1.506,2.275,2.9,3.199,4.119l0.017,0.018l0.012,0.02
		c0.341,0.406,0.649,0.867,1.077,1.383l-0.006-0.008c1.832,2.225,3.66,4.07,5.044,5.375c0.689,0.652,1.269,1.17,1.681,1.527
		c0.207,0.18,0.372,0.32,0.488,0.416l0.131,0.115l0.03,0.025l0.027-0.033l-0.027,0.033l0,0l0.027-0.033l-0.027,0.033l0.565-0.633
		l-0.604,0.598l0.038,0.035l0.565-0.633l-0.604,0.598l0.028,0.029l0.029,0.023L51.107,46.912z M45.36,14.572v-0.984
		c-2.392,0.009-4.345,1.96-4.354,4.356c0.011,2.395,1.958,4.347,4.354,4.355c2.397-0.01,4.347-1.961,4.354-4.355
		c0.005-1.223-0.493-2.328-1.284-3.106c-0.794-0.782-1.888-1.251-3.07-1.25V14.572v0.986c1.314,0.007,2.384,1.016,2.386,2.386
		c0,0.643-0.267,1.236-0.707,1.679c-0.44,0.44-1.033,0.708-1.679,0.708c-0.64,0-1.232-0.268-1.675-0.708
		c-0.442-0.44-0.709-1.036-0.709-1.678s0.267-1.237,0.709-1.678c0.442-0.44,1.035-0.708,1.675-0.708V14.572z"/>
</g>
</svg>
