<?xml version="1.0" encoding="utf-8"?>
<!-- Generator: Adobe Illustrator 15.0.0, SVG Export Plug-In . SVG Version: 6.00 Build 0)  -->
<!DOCTYPE svg PUBLIC "-//W3C//DTD SVG 1.1//EN" "http://www.w3.org/Graphics/SVG/1.1/DTD/svg11.dtd">
<svg version="1.1" id="Layer_1" xmlns="http://www.w3.org/2000/svg" xmlns:xlink="http://www.w3.org/1999/xlink" x="0px" y="0px"
	 width="415px" height="415px" viewBox="-177.5 -182.5 415 415" enable-background="new -177.5 -182.5 415 415"
	 xml:space="preserve">
<g>
	<g>
		<path fill="#FFFFFF" d="M234.654-4.848c-1.782-4.092-4.717-7.493-8.354-9.882c-3.636-2.389-8.02-3.772-12.647-3.771H198.5v-67.048
			c0.001-3.212-0.713-6.289-1.943-9.034c-1.852-4.125-4.818-7.535-8.477-9.982c-3.656-2.439-8.082-3.934-12.827-3.936H147.5v-24.309
			c0.001-3.109-0.635-6.116-1.787-8.835c-1.729-4.083-4.595-7.531-8.211-9.977c-3.611-2.445-8.023-3.884-12.693-3.88H90.191
			c-3.109-0.001-6.116,0.635-8.836,1.787c-4.082,1.729-7.53,4.594-9.976,8.211c-2.446,3.611-3.884,8.023-3.88,12.693V-20.5h-76
			v-112.309c0.001-3.109-0.635-6.116-1.787-8.835c-1.729-4.083-4.595-7.531-8.211-9.977c-3.611-2.445-8.023-3.884-12.693-3.88
			h-34.617c-3.109-0.001-6.116,0.635-8.835,1.787c-4.083,1.729-7.531,4.594-9.977,8.211c-2.445,3.611-3.884,8.023-3.88,12.693
			v25.309h-27.753c-3.128,0-6.138,0.644-8.872,1.78c-4.103,1.711-7.62,4.505-10.195,8.104c-2.568,3.588-4.183,8.072-4.18,12.901
			V-23.5h-15.153c-3.083-0.001-6.065,0.613-8.78,1.73c-4.076,1.678-7.567,4.475-10.071,8.07c-2.504,3.587-4.001,8.027-3.995,12.742
			v45.913c-0.002,3.138,0.658,6.169,1.846,8.892c1.781,4.092,4.717,7.493,8.354,9.881c3.635,2.389,8.019,3.773,12.647,3.771h15.153
			v67.048c-0.001,3.212,0.713,6.289,1.942,9.034c1.852,4.125,4.818,7.535,8.478,9.982c3.656,2.439,8.082,3.933,12.827,3.936H-88.5
			v24.309c-0.001,3.109,0.635,6.115,1.787,8.835c1.729,4.083,4.594,7.531,8.211,9.976c3.611,2.446,8.023,3.885,12.693,3.881h34.617
			c3.109,0.001,6.115-0.635,8.835-1.787c4.083-1.729,7.53-4.595,9.976-8.211c2.446-3.611,3.885-8.023,3.881-12.693V68.5h76v113.309
			c-0.002,3.109,0.635,6.115,1.787,8.835c1.729,4.083,4.594,7.531,8.211,9.976c3.611,2.446,8.023,3.885,12.693,3.881h34.617
			c3.109,0.001,6.115-0.635,8.835-1.787c4.083-1.729,7.53-4.595,9.976-8.211c2.445-3.611,3.885-8.023,3.881-12.693V156.5h27.753
			c3.127,0,6.138-0.645,8.872-1.78c4.102-1.711,7.62-4.505,10.195-8.104c2.567-3.588,4.183-8.072,4.18-12.901V72.5h15.153
			c3.081,0.001,6.065-0.613,8.78-1.73c4.075-1.679,7.566-4.475,10.07-8.07c2.504-3.587,4.002-8.028,3.996-12.742V4.044
			C236.502,0.906,235.842-2.125,234.654-4.848z M-154.653,50.5c-0.836-0.001-1.605-0.162-2.314-0.453
			c-1.062-0.435-1.97-1.175-2.581-2.058c-0.611-0.892-0.945-1.87-0.951-3.033V-0.957c0.002-0.781,0.155-1.465,0.434-2.109
			c0.416-0.961,1.146-1.83,2.093-2.45c0.949-0.62,2.071-0.981,3.32-0.983h15.153v57H-154.653z M-116.253,140.5
			c-0.761,0-1.532-0.159-2.29-0.48c-1.137-0.476-2.208-1.345-2.908-2.35c-0.709-1.015-1.048-2.073-1.049-3.122V-84.714
			c0.002-0.707,0.148-1.371,0.449-2.043c0.445-0.999,1.283-1.989,2.343-2.678c1.062-0.695,2.274-1.067,3.455-1.065H-88.5v231
			H-116.253z M-25.943,184.021c-0.426,1.01-1.159,1.896-2.072,2.512c-0.918,0.614-1.968,0.963-3.176,0.967h-34.617
			c-0.81-0.001-1.537-0.159-2.213-0.443c-1.011-0.426-1.896-1.159-2.512-2.072c-0.615-0.918-0.963-1.968-0.967-3.176v-314.617
			c0.001-0.81,0.159-1.537,0.443-2.213c0.426-1.011,1.158-1.896,2.071-2.512c0.919-0.614,1.968-0.963,3.177-0.967h34.617
			c0.81,0.001,1.536,0.159,2.213,0.443c1.01,0.426,1.896,1.159,2.512,2.071c0.614,0.919,0.963,1.969,0.967,3.177v314.617
			C-25.501,182.618-25.659,183.345-25.943,184.021z M-8.5,51.5v-55h76v55H-8.5z M130.5,181.809c-0.002,0.81-0.16,1.536-0.443,2.213
			c-0.426,1.01-1.159,1.896-2.072,2.512c-0.918,0.614-1.968,0.963-3.176,0.967H90.191c-0.811-0.001-1.537-0.159-2.213-0.443
			c-1.011-0.426-1.896-1.159-2.512-2.072c-0.615-0.918-0.963-1.968-0.967-3.176v-314.617c0.001-0.81,0.159-1.537,0.443-2.213
			c0.426-1.011,1.158-1.896,2.07-2.512c0.92-0.614,1.969-0.963,3.178-0.967h34.617c0.809,0.001,1.536,0.159,2.213,0.443
			c1.01,0.426,1.896,1.159,2.512,2.071c0.614,0.919,0.963,1.969,0.967,3.177V181.809z M181.5,133.714
			c-0.002,0.707-0.15,1.371-0.449,2.042c-0.445,1-1.283,1.99-2.344,2.679c-1.061,0.694-2.273,1.067-3.454,1.065H147.5v-231h27.753
			c0.761,0,1.53,0.159,2.29,0.48c1.136,0.476,2.207,1.345,2.908,2.35c0.709,1.015,1.048,2.073,1.049,3.122V133.714z M219.5,49.957
			c-0.002,0.781-0.156,1.465-0.434,2.109c-0.416,0.96-1.146,1.83-2.094,2.45c-0.949,0.62-2.07,0.981-3.319,0.983H198.5v-57h15.153
			c0.835,0.001,1.604,0.162,2.313,0.453c1.062,0.435,1.971,1.175,2.582,2.057c0.611,0.893,0.945,1.871,0.951,3.034V49.957z"/>
	</g>
</g>
</svg>
