<?xml version="1.0" encoding="utf-8"?>
<!-- Generator: Adobe Illustrator 15.0.0, SVG Export Plug-In . SVG Version: 6.00 Build 0)  -->
<!DOCTYPE svg PUBLIC "-//W3C//DTD SVG 1.1//EN" "http://www.w3.org/Graphics/SVG/1.1/DTD/svg11.dtd">
<svg version="1.1" id="Layer_1" xmlns="http://www.w3.org/2000/svg" xmlns:xlink="http://www.w3.org/1999/xlink" x="0px" y="0px"
	 width="60px" height="50px" viewBox="0 0 60 50" enable-background="new 0 0 60 50" xml:space="preserve">
<g>
	<path fill="#FFFFFF" d="M42.471,16.922l0.735-0.147c-0.123-0.674-0.597-1.308-1.299-1.578l-0.278,0.696l0.416-0.624
		c-0.414-0.277-0.891-0.415-1.357-0.414c-0.883-0.001-1.734,0.484-2.227,1.308l-0.014,0.023l-0.014,0.026
		c-0.158,0.324-0.389,0.657-0.524,1.18l-0.022,0.09v2.121l0.01,0.062c0.026,0.154,0.097,0.707,0.097,1.418
		c0.006,1.246-0.226,2.991-1.091,4.195l0.013-0.016l-0.011,0.014c-0.396,0.552-0.922,1.003-1.625,1.353
		c-0.705,0.348-1.592,0.586-2.686,0.674l0.059,0.747V27.3c-0.561,0-4.674,0-5.235,0v0.75l0.062-0.747
		c-2.098-0.177-3.546-0.947-4.315-2.027l0.018,0.025l-0.018-0.024c-0.829-1.139-1.054-2.944-1.046-4.293
		c0-0.571,0.034-1.057,0.062-1.38l0.004-0.048l-0.099-2.182l-0.02-0.074c-0.099-0.395-0.222-0.786-0.476-1.167l-0.625,0.415
		l0.655-0.365c-0.454-0.811-1.311-1.305-2.234-1.307c-0.447-0.001-0.912,0.12-1.333,0.374c-0.606,0.354-1.062,0.935-1.19,1.619
		l-0.021,0.102l0.195,2.442l0.748-0.06l-0.743-0.1c-0.058,0.43-0.113,1.058-0.113,1.818c0.004,1.92,0.345,4.695,2.023,7.042
		l0.609-0.438l-0.619,0.423c1.312,1.932,3.193,3.172,5.653,3.854l0.202-0.724h-0.75v9.441H10.585c-0.902,0-1.743,0.361-2.358,0.961
		c-0.617,0.6-1.011,1.454-1.01,2.408c0,0.902,0.36,1.742,0.961,2.357c0.599,0.617,1.453,1.012,2.407,1.01h38.712
		c0.902,0,1.743-0.36,2.357-0.961c0.617-0.6,1.012-1.453,1.011-2.406c0.002-0.938-0.356-1.793-0.968-2.4
		c-0.608-0.611-1.465-0.971-2.4-0.969H35.928v-9.441h-0.75l0.174,0.729c2.494-0.595,4.459-1.929,5.774-3.86L41.125,28.1
		c1.693-2.476,1.955-5.417,1.96-7.364c0-0.626-0.028-1.153-0.053-1.522l-0.748,0.046l0.748,0.06l0.194-2.441l-0.021-0.103
		L42.471,16.922l-0.748-0.06l-0.189,2.39l0.003,0.053c0.022,0.359,0.05,0.849,0.05,1.43c0.004,1.807-0.277,4.463-1.695,6.515
		l-0.002,0.002c-1.115,1.622-2.703,2.719-4.886,3.247l-0.575,0.138V42.17h14.87c0.56,0.002,1.013,0.203,1.341,0.529
		c0.323,0.326,0.525,0.779,0.527,1.34c-0.001,0.541-0.215,0.996-0.557,1.332c-0.344,0.335-0.812,0.535-1.312,0.535H10.585
		c-0.542-0.002-0.997-0.215-1.333-0.557c-0.335-0.344-0.535-0.812-0.535-1.312c0.001-0.543,0.215-0.998,0.557-1.334
		c0.343-0.334,0.812-0.535,1.312-0.535h14.963V30.66L25,30.506c-2.217-0.629-3.7-1.631-4.819-3.254l-0.006-0.01l-0.004-0.006
		c-1.405-1.943-1.745-4.421-1.742-6.166c0-0.686,0.051-1.254,0.1-1.619l0.011-0.079l-0.194-2.418l-0.747,0.06l0.735,0.146
		c0.058-0.25,0.164-0.418,0.491-0.625c0.19-0.113,0.377-0.159,0.562-0.16c0.38-0.002,0.746,0.213,0.924,0.536l0.014,0.025
		l0.017,0.025c0.119,0.181,0.182,0.35,0.271,0.702l0.728-0.183l-0.749,0.034l0.094,2.058l0.749-0.034l-0.747-0.063
		c-0.029,0.345-0.067,0.875-0.067,1.506c0.009,1.486,0.186,3.545,1.325,5.165l-0.02-0.026l0.02,0.026
		c1.104,1.539,3.021,2.451,5.411,2.649l0.031,0.002h0.031c0.562,0,4.677,0,5.235,0h0.031l0.028-0.002
		c1.244-0.101,2.32-0.376,3.229-0.823c0.908-0.445,1.645-1.068,2.185-1.826l0.002-0.002c1.154-1.646,1.358-3.659,1.365-5.062
		c-0.001-0.811-0.074-1.413-0.117-1.668l-0.739,0.125h0.75v-1.964h-0.75l0.728,0.184c0.053-0.225,0.194-0.453,0.411-0.876
		l-0.67-0.336l0.645,0.385c0.241-0.398,0.602-0.577,0.939-0.578c0.18,0.001,0.354,0.05,0.524,0.162l0.065,0.043l0.072,0.029
		c0.231,0.104,0.319,0.218,0.385,0.48L42.471,16.922l-0.748-0.06L42.471,16.922z"/>
	<path fill="#FFFFFF" d="M29.94,17.296v0.75c0.982,0,1.867,0.396,2.512,1.04c0.644,0.646,1.04,1.528,1.04,2.511
		c0,0.983-0.396,1.866-1.04,2.511c-0.646,0.644-1.529,1.04-2.512,1.04c-1.961-0.003-3.547-1.59-3.551-3.551
		c0.004-1.961,1.59-3.548,3.551-3.551V17.296v-0.75c-2.79,0-5.051,2.261-5.051,5.051s2.261,5.051,5.051,5.051
		c2.789,0,5.051-2.261,5.052-5.051c-0.001-2.79-2.264-5.051-5.052-5.051V17.296z"/>
	<path fill="#FFFFFF" d="M38.589,17.576c-0.841-0.561-1.31-1.403-1.31-2.431c0-1.59,1.31-2.805,2.9-2.805
		c1.588,0,2.897,1.309,2.897,2.805c0,0.654-0.28,1.309-0.654,1.777l-0.187,2.337c1.589-0.748,2.617-2.337,2.617-4.208
		c0-2.244-1.59-4.114-3.74-4.582V3.55c0-0.467-0.375-0.935-0.936-0.935c-0.468,0-0.936,0.374-0.936,0.935v7.014
		c-2.15,0.467-3.74,2.337-3.74,4.582c0,1.964,1.309,3.647,3.085,4.395 M17.551,17.015c-0.468-0.467-0.654-1.122-0.654-1.87
		c0-1.59,1.309-2.805,2.805-2.805c1.59,0,2.898,1.309,2.898,2.805c0,0.935-0.467,1.87-1.309,2.337l0.094,2.058
		c1.776-0.654,2.992-2.338,2.992-4.301c0-2.244-1.59-4.114-3.74-4.582V3.55c0-0.467-0.374-0.935-0.936-0.935
		c-0.561,0-0.935,0.374-0.935,0.935v7.014c-2.15,0.467-3.74,2.337-3.74,4.582c0,1.87,1.122,3.46,2.712,4.208"/>
</g>
</svg>
