<?xml version="1.0" encoding="utf-8"?>
<!-- Generator: Adobe Illustrator 15.0.0, SVG Export Plug-In . SVG Version: 6.00 Build 0)  -->
<!DOCTYPE svg PUBLIC "-//W3C//DTD SVG 1.1//EN" "http://www.w3.org/Graphics/SVG/1.1/DTD/svg11.dtd">
<svg version="1.1" id="Layer_1" xmlns="http://www.w3.org/2000/svg" xmlns:xlink="http://www.w3.org/1999/xlink" x="0px" y="0px"
	 width="60px" height="60px" viewBox="0 -5 60 60" enable-background="new 0 -5 60 60" xml:space="preserve">
<g>
	<path fill="#FFFFFF" d="M15.652,2.692l0.914,0.209c0.531-2.324,2.603-3.898,4.887-3.898c0.374,0,0.752,0.043,1.132,0.13h0.002
		c2.327,0.534,3.898,2.606,3.9,4.892c0,0.373-0.042,0.751-0.13,1.13l0.001-0.001c-0.534,2.325-2.608,3.899-4.893,3.899
		c-0.373,0-0.752-0.042-1.131-0.129c-2.325-0.533-3.898-2.605-3.9-4.89c0-0.372,0.042-0.751,0.13-1.131l0.001-0.001L15.652,2.692
		l-0.913-0.21c-0.122,0.521-0.179,1.041-0.179,1.553c0,3.146,2.163,5.983,5.356,6.718c0.518,0.119,1.038,0.176,1.551,0.176
		c3.146,0,5.982-2.16,6.72-5.354l0.001-0.001c0.12-0.518,0.177-1.039,0.177-1.55c0-3.147-2.161-5.985-5.356-6.72h0.001
		c-0.52-0.12-1.041-0.178-1.555-0.178c-3.145,0-5.981,2.16-6.716,5.354l0.001-0.001L15.652,2.692z M58.867,18.413l0.9-0.257
		c-0.467-1.631-1.95-2.691-3.567-2.689c-0.337,0-0.679,0.046-1.016,0.141l-18.262,5.219l0.006-0.001
		c-0.195,0.054-0.382,0.125-0.556,0.208l-9.618,4.482l0.396,0.849l0.889-0.298c-0.635-1.877-1.149-4.129-1.148-6.426
		c0-0.973,0.091-1.954,0.301-2.923l-0.917-0.199l0.115,0.932l6.546-0.803h0.001c0.287-0.035,0.562-0.11,0.819-0.214l8.469-3.472
		c1.239-0.51,1.991-1.705,1.991-2.965c0-0.406-0.078-0.818-0.24-1.214L43.977,8.78c-0.509-1.238-1.704-1.99-2.965-1.988
		c-0.404,0-0.818,0.077-1.212,0.238l-0.019,0.006l-8.052,3.303l-8.012,0.983l0.115,0.932l0.474-0.809l-0.042-0.025l-0.125-0.073
		L13.595,8.92l-0.43,0.566l0.748,0.568l0.193-0.918c-0.222-0.046-0.45-0.071-0.68-0.071c-0.495,0-1.005,0.114-1.478,0.365
		l-2.586,1.375L11.038,5.2l0,0c0.09-0.304,0.134-0.615,0.134-0.918c0-1.38-0.896-2.652-2.287-3.069H8.884
		c-0.302-0.09-0.612-0.133-0.917-0.133c-1.381,0-2.651,0.896-3.068,2.286l-0.028,0.1L1.028,16.307
		c-0.09,0.301-0.134,0.611-0.134,0.917c0,0.943,0.417,1.858,1.172,2.477h0.001c0.588,0.48,1.311,0.728,2.037,0.728l0.231-0.009
		h0.005h0.006c0.428-0.036,0.858-0.156,1.257-0.37l-0.009,0.005L11.354,17l4.837,16.912l-3.159,13.724l0.042-0.182
		c-0.064,0.276-0.095,0.556-0.095,0.833c0,1.224,0.608,2.393,1.662,3.088l-0.008-0.005l0.005,0.004
		c0.621,0.412,1.337,0.62,2.051,0.619l0.271-0.011h0.004h0.002c0.663-0.052,1.324-0.281,1.895-0.694l15.395-11.166l0.041-0.03
		c0.997-0.725,1.533-1.861,1.53-3.005c0.002-0.754-0.229-1.519-0.703-2.173h-0.001c-0.723-0.998-1.858-1.532-3.002-1.531
		c-0.755,0-1.52,0.232-2.175,0.705l-7.428,5.387l0.984-4.272l0.991-0.459l0.003-0.001l0.033-0.014l0.934-0.435l5.285-2.438
		l-0.01-0.02l8.504-3.959l17.996-5.144l-0.018,0.004c1.631-0.465,2.693-1.949,2.693-3.563c0-0.339-0.048-0.681-0.144-1.018h-0.001
		L58.867,18.413l-0.903,0.258c0.049,0.169,0.071,0.339,0.071,0.504c-0.001,0.794-0.525,1.533-1.327,1.759l-18.124,5.18
		l-10.441,4.859l0.008,0.016l-3.478,1.605l-0.872,0.404l0,0l-0.033,0.013l-1.889,0.874l-2.314,10.048l11.481-8.325h-0.001
		c0.328-0.235,0.701-0.347,1.074-0.349c0.569,0.003,1.123,0.261,1.485,0.757l0.018,0.025l-0.019-0.025
		c0.235,0.324,0.346,0.696,0.346,1.07c0,0.569-0.26,1.126-0.757,1.49l0.037-0.029L17.761,49.769h0.001
		c-0.28,0.201-0.605,0.316-0.944,0.343h0.002l0.004-0.001l-0.134,0.006c-0.352,0-0.703-0.101-1.016-0.308l0.007,0.006l-0.01-0.007
		c-0.517-0.34-0.816-0.919-0.816-1.521c0-0.137,0.014-0.273,0.045-0.411l-0.041,0.182l3.266-14.194l-5.606-19.606l-7.81,4.143
		l0.005-0.002c-0.162,0.086-0.34,0.138-0.526,0.154l0.078,0.936L4.2,18.551l-0.097,0.003c-0.304,0-0.604-0.103-0.851-0.303
		l0.043,0.035l-0.042-0.035c-0.312-0.255-0.485-0.635-0.485-1.026c0-0.126,0.018-0.253,0.056-0.38L6.696,3.896l0,0
		c0.17-0.574,0.7-0.945,1.271-0.945c0.126,0,0.253,0.017,0.383,0.056l0.01,0.003L8.348,3.006c0.575,0.171,0.947,0.703,0.948,1.273
		c0,0.126-0.019,0.254-0.057,0.381L9.172,4.884l-2.894,9.681l6.625-3.519l-0.076,0.04c0.188-0.1,0.389-0.146,0.598-0.146
		l0.293,0.031l0.582,0.123l0.055-0.074l9.223,2.124l0.21-0.914l-0.474,0.809l0.042,0.024l0.273,0.16l8.577-1.053l8.318-3.413
		l-0.02,0.008c0.167-0.067,0.337-0.099,0.503-0.1c0.522,0.001,1.021,0.31,1.229,0.827l-0.012-0.029l0.012,0.027
		c0.069,0.167,0.101,0.335,0.101,0.501c-0.003,0.522-0.31,1.018-0.827,1.229l-8.46,3.468h0.002c-0.119,0.047-0.235,0.078-0.35,0.093
		h0.005l-7.212,0.884l-0.141,0.651c-0.241,1.115-0.343,2.229-0.343,3.32c0.001,2.576,0.567,5.01,1.246,7.026l0.336,0.992
		l10.57-4.926l0,0l0.262-0.098l0.005-0.001l18.267-5.22h-0.001c0.168-0.049,0.336-0.071,0.503-0.071
		c0.797,0.001,1.535,0.524,1.764,1.328l0.051,0.181l-0.054-0.182L58.867,18.413z"/>
</g>
</svg>
