<?xml version="1.0" encoding="utf-8"?>
<!-- Generator: Adobe Illustrator 15.0.0, SVG Export Plug-In . SVG Version: 6.00 Build 0)  -->
<!DOCTYPE svg PUBLIC "-//W3C//DTD SVG 1.1//EN" "http://www.w3.org/Graphics/SVG/1.1/DTD/svg11.dtd">
<svg version="1.1" id="Layer_1" xmlns="http://www.w3.org/2000/svg" xmlns:xlink="http://www.w3.org/1999/xlink" x="0px" y="0px"
	 width="60px" height="60px" viewBox="0 -5 60 60" enable-background="new 0 -5 60 60" xml:space="preserve">
<g>
	<g>
		<path fill="#FFFFFF" d="M15.023,31.981c-2.512-1.072-4.937-2.687-7.072-4.821c-3.636-3.638-5.764-8.111-6.262-12.404
			C1.184,10.389,2.354,6.204,5.323,3.233c2.972-2.97,7.156-4.142,11.521-3.635c4.295,0.498,8.767,2.625,12.405,6.263
			c2.138,2.137,3.752,4.565,4.825,7.076c0.978,2.291,1.716,5.765,1.716,8.26c0,1.769-0.501,2.406-0.057,4.835
			c0.251,1.382,0.737,2.698,1.651,3.376c0.403,0.297,0.487,0.866,0.188,1.269c-0.297,0.4-0.866,0.484-1.27,0.188
			c-1.228-0.914-1.903-2.425-2.258-4.024c-0.569,1.076-1.291,2.066-2.171,2.943c-0.877,0.879-1.867,1.601-2.943,2.172
			c1.599,0.354,3.11,1.029,4.023,2.259c0.298,0.4,0.214,0.97-0.187,1.267c-0.404,0.299-0.972,0.215-1.27-0.185
			c-0.678-0.916-1.995-1.401-3.376-1.655C22.685,32.648,22.807,35.302,15.023,31.981L15.023,31.981z M32.404,13.648
			c-0.979-2.299-2.467-4.529-4.442-6.502c-3.339-3.339-7.421-5.289-11.322-5.743c-3.828-0.443-7.473,0.56-10.029,3.116
			c-2.558,2.556-3.56,6.202-3.116,10.029c0.452,3.901,2.403,7.983,5.742,11.325c1.973,1.972,4.2,3.457,6.495,4.438
			c3.181,1.356,8.566,1.836,11.877,0.28c1.091-0.512,2.098-1.207,2.98-2.091c0.884-0.886,1.579-1.892,2.092-2.98
			C34.218,22.252,33.785,16.893,32.404,13.648L32.404,13.648z"/>
		<polygon fill="#FFFFFF" points="37.49,30.778 32.869,35.397 31.585,34.111 36.203,29.494 		"/>
		<path fill="#FFFFFF" d="M31.754,33.822l4.157-4.159c0.244-0.243,0.564-0.364,0.885-0.364c0.318,0,0.637,0.121,0.881,0.364
			l11.875,11.876c0.436,0.433,0.652,1.007,0.652,1.579c0,0.573-0.217,1.146-0.652,1.582l-2.761,2.76l0,0
			c-0.436,0.437-1.009,0.653-1.582,0.653c-0.572,0-1.146-0.217-1.583-0.653l0,0L31.754,35.587c-0.243-0.242-0.364-0.563-0.364-0.883
			S31.511,34.065,31.754,33.822L31.754,33.822z M36.796,31.353l-3.35,3.352l11.469,11.471l0,0c0.079,0.079,0.187,0.121,0.294,0.121
			c0.106,0,0.215-0.041,0.295-0.121l0,0l2.761-2.762c0.08-0.08,0.122-0.188,0.122-0.295c0-0.107-0.041-0.216-0.122-0.296
			L36.796,31.353L36.796,31.353z"/>
		<polygon fill="#FFFFFF" points="37.693,40.238 42.329,35.6 43.614,36.889 38.978,41.523 		"/>
		<path fill="#FFFFFF" d="M59.795,22.005c0,2.224-0.9,4.235-2.357,5.693c-1.457,1.455-3.47,2.358-5.691,2.358
			c-2.224,0-4.236-0.9-5.692-2.358c-1.455-1.458-2.357-3.469-2.357-5.693c0-2.223,0.9-4.234,2.357-5.691
			c1.456-1.456,3.469-2.357,5.692-2.357c2.222,0,4.234,0.901,5.691,2.357C58.893,17.771,59.795,19.783,59.795,22.005z M56.15,26.411
			c1.128-1.129,1.824-2.686,1.824-4.406c0-1.72-0.696-3.277-1.824-4.404c-1.128-1.127-2.685-1.825-4.404-1.825
			c-1.721,0-3.279,0.698-4.406,1.825c-1.126,1.126-1.824,2.684-1.824,4.404c0,1.72,0.698,3.279,1.824,4.406
			c1.127,1.128,2.686,1.823,4.406,1.823C53.466,28.234,55.022,27.539,56.15,26.411z"/>
	</g>
</g>
</svg>
