<?xml version="1.0" encoding="utf-8"?><!DOCTYPE svg PUBLIC "-//W3C//DTD SVG 1.1//EN" "http://www.w3.org/Graphics/SVG/1.1/DTD/svg11.dtd"><svg xmlns="http://www.w3.org/2000/svg" xmlns:xlink="http://www.w3.org/1999/xlink"><symbol viewBox="0 0 60 50" id="src--sprites--Climbing" xmlns="http://www.w3.org/2000/svg"><g fill="#FF7400"><path d="M46.719 24.129l-.042-.975-12.771.544h-.003a3.211 3.211 0 0 0-2.772 1.858l.002-.003-.19.408-3.716 8.019.886.41.061-.975c-1.915-.117-3.578-.698-4.663-1.512l-.003-.002-.005-.001a5.466 5.466 0 0 1-1.505-1.694l.003.005-.003-.006a5.929 5.929 0 0 1-.484-1.061v.001a5.832 5.832 0 0 1-.157-.542l-.048-.234-.963.157.967-.131-.013-.097-.001-.015-.973.08h.976v-.006c-.005-.388-.104-.637-.131-.766l-.945.243.487.847 7.876-4.533.09-.051.001-.001h.001a2.846 2.846 0 0 0 1.29-1.603l3.276-10.231a2.866 2.866 0 0 0-5.456-1.747l-3.021 9.433.93.298-.373-.902c-.005.001-2.663 1.1-5.536 2.38-1.437.64-2.926 1.326-4.173 1.948a34.48 34.48 0 0 0-1.658.876c-.475.275-.848.508-1.151.77-.439.381-.773.735-1.044 1.146-.271.41-.46.828-.709 1.38A10421.666 10421.666 0 0 1 6.44 38.11v-.001a2.9 2.9 0 0 0 1.269 3.74l8.554 4.606h.001a2.89 2.89 0 0 0 1.371.347 2.903 2.903 0 0 0 2.552-1.522l.003-.005-.002.004a2.9 2.9 0 0 0-1.177-3.925l-6.181-3.327 1.604-3.563-.891-.4-.858.466c.203.374.421.749.663 1.118l-.002-.003.001.002a15.586 15.586 0 0 0 4.519 4.524l-.002-.002-.001-.001c1.783 1.17 3.721 1.915 5.608 2.346h.002c1.923.434 3.981.479 4.997.518l.136.003c.925-.007 1.968-.304 2.953-.889.975-.584 1.896-1.49 2.33-2.76l.004-.009-.004.009c.093-.271.322-.995.625-1.959.906-2.883 2.436-7.812 2.436-7.812l-.932-.289.123.968 11.025-1.412h.004a2.88 2.88 0 0 0 2.506-2.851l-.002-.122v-.001a2.877 2.877 0 0 0-2.873-2.752l-.123.003.041.97.042.976.039-.001a.925.925 0 0 1 .922.884v-.001l.001.04a.932.932 0 0 1-.808.915h.002L35.27 28.434l-.187.599a2898.986 2898.986 0 0 1-2.432 7.806c-.301.955-.536 1.695-.61 1.916l-.004.01.004-.01c-.242.716-.801 1.303-1.487 1.715-.676.412-1.475.615-1.948.609l-.066-.002c-1.019-.034-2.97-.092-4.637-.471l.002.001c-1.694-.386-3.416-1.053-4.971-2.073l-.001-.001-.003-.003a13.625 13.625 0 0 1-3.947-3.952l-.002-.002.001.002a14.439 14.439 0 0 1-.582-.983l-.94-1.731-3.157 7.019 7.781 4.189a.942.942 0 0 1 .384 1.278l-.003.006.003-.006a.95.95 0 0 1-.833.498.933.933 0 0 1-.447-.115l-8.553-4.605a.946.946 0 0 1-.415-1.217v-.001l4.615-10.266c.245-.548.401-.87.557-1.104.155-.231.325-.425.698-.751.105-.095.422-.311.841-.548 1.486-.854 4.3-2.145 6.707-3.2a264.365 264.365 0 0 1 4.434-1.893l.418-.173 3.159-9.865v-.001a.912.912 0 1 1 1.737.557l-3.28 10.246.004-.013a.891.891 0 0 1-.407.507l.002-.001-.09.051-8.522 4.903.186.72c.027.105.049.182.06.229l.009.048v.046l.007.081.002.026.021.148.001.012.002.014c.02.119.044.239.071.359l-.001-.006.002.007c.057.244.129.491.212.735l-.003-.011.003.011c.168.49.385.964.644 1.408l-.003-.006.003.006a7.457 7.457 0 0 0 2.04 2.288l-.003-.003-.003-.002c1.48 1.098 3.479 1.752 5.707 1.895l.666.042 3.995-8.62.19-.409.001-.001.001-.002c.2-.438.631-.705 1.087-.726l12.771-.544-.042-.975z"/><path d="M20.323 28.357l-.961.17.008.049 1.922-.342-.008-.048-1.922.341.961-.17-.961.17.008.049 1.922-.342-.008-.048-1.922.341zM52.602 45.656c-.573 0-.976-.467-.976-1.04V20.917l-13.207-4.586c-.281-.1-.6-.316-.711-.593l-3.243-7.947-19.744-2.883a1.05 1.05 0 0 1-.89-1.18 1.04 1.04 0 0 1 1.022-.889l.149.011 20.311 2.972c.363.053.675.298.812.64l3.246 8.064L52.764 19.2c.416.146.814.54.814.98v24.436c0 .573-.403 1.04-.976 1.04zM11.94 23.173l-.056.975c.106.006.212.009.317.009 3.11-.01 5.683-2.551 5.772-5.724l-.001.034.001-.034.002-.159a5.969 5.969 0 0 0-1.668-4.142 5.731 5.731 0 0 0-4.068-1.771h.001-.065c-1.6.001-3.062.685-4.117 1.753a5.909 5.909 0 0 0-1.729 4.15v.03-.004c.021 3.099 2.465 5.673 5.554 5.857l.057-.974.055-.975c-2.039-.108-3.711-1.869-3.712-3.916V18.264c-.001-1.058.445-2.049 1.165-2.777.721-.729 1.695-1.174 2.729-1.173H12.22a3.772 3.772 0 0 1 2.682 1.173 4.011 4.011 0 0 1 1.122 2.786l-.001.107v-.031.031c-.05 2.123-1.814 3.832-3.821 3.823l-.207-.006h-.012.012l-.055.976z"/></g></symbol><symbol viewBox="0 0 60 50" id="src--sprites--Crossfit" xmlns="http://www.w3.org/2000/svg"><g fill="#230260"><path d="M30.313 7.06v.534c6.295-.001 12.001 1.098 16.136 2.856 2.068.878 3.738 1.92 4.892 3.047 1.156 1.129 1.785 2.319 1.863 3.531a.534.534 0 0 0 .532.499h.012v-.534h-.534v14.93c0 1.178-.513 2.325-1.52 3.431-1.116 1.222-2.841 2.362-5.024 3.315-2.118.925-4.667 1.677-7.51 2.188h-.002c-.838.152-1.702.281-2.589.39a51.922 51.922 0 0 1-8.477.326h-.001a49.218 49.218 0 0 1-2.451-.159c-2.496-.222-4.846-.62-6.972-1.161l-.001-.001a33.814 33.814 0 0 1-2.184-.629c-2.136-.694-3.976-1.546-5.423-2.5a12.025 12.025 0 0 1-1.586-1.229c-1.363-1.261-2.061-2.603-2.061-3.971v-14.93h-.535v.534h.011a.533.533 0 0 0 .533-.499c.079-1.211.707-2.402 1.863-3.531 1.729-1.692 4.626-3.187 8.271-4.235 3.646-1.052 8.035-1.668 12.758-1.668V6.526c-6.421 0-12.247 1.112-16.555 2.942-2.155.917-3.933 2.012-5.219 3.266-1.283 1.25-2.083 2.68-2.183 4.226l.533.034v-.534h-.012a.536.536 0 0 0-.534.533v14.93c0 1.752.902 3.371 2.404 4.756.506.468 1.083.913 1.725 1.337v-.003c1.55 1.021 3.472 1.906 5.681 2.625.721.234 1.473.451 2.253.649l-.001-.001c2.187.557 4.591.963 7.141 1.191a54.57 54.57 0 0 0 4.769.209c2.211 0 4.353-.132 6.387-.381.904-.11 1.789-.241 2.649-.4v.002c2.911-.524 5.536-1.295 7.747-2.261 2.279-.997 4.123-2.194 5.385-3.573 1.135-1.239 1.802-2.648 1.8-4.15v-14.93a.532.532 0 0 0-.533-.533h-.012v.533l.533-.034c-.101-1.546-.899-2.976-2.183-4.226-1.931-1.878-4.965-3.411-8.721-4.498-3.758-1.083-8.238-1.71-13.053-1.71v.535z"/><path d="M50.47 20.287c-2.125 1.664-4.708 2.704-7.346 3.462-2.937.844-5.971 1.333-9.027 1.55-1.272.09-2.548.136-3.823.136-1.856 0-3.711-.097-5.554-.298-2.985-.325-5.958-.895-8.776-1.876-2.305-.801-4.649-1.868-6.418-3.464a9.258 9.258 0 0 1-.582-.573.534.534 0 1 0-.785.724c.208.225.426.439.652.643 1.943 1.748 4.414 2.854 6.78 3.68 2.917 1.015 5.97 1.598 9.012 1.929 1.882.204 3.776.304 5.669.304 1.302 0 2.602-.046 3.899-.138 3.12-.222 6.229-.721 9.246-1.589 2.707-.778 5.422-1.859 7.71-3.647a.537.537 0 0 0 .092-.75.532.532 0 0 0-.749-.093zM17.95 17.405c-.359-.358-.493-.67-.493-.948 0-.184.055-.369.191-.583.235-.373.744-.798 1.49-1.188 2.243-1.183 6.516-2.027 11.377-2.022 3.706-.001 7.062.481 9.449 1.242 1.191.379 2.142.83 2.754 1.293.307.231.528.462.664.674.136.214.189.399.191.583-.001.264-.117.552-.434.887-.313.331-.816.678-1.476.998a.533.533 0 1 0 .468.961c.736-.359 1.338-.759 1.781-1.223.439-.459.729-1.014.729-1.623 0-.414-.136-.812-.361-1.16-.398-.613-1.051-1.113-1.894-1.556-2.524-1.314-6.881-2.139-11.872-2.145-3.8.002-7.24.488-9.773 1.293-1.268.404-2.309.885-3.072 1.458-.381.287-.694.598-.92.95a2.137 2.137 0 0 0-.361 1.16c0 .647.324 1.229.811 1.707a.534.534 0 0 0 .751-.758z"/><path d="M30.728 10.017c4.736-.001 9.024.709 12.083 1.833 1.527.56 2.747 1.227 3.552 1.927.811.707 1.181 1.406 1.179 2.078.002.672-.368 1.371-1.179 2.078-1.206 1.054-3.346 2.017-6.063 2.688-2.72.675-6.019 1.073-9.571 1.073-4.737.001-9.025-.709-12.083-1.834-1.529-.56-2.747-1.227-3.552-1.928-.81-.707-1.18-1.406-1.18-2.077 0-.564.255-1.136.814-1.729.556-.589 1.41-1.169 2.506-1.688a.534.534 0 0 0-.458-.965c-1.176.56-2.135 1.194-2.823 1.918-.685.721-1.106 1.559-1.105 2.463 0 1.088.601 2.065 1.547 2.884 1.427 1.233 3.687 2.216 6.507 2.918 2.819.699 6.195 1.104 9.828 1.104 4.845 0 9.23-.717 12.451-1.899 1.611-.593 2.933-1.299 3.885-2.123.943-.819 1.546-1.796 1.546-2.884s-.603-2.065-1.546-2.883c-1.428-1.234-3.688-2.216-6.508-2.919-2.818-.699-6.194-1.103-9.828-1.104a.534.534 0 0 0-.002 1.069zM37.394 34.968l-.722.606M29.182 25.632a.533.533 0 1 0-.952.482l2.768 5.491.108.146 5.178 4.928a.535.535 0 0 0 .713.021l1.533-1.293a.53.53 0 0 0 .188-.389.526.526 0 0 0-.158-.4l-4.612-4.539-2.179-4.209a.533.533 0 1 0-.948.491M32.255 35.264l-.343-.409-.345.408.345-.408-.344-.408-4.91 4.123-.139.18-1.409 2.968a.533.533 0 0 0 .436.761c.82.073 1.655.128 2.503.162a.536.536 0 0 0 .509-.315l.922-2.054 4.314-3.717a.534.534 0 0 0-.004-.812l-1.533-1.293a.533.533 0 0 0-.688-.002l.344.408-.345.408 1.055.892"/><path d="M27.583 41.888l.487.22.022-.535a49.222 49.222 0 0 1-2.453-.159l-.047.533.482.228M23.267 30.094l4.254 4.187-.719.609"/><path d="M19.115 24.372a.535.535 0 0 0-.96.469l2.968 6.072.111.152 5.179 4.927a.534.534 0 0 0 .712.021l1.533-1.295a.533.533 0 0 0 .029-.788l-4.611-4.538-2.178-4.21a.534.534 0 1 0-.948.491M22.376 34.584l-.335-.414-.344.408.344-.408-.336-.416-4.775 3.854-.152.197-.947 2.104a.534.534 0 0 0 .322.728c.72.234 1.472.451 2.252.649a.534.534 0 0 0 .621-.307l.716-1.661 4.173-3.444a.537.537 0 0 0 .004-.821l-1.534-1.293a.534.534 0 0 0-.68-.007l.336.416-.344.408 1.044.881"/><path d="M18.813 38.779l-.767 1.778.49.211.131-.518a33.814 33.814 0 0 1-2.184-.629l-.165.508.487.219M51.403 27.287l1.811 1.508v1.278"/><path d="M47.208 22.971a.535.535 0 0 0-.9.575l3.034 4.75.115.128 3.956 3.181c.16.13.38.155.564.065a.53.53 0 0 0 .304-.481v-2.645a.528.528 0 0 0-.191-.408l-1.939-1.615-2.868-4.535a.533.533 0 1 0-.901.57h-.002M47.267 33.399l-.667.666M38.16 25.076a.534.534 0 0 0-.883.6l3.349 4.927.106.116 5.57 4.479c.212.17.519.154.712-.037l1.421-1.418a.538.538 0 0 0-.036-.789l-4.975-4.139-2.52-4.013a.535.535 0 0 0-.904.567M42.443 35.178l-.357-.396-.309.436.309-.436-.356-.396-4.751 4.271a.539.539 0 0 0-.16.263l-.7 2.725a.537.537 0 0 0 .582.663 44.4 44.4 0 0 0 2.649-.401.534.534 0 0 0 .435-.457l.17-1.344 4.128-3.768a.53.53 0 0 0-.051-.829l-1.635-1.161a.533.533 0 0 0-.667.038l.356.396-.309.436"/><path d="M38.919 39.776l-.193 1.538.528.066-.096-.524c-.838.152-1.702.281-2.589.39l.065.529.517.133M50.775 34.781l-.31.436.31-.436-.399-.354-3.893 4.378a.533.533 0 1 0 .614.842c2.279-.997 4.123-2.194 5.385-3.573a.531.531 0 0 0-.085-.796l-1.312-.931a.534.534 0 0 0-.708.08l.398.354"/><path d="M51.778 36.148l.31-.436-.394-.359c-1.116 1.222-2.841 2.362-5.024 3.315l.214.489.398.354M13.468 26.697l.085.127M9.918 20.532a.533.533 0 1 0-1.001.371l2.438 6.588.11.177 4.863 5.237a.535.535 0 0 0 .71.065l1.611-1.197a.53.53 0 0 0 .078-.785l-4.33-4.82-1.963-4.1a.534.534 0 0 0-.712-.251M10.391 37.188a.534.534 0 1 0 .749.761l3.206-3.154a.532.532 0 0 0-.03-.789l-1.534-1.294a.535.535 0 0 0-.712.021L8.742 35.9a.533.533 0 1 0 .736.773M7.269 29.197a.534.534 0 0 0-.782.726l1.331 1.434a.533.533 0 0 0 .709.065l1.61-1.198a.53.53 0 0 0 .079-.784l-2.94-3.275a.533.533 0 1 0-.794.713"/></g></symbol><symbol viewBox="0 0 60 50" id="src--sprites--Cycling" xmlns="http://www.w3.org/2000/svg"><path fill="#FF0062" d="M45.855 20.877c-.893 0-1.787.112-2.625.335L38.762 9.538a1.105 1.105 0 0 0-1.005-.67h-3.52a1.06 1.06 0 0 0-1.062 1.061c0 .614.448 1.062 1.062 1.062h2.793l1.954 5.082H23.566L23.12 14.9c1.062-.167 2.011-.335 2.179-.392.447-.056.895-.391.895-.894v-.502a.381.381 0 0 0-.392-.391h-6.87a.644.644 0 0 0-.67.669s-.112 2.346.893 2.178a55.472 55.472 0 0 0 1.844-.334l.67 1.732-3.576 5.139a10.332 10.332 0 0 0-4.915-1.229c-5.642 0-10.223 4.582-10.223 10.223 0 5.642 4.581 10.223 10.223 10.223 5.25 0 9.608-4.022 10.167-9.161h4.971c.334 0 .615-.112.783-.391l10.947-12.792 1.173 3.016c-3.295 1.675-5.586 5.138-5.586 9.105 0 5.642 4.581 10.223 10.223 10.223S56.078 36.741 56.078 31.1c0-5.642-4.581-10.223-10.223-10.223zM13.232 39.2c-4.469 0-8.099-3.632-8.099-8.101s3.63-8.1 8.099-8.1c1.341 0 2.57.336 3.687.895l-4.58 6.591c-.224.334-.224.727-.056 1.117.167.336.558.559.949.559h8.044c-.558 3.966-3.966 7.039-8.044 7.039zm2.013-9.162l3.406-4.971a8.335 8.335 0 0 1 2.626 4.971h-6.032zm8.155 0a10.173 10.173 0 0 0-3.52-6.703l2.737-3.966 4.19 10.669H23.4zm5.306-1.005L24.405 18.14H37.98l-9.274 10.893zM45.855 39.2c-4.469 0-8.099-3.632-8.099-8.101A8.044 8.044 0 0 1 42 24.006l2.849 7.484c.169.448.56.671 1.006.671.112 0 .279 0 .391-.056.561-.223.839-.838.615-1.341l-2.85-7.485c.614-.168 1.229-.224 1.899-.224 4.469 0 8.101 3.632 8.101 8.1.001 4.469-3.687 8.045-8.156 8.045z"/></symbol><symbol viewBox="0 0 60 50" id="src--sprites--Dance" xmlns="http://www.w3.org/2000/svg"><g fill="#7A12FE"><path d="M24.532 15.249a5.3 5.3 0 0 0-2.078.407 5.352 5.352 0 0 0-2.854 2.821 5.316 5.316 0 0 0-.023 4.15c.267.64.653 1.217 1.133 1.701a5.314 5.314 0 0 0 3.76 1.583 5.322 5.322 0 0 0 4.931-3.228 5.292 5.292 0 0 0 .431-2.072V20.582c0-.732-.148-1.431-.417-2.066a5.354 5.354 0 0 0-1.135-1.689 5.343 5.343 0 0 0-1.682-1.146 5.282 5.282 0 0 0-2.066-.432zm0 9.451a4.092 4.092 0 0 1-1.607-.312 4.175 4.175 0 0 1-1.318-.873 4.137 4.137 0 0 1-1.227-2.906 4.118 4.118 0 0 1 .312-1.607 4.15 4.15 0 0 1 2.179-2.209 4.098 4.098 0 0 1 1.601-.335 4.116 4.116 0 0 1 2.923 1.186 4.102 4.102 0 0 1 1.23 2.905V20.578a4.126 4.126 0 0 1-4.093 4.122zM35.145 2.569V2.533l-.012-.028-.013-.027-.016-.026-.014-.028-.05-.068-.059-.061-.062-.054-.071-.046-.025-.009-.026-.009-.024-.008-.026-.009H34.399l-1.471.402-1.473.402-1.471.401-1.472.402-.184.085-.143.138-.091.178-.027.202v4.121l-.233-.104-.245-.075-.25-.046-.257-.016a2.21 2.21 0 0 0-.854.172A2.208 2.208 0 0 0 25.06 9.59a2.203 2.203 0 0 0 .47 2.405 2.197 2.197 0 0 0 3.103 0 2.195 2.195 0 0 0 .641-1.551v-5.65l1.17-.319 1.17-.319 1.171-.319 1.168-.319V6.849l-.233-.104-.245-.076-.251-.046-.257-.017a2.155 2.155 0 0 0-1.548.643c-.2.199-.361.435-.473.697a2.222 2.222 0 0 0 0 1.708c.111.263.272.499.473.698.196.198.433.358.694.47a2.196 2.196 0 0 0 2.878-1.168c.11-.262.171-.551.171-.854V2.757l.001-.019.001-.02-.001-.02-.001-.019-.002-.027-.005-.028-.005-.028-.005-.027zm-8.058 8.812a.982.982 0 0 1-.696-1.68.982.982 0 0 1 1.079-.211c.119.05.226.122.313.211a.962.962 0 0 1 .288.696.992.992 0 0 1-.288.696.967.967 0 0 1-.696.288zm5.887-1.608a.982.982 0 0 1-.907-1.369.987.987 0 0 1 1.604-.313.987.987 0 0 1-.691 1.686h-.006v.001-.005zm16.445 13.598v-.019l.001-.02-.001-.02V23.256l-.02-.023-.021-.023-.021-.022-.024-.021-.028-.056-.037-.05-.045-.044-.051-.037-.023-.015-.022-.015-.023-.015-.021-.016-.027-.009-.027-.01-.027-.009-.027-.009h-.309l-1.885.512-1.883.512-1.885.512-1.884.512-.186.085-.143.139-.091.178-.028.203v5.561a2.623 2.623 0 0 0-1.985-.36 2.663 2.663 0 0 0-.928.398 2.64 2.64 0 0 0 1.034 4.775c.338.059.682.051 1.01-.021.328-.072.645-.206.929-.399a2.601 2.601 0 0 0 .91-1.082 2.33 2.33 0 0 0 .132-.352 2.624 2.624 0 0 0 .107-.746V25.97l1.581-.43 1.583-.432 1.582-.431 1.582-.43v4.767a2.645 2.645 0 0 0-1.985-.36 2.615 2.615 0 0 0-1.658 1.149 2.623 2.623 0 0 0-.361 1.985 2.618 2.618 0 0 0 1.149 1.657 2.64 2.64 0 0 0 1.984.36 2.626 2.626 0 0 0 1.972-1.834c.034-.12.062-.243.08-.368.017-.124.026-.251.026-.377v-7.77l-.002-.02-.004-.02-.003-.02-.003-.02v-.005zM39.26 34.709a1.44 1.44 0 0 1-.554-.121 1.442 1.442 0 0 1-.849-1.328 1.412 1.412 0 0 1 .435-1.002c.131-.127.286-.229.457-.299.172-.069.36-.105.558-.103a1.414 1.414 0 0 1 1.291.877c.072.169.11.354.11.55 0 .196-.04.385-.115.556a1.406 1.406 0 0 1-.309.455 1.407 1.407 0 0 1-.456.304c-.171.072-.36.112-.557.111H39.26zm7.534-2.054a1.431 1.431 0 0 1-1.318-.876 1.402 1.402 0 0 1-.114-.558 1.425 1.425 0 0 1 .876-1.321 1.426 1.426 0 0 1 1.114 0 1.464 1.464 0 0 1 .764.763 1.437 1.437 0 0 1 0 1.116 1.431 1.431 0 0 1-.308.454 1.424 1.424 0 0 1-1.014.422zM35.76 46.131a23.44 23.44 0 0 1-14.245-1.553 4.754 4.754 0 0 1 .044-2.462c.078-.266.179-.526.303-.777.33-.635.525-1.282.592-1.938a5.162 5.162 0 0 0-.19-1.974 6.902 6.902 0 0 0-.959-1.963 10.804 10.804 0 0 0-1.716-1.904 24.25 24.25 0 0 1-3.037-3.262 22.233 22.233 0 0 1-2.504-4.052c-.683-1.451-1.184-2.984-1.408-4.552-.224-1.567-.171-3.168.255-4.754.173-.656.392-1.301.645-1.939.254-.637.539-1.266.846-1.887a42.56 42.56 0 0 1 .972-1.841c.337-.607.687-1.208 1.03-1.803l.119-.203.119-.202.12-.203.119-.203c.126-.22.258-.444.4-.658.141-.214.292-.42.455-.605.162-.185.335-.349.523-.479.188-.131.39-.229.61-.282a1.49 1.49 0 0 1 .642.035c.104.028.204.069.298.12.095.052.186.113.27.185l.23.218.175.259c.048.092.087.191.117.292.028.102.045.206.052.313a3.73 3.73 0 0 1-.319 1.156c-.057.122-.12.24-.189.354l-.209.424-.207.424-.205.423-.206.423c-.151.302-.302.61-.453.921l-.461.94c-.156.316-.312.631-.473.945-.16.313-.323.626-.49.935-.261.499-.509.986-.731 1.471a13.46 13.46 0 0 0-.579 1.452 8.453 8.453 0 0 0-.346 1.48 6.928 6.928 0 0 0-.037 1.555c.049.417.128.827.238 1.227a8.018 8.018 0 0 0 1.016 2.26c.225.348.479.679.759.991a13.084 13.084 0 0 0 1.76 1.714 11.297 11.297 0 0 0 2.146 1.377c.765.371 1.574.64 2.404.761.83.119 1.68.09 2.53-.136a6.003 6.003 0 0 0 2.032-.968 7.984 7.984 0 0 0 1.562-1.533c.457-.58.859-1.216 1.226-1.868.368-.652.702-1.321 1.025-1.97l.192-.383c.064-.127.127-.253.192-.379.062-.125.127-.249.189-.371.063-.122.129-.242.192-.36l.115-.207.112-.206.113-.208.113-.208.729-1.338.73-1.338c.244-.446.487-.893.732-1.338.242-.447.488-.893.733-1.339a1.503 1.503 0 0 1 2.725.898 1.485 1.485 0 0 1-.085.48l-1.287 2.545-1.289 2.546-1.289 2.546-1.289 2.545a8.91 8.91 0 0 0-.572 1.054 11.387 11.387 0 0 0-.771 2.207 9.443 9.443 0 0 0-.234 2.977 8.263 8.263 0 0 0 1.039 3.365l.168.303.168.302.168.304.168.302c.474.814.881 1.513 1.205 2.166s.568 1.258.715 1.886a6.53 6.53 0 0 1 .147 2.015c-.052.737-.214 1.565-.499 2.55zm-15.358-.695c.7.381.294.154 1.032.467a24.479 24.479 0 0 0 7.083 1.81 25.025 25.025 0 0 0 5.047 0c.827-.083 2.45-.373 3.253-.538l.267-1.341c.249-.996.374-1.853.392-2.628.019-.774-.07-1.468-.245-2.137s-.439-1.312-.771-1.99-.734-1.392-1.188-2.194l-.168-.294-.169-.296-.168-.293-.167-.296a7.006 7.006 0 0 1-.885-3.021 8.523 8.523 0 0 1 .275-2.672c.205-.787.481-1.45.709-1.918.229-.469.406-.745.414-.761l1.295-2.568 1.294-2.568 1.296-2.569 1.294-2.568c.176-.332.273-.683.303-1.034a2.753 2.753 0 0 0-.112-1.035 2.7 2.7 0 0 0-1.329-1.596 2.712 2.712 0 0 0-3.665 1.139l-.73 1.339-.731 1.338-.731 1.339-.732 1.338-.111.215-.111.214-.111.214-.112.215c-.066.121-.134.244-.199.369l-.197.381-.194.39-.196.396a40.879 40.879 0 0 1-.941 1.843c-.333.6-.689 1.174-1.088 1.691a6.937 6.937 0 0 1-1.339 1.35 4.901 4.901 0 0 1-1.703.827 5.156 5.156 0 0 1-2.164.084 7.304 7.304 0 0 1-2.082-.711 10.429 10.429 0 0 1-1.861-1.229 11.909 11.909 0 0 1-1.505-1.474 6.84 6.84 0 0 1-1.15-1.765 6.568 6.568 0 0 1-.357-.99 6.857 6.857 0 0 1-.205-1.04 5.733 5.733 0 0 1 .041-1.337c.064-.438.175-.873.319-1.308.146-.435.326-.869.53-1.309.204-.44.429-.885.67-1.34.162-.311.325-.624.484-.939.16-.314.318-.63.477-.945a274.58 274.58 0 0 0 .929-1.88l.206-.414.206-.415.205-.414.207-.414a4.64 4.64 0 0 0 .633-2.042 2.76 2.76 0 0 0-.872-1.936 2.77 2.77 0 0 0-1.985-.751l-.103.005-.096.008-.097.012-.097.015a2.86 2.86 0 0 0-.996.431 4.087 4.087 0 0 0-.78.695 6.678 6.678 0 0 0-.589.783c-.167.257-.306.499-.421.696l-.12.206-.122.207-.121.208-.12.207c-.354.613-.711 1.232-1.06 1.858-.348.626-.687 1.26-1.005 1.904a26.3 26.3 0 0 0-.88 1.965 18.521 18.521 0 0 0-.681 2.038c-.453 1.723-.514 3.453-.282 5.141.233 1.687.759 3.333 1.479 4.885s1.634 3.013 2.645 4.331a25.512 25.512 0 0 0 3.217 3.478c.417.366.834.783 1.207 1.247.37.462.695.969.927 1.508a4.25 4.25 0 0 1 .362 1.709 4.009 4.009 0 0 1-.489 1.852 5.653 5.653 0 0 0-.606 3.154"/><path d="M24.532 15.249l.001-.256h-.031a5.578 5.578 0 0 0-3.929 1.615 5.6 5.6 0 0 0-1.207 1.768 5.543 5.543 0 0 0-.452 2.173v.031c0 .76.151 1.485.428 2.146l-.006-.015.006.014c.279.67.684 1.275 1.187 1.783a5.564 5.564 0 0 0 3.94 1.659h.034c.758 0 1.482-.152 2.143-.426a5.597 5.597 0 0 0 2.989-2.956 5.555 5.555 0 0 0 .451-2.172v-.03a5.57 5.57 0 0 0-1.626-3.937h.001a5.61 5.61 0 0 0-1.763-1.2 5.62 5.62 0 0 0-2.164-.45l-.002.253-.002.255c.698.006 1.362.15 1.966.409a5.09 5.09 0 0 1 1.602 1.091l-.02-.02.021.02a5.077 5.077 0 0 1 1.08 1.609c.256.604.396 1.27.396 1.967V20.609v-.001a5.055 5.055 0 0 1-1.505 3.58l.033-.033-.033.032a5.105 5.105 0 0 1-1.621 1.079 5.04 5.04 0 0 1-1.946.388h-.032a5.055 5.055 0 0 1-3.578-1.507 5.081 5.081 0 0 1-1.08-1.62v-.001a5.042 5.042 0 0 1-.388-1.948v-.028a5.056 5.056 0 0 1 .41-1.973l.013-.029-.013.029a5.107 5.107 0 0 1 2.717-2.684 5.037 5.037 0 0 1 1.95-.388h.029l.001-.256zm0 9.451l-.002-.255h-.031a3.842 3.842 0 0 1-1.477-.293 3.903 3.903 0 0 1-1.237-.819l-.005-.005.006.006a3.868 3.868 0 0 1-.836-1.223v-.001a3.816 3.816 0 0 1-.315-1.502V20.6v.007-.027c0-.524.104-1.023.292-1.48l-.003.005.002-.004c.195-.464.473-.883.821-1.236l-.01.011.01-.01a3.89 3.89 0 0 1 1.224-.838 3.83 3.83 0 0 1 1.5-.314h.024c.527 0 1.027.104 1.483.292a3.898 3.898 0 0 1 2.075 2.043l-.005-.011.005.01c.199.46.31.967.313 1.502v.027a3.868 3.868 0 0 1-.303 1.498l-.003.007.003-.008a3.886 3.886 0 0 1-.822 1.226l.015-.015-.015.015a3.856 3.856 0 0 1-2.712 1.144l.003.256.002.256a4.374 4.374 0 0 0 3.071-1.294h-.001c.395-.396.71-.865.931-1.385l.004-.007-.003.006a4.388 4.388 0 0 0 .342-1.695v-.032a4.379 4.379 0 0 0-.355-1.701l.005.012-.005-.012a4.394 4.394 0 0 0-4.027-2.643h-.028a4.339 4.339 0 0 0-1.7.356 4.394 4.394 0 0 0-2.313 2.345l.002-.006-.003.007a4.389 4.389 0 0 0-.331 1.675v.033-.001a4.36 4.36 0 0 0 .357 1.702v-.001c.225.522.547.991.946 1.384l.001.001a4.356 4.356 0 0 0 3.07 1.259h.035V24.7zM35.145 2.569h.255v-.088l-.033-.077-.002-.004-.014-.03-.003-.01-.021-.035-.015-.026-.008-.013-.059-.08-.01-.014-.069-.073-.01-.01-.071-.062-.014-.011-.084-.055-.025-.017-.053-.02h-.002l-.028-.01-.003-.001-.023-.008.003.001-.027-.009-.041-.014H34.366l-1.504.41-1.474.402-1.471.401-1.493.408-.203.096-.039.018-.175.167-.032.03-.109.216-.02.039-.033.246-.002.017v4.139h.255l.104-.234-.233-.104-.014-.006-.26-.08-.014-.004-.265-.049-.016-.003-.271-.017h-.016c-.337 0-.66.068-.953.192l.005-.002-.006.002a2.487 2.487 0 0 0-.778.524l-.006.005.005-.005c-.222.221-.4.485-.525.779l-.002.005.002-.004a2.448 2.448 0 0 0 0 1.905v.001c.125.293.304.557.525.778h.001a2.453 2.453 0 0 0 2.686.523 2.43 2.43 0 0 0 1.302-1.303l-.003.006.002-.005c.125-.294.192-.618.192-.954V4.989l.981-.267 1.17-.319 1.172-.319.846-.231V6.85h.255l.104-.234-.234-.103-.012-.008-.26-.08-.015-.005-.265-.049-.015-.002-.271-.017h-.017c-.337 0-.66.068-.953.192l-.003.001.002-.001a2.44 2.44 0 0 0-.775.526l.002-.002-.002.001a2.456 2.456 0 0 0-.527.778v.001a2.47 2.47 0 0 0 0 1.905v.001c.125.293.304.557.527.778a2.443 2.443 0 0 0 1.729.717 2.44 2.44 0 0 0 1.732-.716 2.442 2.442 0 0 0 .717-1.732V2.764l.001-.013.001-.021v-.012l-.001-.034-.002-.025.001.006-.001-.003-.002-.029V2.62l-.006-.035-.004-.025-.001-.01-.008-.037-.249.056h.255-.255l-.25.055.005.018.003.018v.003l.004.019v.011l.001.017.002.025-.002-.005.255-.013-.255-.013-.001.021-.001.018v6.058c0 .268-.054.523-.152.754l.014-.029-.014.029a1.964 1.964 0 0 1-1.033 1.033 1.937 1.937 0 0 1-1.508-.001l-.005-.002.005.002a1.916 1.916 0 0 1-.612-.415h-.002a1.985 1.985 0 0 1-.418-.618l.001.001a1.951 1.951 0 0 1 0-1.509l-.001.001c.1-.232.242-.441.418-.617l-.002.002.004-.004c.172-.175.381-.316.613-.416l.003-.001-.004.002c.231-.098.486-.152.754-.152v-.255l-.016.255.241.016.221.041.217.067.22.097.359.159V3.184l-1.49.407-1.171.319-1.171.319-1.359.37v5.847c0 .27-.053.523-.152.753v.001a1.918 1.918 0 0 1-1.03 1.031 1.922 1.922 0 0 1-1.509 0 1.96 1.96 0 0 1-.618-.415h.001a1.947 1.947 0 0 1-.416-.616v.001a1.953 1.953 0 0 1 0-1.51V9.69c.099-.233.24-.441.416-.617h-.001c.178-.176.386-.318.618-.417l-.005.004.004-.002c.234-.098.488-.152.756-.152V8.25l-.016.255.24.015.221.041.216.066.22.098.359.16V4.388l.019-.143.051-.1.083-.08.125-.059 1.451-.396 1.472-.401 1.473-.402 1.471-.402-.067-.247v.256H34.748v-.255l-.087.241.026.009.003.001.023.008.022.007.023.009.088-.24-.14.214.058.037.039.035.038.04.031.043.008.013.01.017.01.018.01.023.234-.101h-.256v.064l.006.027.251-.055zm-8.058 8.812v-.255a.738.738 0 0 1-.284-.057l-.232-.156-.156-.233.01.023-.01-.023a.72.72 0 0 1 0-.568l.004-.009-.004.01.156-.231.008-.008-.007.006.232-.156a.72.72 0 0 1 .566 0l.003.001h-.001l.23.155.003.003.156.23.235-.1-.236.098a.742.742 0 0 1 .001.571v-.001l-.157.232.002-.002-.004.004-.23.155-.003.001h.001a.703.703 0 0 1-.282.057v.509c.17 0 .335-.035.484-.098h-.002c.149-.062.285-.153.396-.268l-.182-.179.18.181a1.24 1.24 0 0 0 .268-.395l.002-.005-.002.003a1.24 1.24 0 0 0 .001-.963l-.001-.002a1.246 1.246 0 0 0-.268-.394l-.18.183.182-.179a1.233 1.233 0 0 0-.396-.268h.002a1.238 1.238 0 0 0-1.362.266h.001a1.233 1.233 0 0 0-.266 1.359l-.018-.042.018.042a1.234 1.234 0 0 0 1.143.758v-.255zm5.887-1.608v-.255a.729.729 0 0 1-.285-.057h.002l-.233-.158-.008-.007.008.008-.156-.231-.002-.005.002.006a.745.745 0 0 1 0-.571l.002-.005-.002.006.156-.232.007-.007-.008.008.233-.158-.002.001a.732.732 0 0 1 .57 0h-.001l.231.157.006.005-.004-.003.155.232-.001-.001a.713.713 0 0 1 .058.284v.007a.724.724 0 0 1-.057.279l.01-.021-.01.021-.154.232.004-.004-.003.003-.231.158-.005.002.005-.002a.735.735 0 0 1-.284.059h-.06l-.056.027.114.229v-.256h-.003v.255h.256v-.261h-.256v.255h-.255v.261h.319l.055-.027-.114-.229v.256h.002a1.256 1.256 0 0 0 .877-.369v.001c.111-.112.201-.246.264-.395l-.01.023.01-.024c.06-.146.094-.306.094-.474v-.007c0-.17-.034-.334-.098-.484l-.002-.005.002.004a1.205 1.205 0 0 0-.266-.393l.002.001a1.257 1.257 0 0 0-.394-.266l-.002-.001h.001a1.242 1.242 0 0 0-.966-.001h-.002c-.147.063-.28.153-.393.265l.008-.008-.008.009a1.251 1.251 0 0 0-.266.394l.002-.004-.002.006c-.061.146-.098.31-.098.482s.037.335.098.481l.001.005-.001-.003a1.244 1.244 0 0 0 .659.659l.002.001c.149.063.313.097.482.097v-.255h-.255.256zm16.445 13.598h.256v-.012l.001-.014v-.013l-.001-.027V23.162l-.081-.095-.002-.002-.022-.026-.004-.005-.026-.026-.009-.008-.033-.028-.166.194.229-.117-.029-.057-.01-.018-.049-.067-.013-.016-.06-.059-.013-.012-.065-.048-.008-.005-.03-.02-.137.216.14-.214-.022-.015-.02-.012-.019-.013-.03-.021-.062-.021.003.001-.03-.01-.082.242.084-.241-.026-.009-.002-.001-.029-.009-.039-.013H48.632l-1.917.521-1.883.512-1.886.512-1.904.518-.204.094-.04.018-.174.169-.031.03-.109.215-.021.039-.03.245-.002.017v5.579h.255l.14-.214a2.896 2.896 0 0 0-2.177-.396 2.922 2.922 0 0 0-1.018.438c-.311.21-.585.488-.801.822a2.87 2.87 0 0 0-.418 1.069 2.845 2.845 0 0 0 .022 1.108v.002c.08.359.227.705.439 1.017l-.001-.001a2.872 2.872 0 0 0 2.385 1.261 2.913 2.913 0 0 0 1.632-.503c.311-.212.585-.489.8-.824v.001c.076-.117.142-.239.198-.365l-.232-.105.231.109c.061-.13.108-.26.146-.391l-.001.001c.039-.131.069-.268.089-.406l-.001.003c.02-.137.029-.275.029-.414v-7.143l1.393-.378 1.583-.432 1.583-.431 1.259-.342v4.433h.256l.139-.215a2.866 2.866 0 0 0-1.562-.46 2.912 2.912 0 0 0-1.634.503c-.31.212-.584.487-.799.822l-.005.007.005-.009a2.886 2.886 0 0 0-.419 1.069l-.005.023.005-.022a2.817 2.817 0 0 0 .023 1.108c.079.361.226.707.438 1.018l.006.011-.006-.01a2.915 2.915 0 0 0 1.89 1.217 2.84 2.84 0 0 0 1.108-.022 2.885 2.885 0 0 0 1.819-1.261l-.216-.138.214.14c.078-.119.144-.241.201-.368l-.233-.104.231.108c.06-.126.107-.256.146-.388l.001-.004c.037-.128.066-.263.087-.4l.001-.007v.005c.018-.136.027-.273.027-.412V23.443l-.003-.033-.001-.007-.004-.026-.003-.019-.003-.018v-.002l-.253.039h.256v-.006h-.509V23.397l.006.038.003.019.002.014V31.226c0 .114-.008.229-.024.343l.001-.002a2.922 2.922 0 0 1-.072.336l.245.068-.245-.071a2.408 2.408 0 0 1-.12.317l-.001.003a2.192 2.192 0 0 1-.163.297l-.002.003a2.385 2.385 0 0 1-.656.678 2.382 2.382 0 0 1-1.346.413 2.353 2.353 0 0 1-1.283-.38 2.4 2.4 0 0 1-.68-.658l-.007-.011.007.012a2.384 2.384 0 0 1-.379-1.751v.001c.054-.306.166-.604.346-.879v-.002a2.39 2.39 0 0 1 .657-.678 2.413 2.413 0 0 1 1.346-.414 2.352 2.352 0 0 1 1.284.379l.395.253v-5.569l-1.903.518-1.583.431-1.582.432-1.771.482V33.308c0 .115-.008.229-.024.341l.001-.008-.002.01a2.291 2.291 0 0 1-.07.329l-.001.002c-.032.109-.07.214-.118.315l-.001.002a2.39 2.39 0 0 1-.82.978 2.4 2.4 0 0 1-1.752.379 2.352 2.352 0 0 1-.879-.344 2.334 2.334 0 0 1-.677-.657l-.001-.001a2.38 2.38 0 0 1-.361-.839v.002a2.457 2.457 0 0 1-.019-.913l.003-.018-.003.018a2.402 2.402 0 0 1 1.003-1.558 2.397 2.397 0 0 1 1.751-.379c.303.053.603.165.879.344l.395.255v-6.013l.021-.142.052-.102.081-.079.126-.058 1.862-.507 1.885-.512 1.884-.512 1.884-.513-.066-.247v.256H48.976v-.256l-.081.243.025.008.025.009.003.001.027.01h.001l.027.009.081-.243-.147.209.022.015.003.002.027.018.022.015.003.001.017.01.028.021.018.018.013.017.019.038.023.044.054.047.009.009.017.017.018.022.194-.166h-.255V23.317l.001.014-.001.007v.032h.25zM39.26 34.709l.005-.256a1.19 1.19 0 0 1-.456-.099 1.198 1.198 0 0 1-.368-.259l.001.001a1.136 1.136 0 0 1-.243-.377l.001.006-.002-.007a1.122 1.122 0 0 1-.084-.431v-.023c.002-.162.038-.315.1-.455l-.002.002h.001c.062-.142.148-.265.258-.369h.001c.106-.104.235-.188.376-.246l-.004.002.002-.002c.135-.054.282-.084.438-.084h.021c.161.004.311.038.45.1l.007.003-.008-.004c.14.062.263.147.366.252l-.003-.003.004.004c.104.104.187.229.243.367l.001.004c.06.137.09.286.09.449 0 .162-.033.315-.094.454l-.001.002c-.06.141-.146.267-.253.373l-.001.001a1.135 1.135 0 0 1-.373.249h-.003a1.183 1.183 0 0 1-.454.091h-.008l.004.256v-.256h-.012v.255l.005-.256-.005.256v.255h.017c.229 0 .451-.045.651-.131l-.001.001a1.65 1.65 0 0 0 .539-.36l-.003.003.002-.001c.155-.152.279-.334.365-.536l-.002.002a1.66 1.66 0 0 0 .007-1.307l-.236.1.237-.097a1.661 1.661 0 0 0-.354-.533l.002.002-.001-.001a1.643 1.643 0 0 0-.525-.362l-.007-.003.006.002a1.682 1.682 0 0 0-.644-.141h-.031c-.222 0-.434.044-.627.122h-.002a1.664 1.664 0 0 0-.538.351v-.001a1.723 1.723 0 0 0-.371.528l-.001.002c-.086.199-.139.42-.142.653l.256.004-.256-.01v.038c0 .22.043.431.122.625l-.002-.006.001.004c.082.203.201.385.352.541l.005.005-.005-.005a1.69 1.69 0 0 0 1.181.512h.004v-.256zm7.534-2.054v-.256a1.167 1.167 0 0 1-.831-.347v.001a1.18 1.18 0 0 1-.251-.372l-.001-.003a1.159 1.159 0 0 1 0-.913l.003-.008-.002.004c.059-.138.145-.266.252-.373l-.002.002c.108-.108.235-.194.375-.254l.007-.002-.005.002c.139-.06.292-.092.455-.092.164 0 .318.032.457.092l.003.001-.001-.001c.141.06.266.146.375.254l-.001-.001c.107.106.192.234.253.375l-.002-.007.002.006a1.19 1.19 0 0 1 0 .917l-.005.012.005-.014a1.178 1.178 0 0 1-1.086.721v.511c.233 0 .456-.049.656-.134a1.673 1.673 0 0 0 .899-.896l.001-.002a1.678 1.678 0 0 0 0-1.311l-.001-.002a1.666 1.666 0 0 0-.361-.536l-.001-.001a1.695 1.695 0 0 0-.537-.362l.002.002-.001-.001a1.655 1.655 0 0 0-.657-.133c-.231 0-.454.046-.656.133l.002-.001a1.7 1.7 0 0 0-.537.362l-.002.002a1.668 1.668 0 0 0-.36.537l.236.098-.234-.101c-.088.202-.135.426-.135.658s.047.456.135.658l.234-.101-.236.098c.085.205.209.386.361.537l.005.005-.005-.004c.153.152.334.276.538.361.199.085.422.134.654.134v-.255zM35.76 46.131l-.051-.251a23 23 0 0 1-4.651.471 23.17 23.17 0 0 1-6.037-.8 23.259 23.259 0 0 1-3.402-1.207l-.104.233.248-.063a4.413 4.413 0 0 1-.111-1.56c.028-.26.079-.517.151-.77l.003-.012-.003.014c.074-.251.169-.499.286-.734l-.229-.114.227.118a5.632 5.632 0 0 0 .62-2.03l.004-.043-.004.042a5.376 5.376 0 0 0-.199-2.07l.003.01-.003-.01a7.172 7.172 0 0 0-.995-2.037 10.997 10.997 0 0 0-1.757-1.948 23.947 23.947 0 0 1-3.005-3.229 21.907 21.907 0 0 1-2.474-4.005c-.674-1.431-1.167-2.94-1.387-4.477a12.498 12.498 0 0 1-.126-1.76c0-.964.118-1.931.375-2.893v-.001c.17-.644.386-1.28.636-1.911.25-.629.532-1.251.837-1.868l.007-.012-.006.012c.302-.615.63-1.225.965-1.83l-.011.021.011-.02c.335-.604.684-1.204 1.028-1.8l-.003.004.121-.205.119-.201-.01.017.129-.219.12-.204.001-.001c.125-.219.254-.438.392-.646.136-.207.281-.403.434-.577h.001c.151-.173.311-.322.476-.438l.01-.007-.01.007c.168-.116.339-.198.524-.243l-.06-.249.042.252.203-.017.067.002.26.043h.003l.247.099-.002-.001.226.155.166-.194-.176.185.21.199.16.236.211-.144-.228.12.099.247.245-.073-.247.068.044.262.254-.017-.254-.026a3.579 3.579 0 0 1-.059.371l.001-.005-.001.003c-.027.123-.06.243-.099.361l.001-.004-.001.002c-.04.118-.085.233-.139.345l-.007.017.007-.016a3.48 3.48 0 0 1-.176.331l-.006.009-.21.434.018-.039-.225.462-.205.423-.008.016-.198.407.229.112-.229-.114c-.152.303-.304.612-.454.923l-.003.007.003-.008-.461.939c-.155.315-.312.63-.471.942a38.74 38.74 0 0 1-.487.928v.003l-.001.002c-.262.501-.512.992-.737 1.483l-.003.007.004-.008c-.228.491-.426.982-.59 1.479l-.005.014.005-.013a8.673 8.673 0 0 0-.357 1.526 7.335 7.335 0 0 0-.038 1.612v.003l.001.003a8.365 8.365 0 0 0 .678 2.471c.176.39.38.767.616 1.126l-.004-.005.003.004a8.2 8.2 0 0 0 .783 1.023l.19-.171-.194.166a13.242 13.242 0 0 0 1.795 1.747h-.001c.672.543 1.41 1.027 2.195 1.408a8.47 8.47 0 0 0 2.479.784c.327.047.656.07.987.07a6.366 6.366 0 0 0 1.646-.211 6.294 6.294 0 0 0 2.116-1.009 8.191 8.191 0 0 0 1.612-1.582c.468-.595.877-1.241 1.248-1.901.372-.659.708-1.332 1.031-1.98l-.002.004.001-.003.194-.384.009-.019-.009.019c.063-.127.126-.253.189-.376l-.001.003.003-.005.188-.369-.002.003.001-.001.19-.356.114-.205.114-.208.005-.009.107-.199.113-.207.729-1.338-.007.013.007-.012.73-1.339.731-1.338.004-.007-.003.006c.241-.446.487-.892.732-1.338l-.224-.123.208.15a1.2 1.2 0 0 1 .362-.336l.003-.002-.002.001c.139-.084.291-.14.449-.167h-.003.002l.201-.017c.094 0 .187.011.279.032h-.002c.159.036.312.103.452.205l.005.003-.004-.003c.112.081.207.178.284.286l.001.002c.078.106.136.225.176.35l-.002-.006.002.008c.038.12.059.247.059.374v.019h.255l-.255-.005c-.003.137-.024.27-.07.399l.24.085-.228-.115-1.288 2.545-1.288 2.546-1.289 2.546-1.289 2.546.228.115-.214-.14a9.31 9.31 0 0 0-.59 1.085c-.271.577-.574 1.35-.789 2.257a9.983 9.983 0 0 0-.273 2.284c0 .254.011.511.034.773l.004.043v-.043a8.53 8.53 0 0 0 1.07 3.469l.169.302-.012-.019.178.32.168.304.168.301.001.002.002.003c.474.814.878 1.51 1.197 2.152.318.642.554 1.228.694 1.831l-.003-.01.003.01c.106.448.161.906.161 1.405 0 .172-.006.348-.02.531v-.001c-.055.717-.211 1.526-.494 2.5l.248.071-.051-.251.051.251.245.07c.289-.996.455-1.841.513-2.602v-.002a7.88 7.88 0 0 0 .021-.567c0-.537-.061-1.038-.176-1.523-.152-.652-.405-1.278-.734-1.94-.329-.664-.739-1.366-1.213-2.182l-.221.129.224-.124-.168-.303-.168-.303-.168-.302.006.009-.175-.312a8.026 8.026 0 0 1-1.007-3.264l-.003-.035.003.035a8.589 8.589 0 0 1-.032-.729c0-.774.105-1.507.26-2.167.205-.864.496-1.605.755-2.157s.484-.916.555-1.022l.008-.012 1.295-2.558 1.289-2.546 1.289-2.546 1.296-2.56.005-.015c.065-.187.096-.375.1-.56v-.023c0-.18-.028-.359-.082-.529l.002.006-.002-.004a1.746 1.746 0 0 0-.249-.5l-.207.151.208-.149a1.747 1.747 0 0 0-.402-.403h.001a1.747 1.747 0 0 0-.638-.289h-.001a1.788 1.788 0 0 0-.674-.021h-.001a1.766 1.766 0 0 0-.631.234l-.004.002.005-.003c-.198.119-.372.28-.514.475l-.009.013-.008.014c-.245.447-.492.894-.734 1.341l-.004.006.005-.007c-.246.446-.489.893-.733 1.339l-.73 1.338.009-.015-.009.015-.73 1.338-.112.207-.113.208-.005.009-.107.196-.114.206-.001.002c-.063.118-.13.239-.194.362l.002-.003-.003.005c-.062.122-.127.246-.19.373l.229.115-.227-.117c-.067.127-.13.254-.194.381l-.009.019.009-.019c-.063.127-.127.256-.192.383v.001a42.598 42.598 0 0 1-1.02 1.959c-.363.645-.759 1.27-1.204 1.834a7.7 7.7 0 0 1-1.511 1.486 5.857 5.857 0 0 1-3.462 1.122 6.37 6.37 0 0 1-.915-.066 7.969 7.969 0 0 1-2.328-.736 11.023 11.023 0 0 1-2.097-1.346l-.011-.009.01.009a12.94 12.94 0 0 1-1.726-1.681l-.002-.003-.002-.002a7.68 7.68 0 0 1-.735-.96H17.2a7.557 7.557 0 0 1-.576-1.056 7.548 7.548 0 0 1-.407-1.131 8.032 8.032 0 0 1-.231-1.189l-.253.03.254-.023a6.65 6.65 0 0 1 .036-1.497c.066-.486.181-.961.335-1.436l-.004.014.004-.013c.156-.476.349-.947.568-1.424l-.003.008.004-.009c.218-.478.465-.962.725-1.459l-.227-.118.225.122c.169-.312.333-.626.493-.941l-.007.015.007-.014c.162-.315.319-.632.475-.948l.461-.94v-.001c.151-.31.302-.617.453-.918l.207-.425.205-.423.207-.423-.019.039.225-.461-.229-.112.217.126c.074-.123.141-.249.202-.378a3.69 3.69 0 0 0 .16-.399l.001-.001c.045-.136.082-.273.113-.412v-.002c.03-.138.053-.28.069-.424l.002-.022-.002-.021a1.797 1.797 0 0 0-.06-.364l-.001-.003-.001-.002a1.872 1.872 0 0 0-.135-.336l-.007-.014-.185-.272-.016-.023-.25-.237-.004-.004-.006-.005a1.913 1.913 0 0 0-.313-.215l-.002-.001a1.731 1.731 0 0 0-.35-.141l-.068.247.07-.246a1.625 1.625 0 0 0-.373-.062l-.095-.002c-.096 0-.191.007-.287.023l-.009.001-.008.003a2.103 2.103 0 0 0-.696.32l-.01.007.01-.006a3.221 3.221 0 0 0-.57.521h.001a5.867 5.867 0 0 0-.477.634c-.146.222-.281.45-.408.672l-.118.201.005-.008-.124.209-.12.202-.119.203.002-.004-.003.005c-.342.595-.693 1.197-1.032 1.807l-.011.019.011-.02a44.722 44.722 0 0 0-.978 1.852l.007-.013-.006.013a25.097 25.097 0 0 0-.854 1.906 17.17 17.17 0 0 0-.654 1.967v-.001a11.602 11.602 0 0 0-.393 3.025c0 .614.046 1.226.133 1.832.228 1.597.737 3.154 1.429 4.623a22.415 22.415 0 0 0 2.533 4.1 24.652 24.652 0 0 0 3.07 3.297 10.47 10.47 0 0 1 1.676 1.859c.433.627.74 1.259.924 1.889l-.003-.01.003.01c.137.47.205.937.205 1.402 0 .157-.008.316-.024.475v-.001a5.127 5.127 0 0 1-.564 1.847l-.002.003-.001.001c-.13.266-.237.539-.319.818l-.003.012.003-.012a4.927 4.927 0 0 0-.183 1.727c.02.292.066.583.139.868l.03.12.114.052a23.855 23.855 0 0 0 9.647 2.051 23.563 23.563 0 0 0 4.753-.48l.151-.031.043-.149-.247-.071zm-15.48-.471c.349.19.428.232.532.272.096.036.155.05.522.205.747.314 1.51.595 2.291.838a25.07 25.07 0 0 0 4.867.992 25.233 25.233 0 0 0 5.099 0c.849-.087 2.468-.376 3.278-.542l.166-.034.3-1.508-.25-.05.247.062c.254-1.011.382-1.888.4-2.685l.002-.201c0-.719-.091-1.374-.256-2.005-.181-.691-.453-1.352-.789-2.039-.337-.688-.741-1.404-1.194-2.207l.006.011-.174-.307-.17-.296-.168-.294-.006-.009-.16-.285-.003-.005.003.006a6.754 6.754 0 0 1-.852-2.91l-.001-.002a7.366 7.366 0 0 1-.016-.468 8.4 8.4 0 0 1 .284-2.122c.198-.769.469-1.416.69-1.871a9.03 9.03 0 0 1 .283-.535l.084-.146.024-.039.019-.031.001-.003 1.298-2.571 1.294-2.568 1.295-2.568 1.294-2.568-.229-.115.226.12c.192-.364.299-.749.332-1.133l.01-.248c0-.302-.046-.6-.133-.884l.001.005-.002-.006a2.95 2.95 0 0 0-.539-1.001l.012.015-.012-.015a2.957 2.957 0 0 0-2.046-1.076l-.243-.01a2.981 2.981 0 0 0-1.892.675l.007-.005-.006.003a2.942 2.942 0 0 0-.744.915l.226.119-.225-.123-.742 1.361-.72 1.315-.731 1.339-.733 1.341-.112.216-.111.216-.111.213-.113.216.227.119-.224-.124c-.067.122-.136.247-.202.375l-.002.004.002-.005-.198.383-.004.009.004-.008c-.065.129-.131.26-.195.392l.012-.025-.012.025-.196.397c-.303.619-.609 1.24-.936 1.832l.008-.014-.008.014c-.33.592-.679 1.156-1.067 1.658l.012-.015-.012.016a6.771 6.771 0 0 1-1.289 1.302l-.013.009.013-.01a4.651 4.651 0 0 1-2.803.936 5.3 5.3 0 0 1-.869-.074 6.946 6.946 0 0 1-2.008-.686 10.272 10.272 0 0 1-1.815-1.198 11.806 11.806 0 0 1-1.473-1.442l-.002-.002-.002-.003a6.543 6.543 0 0 1-.62-.811h-.001a6.79 6.79 0 0 1-.487-.89l-.006-.013.006.014a6.45 6.45 0 0 1-.344-.953l-.002-.007.002.005a6.626 6.626 0 0 1-.198-1l-.253.03.254-.022a5.619 5.619 0 0 1 .039-1.277 7.44 7.44 0 0 1 .31-1.264c.142-.423.317-.849.519-1.283.202-.435.425-.876.664-1.328l.001-.001c.162-.311.326-.625.485-.941.161-.315.319-.631.478-.947l.006-.012-.006.011.469-.945.461-.935.205-.413-.025.051.231-.466-.019.038.224-.452.207-.413-.229-.114.221.128c.095-.163.183-.333.258-.508l-.001.003v-.003a5.07 5.07 0 0 0 .2-.531l.003-.01-.002.008c.056-.181.101-.364.137-.547l.001-.004c.033-.185.059-.373.071-.564l.001-.012v-.013a2.991 2.991 0 0 0-.276-1.171l-.003-.008.004.009a3.024 3.024 0 0 0-.678-.943l.018.018-.018-.019a3.027 3.027 0 0 0-.984-.619l-.003-.001.004.001a3.014 3.014 0 0 0-1.092-.204l-.095.003h-.002l-.099.005h-.005l-.102.009h-.004l-.1.012h-.004l-.102.015-.007.001-.008.002a3.115 3.115 0 0 0-1.084.469l-.023.016.024-.016a4.341 4.341 0 0 0-.83.738l-.005.005.006-.006c-.239.269-.44.55-.612.812l.02-.03-.02.031c-.173.264-.314.51-.428.708l-.121.206-.006.011-.116.195-.003.006-.118.203-.121.207.011-.019-.01.02c-.354.614-.711 1.233-1.062 1.862-.349.629-.69 1.266-1.011 1.915-.322.65-.621 1.31-.889 1.984a18.887 18.887 0 0 0-.69 2.066l-.001.001a12.946 12.946 0 0 0-.422 3.303c0 .65.047 1.297.135 1.938.238 1.716.772 3.386 1.5 4.958a23.568 23.568 0 0 0 2.674 4.379 25.604 25.604 0 0 0 3.25 3.513l.001.002c.408.357.816.766 1.176 1.215v-.001c.358.448.671.937.892 1.449l.007.017-.007-.018c.215.503.341 1.03.341 1.576v.033l.256-.001-.256-.003a3.742 3.742 0 0 1-.459 1.734l-.001.002a5.545 5.545 0 0 0-.336.786v-.001a5.967 5.967 0 0 0-.319 1.661l-.006.271c0 .194.383 2.057.401 2.249l.8-.372c-.017-.179-.689-1.699-.689-1.876l.006-.248c.012-.259.042-.517.09-.771v.002c.05-.255.116-.505.201-.749l.002-.006-.002.005c.084-.244.187-.484.307-.716l-.001.004v-.002a4.26 4.26 0 0 0 .519-1.969v-.034c0-.625-.146-1.222-.383-1.777v-.001a6.92 6.92 0 0 0-.961-1.566h-.001a10.383 10.383 0 0 0-1.237-1.279l.003.004-.002-.002a25.231 25.231 0 0 1-3.184-3.442 23.007 23.007 0 0 1-2.616-4.283c-.711-1.534-1.229-3.155-1.457-4.813a13.553 13.553 0 0 1-.131-1.868c0-1.054.128-2.114.406-3.173l-.002.007.001-.006c.183-.682.412-1.351.672-2.01.262-.658.555-1.306.872-1.946.317-.639.653-1.269 1-1.893.347-.624.703-1.241 1.058-1.854l.119-.207.009-.015.112-.193.007-.011.115-.195-.007.011.127-.218v-.001c.114-.197.25-.435.413-.684.164-.25.351-.511.566-.753l.001-.001c.216-.244.458-.47.73-.652h.001c.271-.182.571-.321.907-.394l-.054-.25.039.252.093-.014.088-.011.087-.007.092-.004-.012-.255.008.255.078-.001c.32 0 .627.06.906.169h.001a2.519 2.519 0 0 1 1.381 1.296h.001c.137.297.218.625.228.973l.255-.007-.254-.017a4.625 4.625 0 0 1-.065.507l.251.045-.25-.05a5.159 5.159 0 0 1-.125.497l-.001.005.002-.006a4.507 4.507 0 0 1-.18.478l-.001.002a4.606 4.606 0 0 1-.23.454l-.005.007-.21.42-.206.415-.205.415-.206.413-.001.001-.461.936c-.154.314-.311.629-.467.944l-.006.012.006-.013c-.159.315-.317.63-.477.944-.16.313-.321.626-.483.937l.001-.001c-.243.458-.47.906-.676 1.352-.208.447-.391.89-.541 1.336a7.885 7.885 0 0 0-.33 1.352 5.881 5.881 0 0 0-.043 1.396v.004l.001.003c.043.366.114.726.211 1.079v-.001a7.022 7.022 0 0 0 .897 1.986h-.001c.199.306.421.598.668.873l.191-.171-.195.166c.438.512.957 1.03 1.539 1.506.58.475 1.223.91 1.907 1.258a7.509 7.509 0 0 0 2.155.734c.314.053.633.081.953.081a5.131 5.131 0 0 0 3.109-1.037l.013-.01-.013.01a7.283 7.283 0 0 0 1.389-1.4l.01-.014-.011.014c.411-.531.773-1.116 1.11-1.722l-.009.015.009-.016a42.01 42.01 0 0 0 .948-1.854c.063-.132.129-.264.194-.395l-.022.045.022-.046.194-.387c.064-.128.13-.254.196-.378v-.002c.063-.122.129-.242.195-.362l.001-.002.114-.218.111-.214.111-.216.004-.007.106-.205.731-1.335.731-1.339.754-1.379.708-1.299.001-.003c.159-.301.369-.555.617-.756l.001-.001c.244-.202.528-.353.829-.446.236-.073.485-.111.736-.111l.2.008a2.47 2.47 0 0 1 1.694.89c.203.248.353.529.447.831l-.002-.004.001.003c.073.237.111.485.111.734l-.008.205a2.438 2.438 0 0 1-.275.936l-1.297 2.573-1.295 2.568-1.294 2.569-1.295 2.568.229.114-.226-.12.177.095-.173-.103-.004.008.177.095-.173-.103c-.013.022-.197.313-.422.777a10.682 10.682 0 0 0-.727 1.965 9.013 9.013 0 0 0-.3 2.252c0 .166.006.332.016.502v-.002a7.28 7.28 0 0 0 .917 3.13l.168.296.003.005.166.291.169.295.01.017.157.277-.005-.01.005.009c.453.803.854 1.512 1.18 2.181l-.009-.018.009.018c.329.669.586 1.297.754 1.942.155.593.24 1.202.24 1.877l.002.191c-.018.751-.139 1.59-.385 2.572l-.002.006-.268 1.347.251.05-.052-.25c-.794.162-2.421.453-3.228.535a24.824 24.824 0 0 1-4.995 0 24.318 24.318 0 0 1-7.009-1.794c-.37-.157-.477-.188-.539-.211-.052-.02-.12-.053-.471-.244l-.243.449z"/></g></symbol><symbol viewBox="0 0 60 50" id="src--sprites--Fitness" xmlns="http://www.w3.org/2000/svg"><path fill="#7A12FE" d="M17.953 33.635l.498.561c.031-.029 1.253-1.115 2.486-2.941 1.229-1.824 2.487-4.404 2.49-7.419v-1.5l-1.2.9c-.066.053-1.072.73-2.329.722a3.739 3.739 0 0 1-1.743-.434c-.627-.325-1.306-.87-1.997-1.776l-.597.455.606-.442a27.675 27.675 0 0 0-3.089-3.524 25.732 25.732 0 0 0-1.491-1.334c-.099-.078-.146-.117-.218-.166l-.417.623.46-.592a1.916 1.916 0 0 0-1.175-.407c-.567 0-1.105.25-1.482.68l-.015.017-.014.018c-.273.349-.409.77-.408 1.176.001.567.251 1.106.683 1.482l.212.185h.281v-.739l-.271.688c.046.014.098.046.271.051v-.739l-.271.688.243-.617-.352.562.108.055.243-.617-.352.562.165-.264-.181.254.016.01.165-.264-.181.254c.014.008.157.123.34.286a29.124 29.124 0 0 1 2.75 2.832l.572-.485-.594.458.991 1.283.594-.458-.618.424c.415.602.892 1.153 1.24 1.682.353.531.556 1.006.553 1.451v2.041c.004.436-.211.932-.58 1.479-.364.547-.855 1.111-1.271 1.715l.619.424-.564-.494c-.435.498-.74.924-.876 1.127l.623.418-.579-.477a24.88 24.88 0 0 1-3.191 3.204l-.066.057-.026.023-.046.041.525.535-.461-.592c-.472.363-.736.92-.732 1.477 0 .43.15.855.426 1.209l.003.004.005.006a1.97 1.97 0 0 0 2.102.666c.207-.062.438-.166.646-.371l.065-.064.048-.08-.477-.287.399.391.077-.104-.477-.287.399.391-.08-.078.076.082.004-.004-.08-.078.076.082c.013-.016.128-.107.283-.221.557-.41 1.697-1.189 2.955-2.137 1.261-.951 2.646-2.072 3.742-3.219l-.539-.52.498.561-.498-.561-.542-.52c-1.195 1.252-2.877 2.564-4.276 3.588-.7.514-1.329.955-1.802 1.291-.236.168-.433.311-.586.426l-.205.166-.097.09c-.035.037-.074.074-.135.172l.643.387-.529-.531.068.068-.047-.088-.021.02.068.068-.047-.088-.192.033a.477.477 0 0 1-.35-.186L9.319 39l.592-.459a.48.48 0 0 1-.109-.289c.004-.109.035-.195.154-.293l.034-.027.03-.029-.377-.385.352.408.025-.023-.377-.385.352.408c.02-.018.167-.139.37-.312a26.996 26.996 0 0 0 3.092-3.152l.023-.029.02-.033c.099-.146.377-.537.759-.973l.029-.033.025-.037c.342-.504.842-1.076 1.279-1.727.433-.648.83-1.406.834-2.314v-2.041c-.003-.896-.383-1.645-.802-2.28-.425-.638-.91-1.196-1.255-1.702l-.012-.018-1.015-1.314-.011-.012a31.717 31.717 0 0 0-2.279-2.414 20.212 20.212 0 0 0-.766-.697 8.077 8.077 0 0 0-.242-.201l-.102-.075-.08-.049-.091-.042c-.049-.015-.104-.048-.279-.053v.75l.493-.565a.48.48 0 0 1-.169-.353l.092-.255-.592-.46.563.495c.1-.113.235-.17.355-.169l.255.091.021.016.022.015.184-.275-.191.27.008.005.184-.275-.191.27.146.116c.599.484 2.583 2.219 4.28 4.55l.005.007.005.006c.803 1.052 1.653 1.76 2.501 2.198a5.26 5.26 0 0 0 2.433.603c1.892-.011 3.162-.979 3.229-1.022l-.45-.6h-.75c.003 2.583-1.102 4.904-2.234 6.58a16.803 16.803 0 0 1-1.554 1.969c-.211.229-.387.406-.507.521l-.137.131-.033.031-.008.008-.023.02-.021.021.545.518zm13.124-18.842v.75a4.928 4.928 0 0 0 4.949-4.95 4.932 4.932 0 0 0-1.443-3.505 4.941 4.941 0 0 0-3.506-1.444 4.933 4.933 0 0 0-4.948 4.949V10.611c.065 2.728 2.251 4.928 4.949 4.932v-1.5c-1.852.003-3.402-1.529-3.449-3.468l-.75.018h.75a3.43 3.43 0 0 1 3.449-3.449 3.429 3.429 0 0 1 3.449 3.449 3.43 3.43 0 0 1-3.449 3.45v.75zm-9.275 4.775h.75a3.336 3.336 0 0 0-3.315-3.316 3.337 3.337 0 0 0-3.317 3.316 3.337 3.337 0 0 0 3.317 3.316 3.3 3.3 0 0 0 3.315-3.316h-1.5c-.003 1.042-.817 1.811-1.815 1.816a1.81 1.81 0 0 1-1.278-.539c-.335-.336-.539-.789-.539-1.278s.204-.942.539-1.278a1.81 1.81 0 0 1 1.278-.539c.488 0 .941.204 1.277.539.335.335.538.789.538 1.278h.75zM52.366 37.25v-.75.74l.281-.686c-.047-.014-.098-.049-.281-.055v.74l.281-.686-.25.611.355-.557-.105-.055-.25.611.355-.557-.008.01.008-.01-.008.01.008-.01c-.117-.09-.57-.48-1.148-1.043a32.792 32.792 0 0 1-2.051-2.186l-.57.486.625-.414a11.408 11.408 0 0 0-.875-1.129l-.564.494.604-.445c-.436-.588-.92-1.148-1.275-1.689-.359-.543-.564-1.037-.562-1.482V27.16c-.004-.406.199-.895.557-1.436.35-.539.826-1.101 1.236-1.701l-.619-.423.594.459.992-1.283-.594-.459.572.485a28.065 28.065 0 0 1 2.883-2.923l.209-.181.064-.055.07-.064-.533-.528.461.593c.473-.362.738-.921.732-1.476a1.958 1.958 0 0 0-.426-1.211l-.057-.074.057.073a1.862 1.862 0 0 0-1.475-.732c-.432 0-.857.151-1.209.426l.459.592-.414-.625c-.074.051-.121.089-.221.167-.645.521-2.73 2.327-4.58 4.858l.607.442-.594-.459c-.695.898-1.377 1.438-2.006 1.76a3.821 3.821 0 0 1-1.756.431c-.67 0-1.264-.179-1.686-.362a4.203 4.203 0 0 1-.486-.248l-.119-.076-.025-.017-1.195-.876v1.481c.004 3.016 1.262 5.594 2.492 7.418 1.232 1.826 2.455 2.914 2.486 2.941l.498-.561-.543.518c1.312 1.373 3.045 2.715 4.479 3.75.715.518 1.355.955 1.828 1.275l.564.381.154.107.029.023.283-.369-.326.328.043.041.283-.369-.326.328.037.037.043.033c.359.275.793.389 1.15.383a1.968 1.968 0 0 0 1.518-.748l-.586-.469.488.568a1.56 1.56 0 0 0 .529-1.199c0-.547-.248-1.1-.732-1.479l-.201-.155h-.258v.75l-.459.592a.39.39 0 0 1 .152.295l-.01.062-.002.004.029.02-.023-.025-.006.006.029.02-.023-.025-.053.045-.045.057a.479.479 0 0 1-.346.186.372.372 0 0 1-.252-.084l-.448.597.531-.529-.102-.088a6.98 6.98 0 0 0-.355-.248c-.555-.377-1.672-1.121-2.914-2.045s-2.604-2.029-3.617-3.09l-.02-.021-.023-.021-.008-.006c-.107-.098-1.246-1.15-2.338-2.812-1.096-1.662-2.131-3.918-2.129-6.42h-.75l-.443.604c.066.042 1.33.984 3.205.994.746 0 1.586-.16 2.438-.596.85-.433 1.705-1.134 2.512-2.177l.006-.008.006-.009a26.092 26.092 0 0 1 2.92-3.33 23.443 23.443 0 0 1 1.386-1.242l.094-.073.021-.017.004-.001-.207-.293.197.299.01-.006-.207-.293.197.299.023-.016.023-.018a.466.466 0 0 1 .289-.109c.107.004.193.034.291.154l.031.04-.031-.04a.472.472 0 0 1 .109.29c-.004.108-.033.193-.152.29l-.039.03-.033.034.383.38-.359-.406-.023.023.383.38-.36-.403c-.016.015-.154.131-.346.299a29.791 29.791 0 0 0-2.984 3.034l-.01.012-1.016 1.314-.014.019c-.346.51-.832 1.084-1.254 1.727-.416.64-.795 1.378-.801 2.255v2.041c.004.896.381 1.654.811 2.309.432.654.938 1.232 1.32 1.752l.018.025.021.023c.381.436.658.826.754.971l.025.039.029.033a33.846 33.846 0 0 0 2.357 2.492c.322.307.592.551.791.723.1.086.182.154.248.207l.102.076.078.049.09.043c.049.016.102.051.287.057v-.75l-.459.592.461-.592zm-5.365 4.434l.531-.527-.055-.053c-.068-.059-.26-.217-.578-.494a44.544 44.544 0 0 1-4.859-5.002l-.002-.002-.002-.002c-.262-.311-.494-.658-.816-1.049l-.576.479.598-.451c-.756-.998-1.68-2.037-2.395-3.078-.721-1.043-1.195-2.064-1.188-2.945v-7.057c.002-.972.35-1.736.891-2.53.535-.789 1.264-1.561 1.895-2.47l-.617-.426.59.461 1.867-2.391-.592-.461.572.486a51.376 51.376 0 0 1 4.76-4.873l.334-.296.096-.083.031-.027.043-.041-.527-.533.463.59c.662-.52.992-1.302.99-2.072 0-.583-.186-1.174-.57-1.664l-.02-.026.02.025a2.627 2.627 0 0 0-2.072-.99c-.582 0-1.174.187-1.666.572l-.004.004-.003.001c-.32.26-4.387 3.556-7.896 8.43l.609.438-.543-.519c-.613.642-1.387 1.343-2.258 1.877-.871.537-1.824.9-2.818.924h-.012l-.014.001-.236.006c-.826 0-1.682-.243-2.589-.761-.905-.517-1.853-1.311-2.814-2.381l-.558.502.608-.439c-3.394-4.701-7.354-7.83-7.665-8.081l-.003-.003-.001.001a2.697 2.697 0 0 0-1.665-.572 2.618 2.618 0 0 0-2.071.991v-.001a2.692 2.692 0 0 0-.572 1.666c-.001.77.329 1.551.989 2.071l.464-.59-.528.533.05.045c.064.056.245.207.545.471a47.532 47.532 0 0 1 4.67 4.746l.571-.486-.586.469 1.634 2.041.586-.469-.604.443c.68.924 1.474 1.777 2.07 2.656.6.882.992 1.748.992 2.735v7.057c.004.877-.403 1.781-1.024 2.703-.617.922-1.424 1.83-2.097 2.746l.605.443-.569-.488c-.718.836-1.203 1.502-1.374 1.73l.602.449-.574-.482a48.608 48.608 0 0 1-4.91 5.029c-.148.133-.267.234-.35.305l-.099.086-.033.029-.055.051.537.523-.464-.59a2.625 2.625 0 0 0-.989 2.07c0 .584.187 1.176.572 1.666l.59-.463-.601.449c.526.697 1.342 1 2.117 1a2.527 2.527 0 0 0 1.646-.582l-.479-.576.468.586c.07-.057.153-.129.293-.256.95-.865 4.078-3.852 7.227-7.668l-.579-.479.564.494c.58-.664 1.384-1.451 2.317-2.061.935-.613 1.986-1.043 3.084-1.066h.01l.012-.002.227-.006c.904.002 1.828.281 2.812.875.98.594 2.008 1.506 3.064 2.725l-.002-.004v.002a99.161 99.161 0 0 0 4.789 5.18c.648.65 1.191 1.178 1.596 1.561.201.189.367.346.494.461.131.117.209.188.277.244l.469-.586-.479.576a2.521 2.521 0 0 0 1.646.582 2.717 2.717 0 0 0 2.08-.955l.025-.029.023-.029a2.738 2.738 0 0 0 .502-1.58 2.763 2.763 0 0 0-.979-2.109l-.485.57.531-.527-.531.527-.488.57c.307.264.451.615.453.969 0 .254-.076.5-.225.709l.611.436-.564-.496c-.287.318-.57.439-.953.445a1.02 1.02 0 0 1-.688-.234l-.006-.006-.004-.002c-.004-.004-.09-.078-.205-.184-.834-.758-3.668-3.479-6.752-7.07l-.004-.002c-1.129-1.301-2.258-2.318-3.42-3.023-1.16-.705-2.365-1.094-3.59-1.094-.102 0-.203.004-.305.008l.039.75-.018-.75c-1.469.035-2.78.598-3.872 1.311-1.093.717-1.98 1.594-2.624 2.33l-.008.008-.007.008A81.618 81.618 0 0 1 17.81 43.4c-.212.201-.386.361-.514.477a7.527 7.527 0 0 1-.221.195l-.006.006-.005.004a1.02 1.02 0 0 1-.687.234c-.393.002-.745-.162-.916-.398l-.006-.008-.005-.006a1.192 1.192 0 0 1-.252-.74c.001-.352.146-.68.417-.891l.038-.031.035-.035-.463-.451.435.479.028-.027-.463-.451.435.479-.027-.029.026.029h.001l-.027-.029.026.029c.039-.033.255-.217.573-.498a50.324 50.324 0 0 0 4.977-5.111l.015-.018.013-.018c.177-.236.627-.855 1.31-1.65l.019-.021.017-.023c.61-.836 1.437-1.764 2.132-2.797.69-1.031 1.275-2.197 1.279-3.539v-7.057c0-1.405-.57-2.581-1.253-3.58-.687-1.003-1.497-1.871-2.101-2.697l-.01-.014-1.65-2.062-.007-.009a49.067 49.067 0 0 0-4.908-4.976 44.073 44.073 0 0 0-.349-.301l-.096-.081-.022-.019-.421.472.445-.449-.024-.023-.421.472.445-.449-.031-.03-.034-.027a1.124 1.124 0 0 1-.416-.892c0-.264.084-.526.251-.738l-.013.017.014-.018c.211-.269.539-.416.892-.417.264 0 .526.084.737.251l-.002-.002-.003-.002c.273.216 4.128 3.271 7.385 7.787l.023.033.027.03c1.042 1.157 2.1 2.058 3.185 2.679 1.084.621 2.206.959 3.334.959.107 0 .215-.003.322-.009l-.043-.749.02.75c1.34-.034 2.545-.516 3.568-1.146 1.025-.632 1.885-1.418 2.555-2.118l.037-.038.029-.043c3.375-4.692 7.359-7.929 7.619-8.136l-.001.001-.004.003c.211-.167.473-.251.738-.251.352.001.68.147.893.417.166.212.25.474.25.738 0 .353-.146.681-.416.892l-.035.027-.031.03.432.435-.41-.454-.021.019.432.435-.41-.454-.148.129a52.596 52.596 0 0 0-5.223 5.303l-.01.012-1.891 2.422-.012.018c-.537.783-1.268 1.557-1.898 2.475-.629.912-1.156 2.015-1.152 3.376v7.057c.008 1.396.67 2.648 1.451 3.793.789 1.146 1.732 2.207 2.436 3.135l.01.014.01.014c.26.311.494.662.82 1.053l-.004-.006a45.371 45.371 0 0 0 5.492 5.574l.1.086.023.02.021-.025-.021.025.021-.025-.021.025.43-.482-.459.455.029.027.43-.482-.459.455.021.021.023.02.487-.572zM42.626 17.06v-.75a3.337 3.337 0 0 0-3.316 3.317 3.336 3.336 0 0 0 3.316 3.316 3.337 3.337 0 0 0 3.316-3.316 3.301 3.301 0 0 0-.98-2.365 3.32 3.32 0 0 0-2.336-.952v1.5c1 .006 1.814.774 1.816 1.817 0 .489-.203.942-.537 1.278a1.811 1.811 0 0 1-1.279.539c-.488 0-.941-.204-1.277-.539s-.539-.789-.539-1.277c0-.489.203-.942.539-1.278a1.81 1.81 0 0 1 1.277-.539v-.751z"/></symbol><symbol viewBox="0 0 60 50" id="src--sprites--Gym" xmlns="http://www.w3.org/2000/svg"><path fill="#230260" d="M56.411 20.622l-4.317-.005.006-4.522c.002-1.349-1.144-2.497-2.493-2.5l-2.969-.004c-.201.001-.472.067-.675.066l.002-.944c.001-1.35-1.144-2.498-2.495-2.5l-4.856-.006c-1.349-.002-2.499 1.144-2.499 2.494l-.012 7.825-12.194-.097.011-7.759c0-1.351-1.145-2.498-2.494-2.499l-4.857-.007c-1.351-.001-2.499 1.144-2.5 2.494l-.003.944c-.201-.068-.403-.068-.674-.069l-2.969-.003c-1.349-.002-2.497 1.144-2.5 2.492l-.006 4.522-4.317-.005c-.473-.001-.946.405-.945.877l-.01 7.083c0 .473.405.879.944.878l4.319.007-.006 4.519c-.002 1.352 1.144 2.501 2.492 2.503l2.969.002c.201 0 .473-.067.674-.067l-.002.945c-.001 1.35 1.145 2.498 2.494 2.499l4.859.006c1.349.001 2.496-1.143 2.499-2.492l.009-7.893 12.197.096-.012 7.828c-.001 1.348 1.144 2.497 2.494 2.499l4.856.007c1.351.002 2.5-1.144 2.502-2.494l.001-.945c.202.068.403.069.673.069l2.97.004c1.349.001 2.498-1.144 2.499-2.493l.006-4.521 4.318.006c.473.001.945-.404.945-.877l.01-7.016c-.066-.543-.47-.946-.944-.947zm-48.503 6.94l-3.373-.004.006-5.263 3.441.003-.007 5.264h-.067zm6.132 6.349a.678.678 0 0 1-.675.676l-2.969-.006a.674.674 0 0 1-.674-.675l.007-5.466.008-7.016.008-5.466c0-.335.271-.673.676-.673l2.969.004a.674.674 0 0 1 .672.675l-.022 17.947zm8.045-12.471l-.009 7.084-.011 8.773a.675.675 0 0 1-.675.672l-4.858-.006a.676.676 0 0 1-.674-.674l.005-3.308.022-18.015.004-3.307a.676.676 0 0 1 .676-.673l4.858.005c.337.001.674.27.674.675l-.012 8.774zm14.01 6.24l-12.196-.098.007-5.263 12.195.099-.006 5.262zm8.044-11.595l-.023 17.948-.006 3.307a.675.675 0 0 1-.676.673l-4.857-.007a.677.677 0 0 1-.674-.674l.012-8.771.01-7.018.01-8.771a.678.678 0 0 1 .676-.675l4.857.007c.338 0 .676.27.675.675l-.004 3.306zm6.065 5.474l-.01 7.086-.006 5.464a.676.676 0 0 1-.677.673l-2.968-.004a.676.676 0 0 1-.676-.673l.024-18.017a.675.675 0 0 1 .675-.673l2.969.003a.68.68 0 0 1 .676.675l-.007 5.466zm5.254 6.145l-3.44-.004.007-5.263 3.44.004-.007 5.263z"/></symbol><symbol viewBox="0 0 60 50" id="src--sprites--Martial_Arts" xmlns="http://www.w3.org/2000/svg"><path fill="#FF0062" d="M19.148 7.576l.731.167a4.014 4.014 0 0 1 4.813-3.012h.001a4.019 4.019 0 0 1 3.014 4.815l.001-.001a4.022 4.022 0 0 1-4.816 3.014 4.02 4.02 0 0 1-3.118-3.909c0-.298.034-.601.104-.905l.001-.001-.731-.168-.73-.168a5.463 5.463 0 0 0-.143 1.242A5.518 5.518 0 0 0 29.17 9.882l.001-.001a5.518 5.518 0 0 0-4.141-6.612h.001a5.516 5.516 0 0 0-6.614 4.139l.001-.001.73.169zm34.55 12.569l.721-.206a2.966 2.966 0 0 0-3.664-2.037l-14.601 4.172.004-.001a2.8 2.8 0 0 0-.444.166l-7.689 3.584.316.679.711-.239c-.508-1.501-.919-3.3-.918-5.137 0-.778.073-1.562.241-2.337l-.733-.159.092.745 5.234-.642h.001c.229-.028.448-.088.654-.171l6.771-2.776a2.564 2.564 0 0 0 1.401-3.341l-.001-.001a2.564 2.564 0 0 0-3.34-1.399l-.014.005-6.438 2.641-6.406.786.092.745.379-.647-.034-.02-.099-.058-8.431-1.941-.344.453.598.454.154-.734a2.657 2.657 0 0 0-.544-.057c-.395 0-.803.091-1.181.292l-2.068 1.099 1.341-4.482a2.563 2.563 0 0 0-1.721-3.188h-.001a2.56 2.56 0 0 0-3.186 1.721l-.023.08-3.072 10.267a2.567 2.567 0 0 0 .83 2.714h.001c.47.384 1.048.582 1.629.582l.185-.007H10.11a2.59 2.59 0 0 0 1.005-.296l-.007.004 4.604-2.442 3.867 13.521-2.526 10.973.034-.146a2.955 2.955 0 0 0 1.253 3.135l-.006-.004.004.003a2.96 2.96 0 0 0 1.64.495l.217-.008h.005a2.988 2.988 0 0 0 1.515-.555l12.308-8.928.033-.023a2.969 2.969 0 0 0 .662-4.14h-.001a2.962 2.962 0 0 0-4.139-.661l-5.939 4.307.787-3.417.792-.366.002-.001.027-.011.746-.347 4.226-1.951-.008-.015 6.799-3.165 14.388-4.113-.013.004a2.965 2.965 0 0 0 2.038-3.663h-.001l-.724.205-.722.206a1.464 1.464 0 0 1-1.004 1.809l-14.49 4.142-8.348 3.886.006.011-2.78 1.283-.697.325-.026.01-1.51.698-1.85 8.034 9.179-6.656h-.001a1.467 1.467 0 0 1 2.047.326l.014.02-.015-.02a1.467 1.467 0 0 1-.329 2.046l.03-.022-12.368 8.972h.001a1.484 1.484 0 0 1-.755.274h.002l.003-.001-.107.004c-.281 0-.562-.08-.812-.245l.006.004-.008-.005a1.457 1.457 0 0 1-.616-1.546l-.033.146 2.611-11.349-4.482-15.675-6.244 3.313.004-.002c-.13.069-.272.11-.421.123l.062.748-.054-.748-.077.003c-.243 0-.483-.082-.68-.243l.034.028-.033-.028a1.06 1.06 0 0 1-.343-1.124l3.095-10.353a1.06 1.06 0 0 1 1.322-.711l.008.002-.009-.003a1.066 1.066 0 0 1 .713 1.323l-.054.179-2.314 7.74 5.297-2.813-.061.032c.151-.08.311-.117.478-.117l.235.025.465.098.044-.059 7.374 1.698.168-.731-.379.647.034.02.219.128 6.857-.842 6.65-2.728-.015.006a1.064 1.064 0 0 1 1.386.581l-.01-.023.009.022a1.062 1.062 0 0 1-.581 1.384l-6.764 2.773h.001a1.156 1.156 0 0 1-.279.074h.004l-5.766.707-.113.521a12.603 12.603 0 0 0-.274 2.655c.001 2.059.453 4.006.996 5.617l.269.794 8.45-3.939h.001l.208-.078.005-.001 14.604-4.173h-.001a1.467 1.467 0 0 1 1.812 1.005l.041.144-.042-.145.723-.206z"/></symbol><symbol viewBox="0 0 60 50" id="src--sprites--Mind_Body" xmlns="http://www.w3.org/2000/svg"><g fill="#7A12FE"><path d="M29.897 29.986a23.154 23.154 0 0 0 0 2.189c.03-.7.034-1.435 0-2.189z"/><path d="M54.466 23.149c-.521-.145-3.307-.87-6.846-.87-.205 0-.418.003-.641.009.126-1.398.133-2.86.02-4.352-.235-3.039-.884-5.309-1.076-5.932l-.011-.032a1.095 1.095 0 0 0-1.03-.742c-.086 0-.17.01-.272.036l-.045.012c-.831.213-3.039.851-5.597 2.134a26.75 26.75 0 0 0-2.818 1.631 26.65 26.65 0 0 0-1.646-2.795c-1.949-2.893-3.866-4.644-3.876-4.652a1.084 1.084 0 0 0-1.462-.008c-.02.017-1.936 1.768-3.885 4.659a26.29 26.29 0 0 0-1.647 2.79 26.52 26.52 0 0 0-2.808-1.626c-3.125-1.567-5.652-2.15-5.66-2.151a1.096 1.096 0 0 0-1.295.745c-.191.623-.842 2.892-1.075 5.932a26.505 26.505 0 0 0 .019 4.351 24.43 24.43 0 0 0-.65-.009c-3.366 0-6.072.661-6.821.862l-.038.01c-.55.15-.889.705-.772 1.255.02.097.493 2.428 1.851 5.354 1.242 2.693 3.502 6.378 7.222 8.625 2.659 1.611 5.93 2.428 9.724 2.428 3.063 0 5.541-.535 6.562-.795.858.219 3.423.795 6.567.795 3.793 0 7.064-.816 9.723-2.428 3.693-2.232 5.966-5.922 7.222-8.625 1.238-2.672 1.755-4.911 1.846-5.333l.005-.028a1.105 1.105 0 0 0-.79-1.25zm-18.01 15.495a24.68 24.68 0 0 1-2.336-.112 30.008 30.008 0 0 0 1.683-.779c2.839-1.42 6.698-3.958 8.982-7.991.88-1.56 1.513-3.337 1.889-5.291.316-.014.636-.019.956-.019 2.26 0 4.214.332 5.242.547-.691 2.396-2.891 8.554-7.813 11.534-2.329 1.401-5.223 2.111-8.603 2.111zM12.152 24.44c.323 0 .644.007.964.02.374 1.961 1.01 3.741 1.892 5.302 2.284 4.032 6.146 6.57 8.982 7.99a32.13 32.13 0 0 0 1.659.771c-.781.073-1.56.109-2.322.109-3.397 0-6.291-.71-8.604-2.111-4.93-2.98-7.122-9.135-7.812-11.531a26.41 26.41 0 0 1 5.241-.55zm26.872 2.122c1.545-.93 3.357-1.56 5.393-1.874-.335 1.468-.846 2.812-1.52 4.004-2.264 4.005-6.434 6.438-9.43 7.749.359-.474.707-.955 1.035-1.443 1.184-1.75 2.736-4.499 3.469-7.719.36-.27.706-.507 1.053-.717zm5.76-4.116c-2.399.287-4.552.953-6.408 1.981.016-.272.023-.539.023-.803 0-2.119-.451-4.327-1.341-6.572 2.747-1.88 5.612-2.933 7.062-3.389.403 1.654 1.052 5.075.664 8.783zm-8.795 3.637c-1.455 1.23-2.761 2.775-3.893 4.606-.038-2.339-.389-4.508-1.047-6.469.242-.622.52-1.208.824-1.748.822-1.452 1.959-2.81 3.387-4.04.635 1.772.957 3.512.957 5.18.001.8-.075 1.63-.228 2.471zm-6.002-4.678a3.067 3.067 0 0 0-.09.161l-.092-.163c-1.041-1.842-2.52-3.543-4.391-5.058 1.465-2.979 3.439-5.307 4.479-6.419 1.035 1.106 3.011 3.424 4.48 6.418-1.872 1.515-3.347 3.217-4.386 5.061zm-2.068 1.067c.305.54.582 1.129.826 1.751-.66 1.966-1.011 4.136-1.049 6.475-1.132-1.831-2.44-3.38-3.904-4.616-.15-.841-.227-1.67-.227-2.469 0-1.67.324-3.412.965-5.187 1.428 1.23 2.567 2.59 3.389 4.046zm-7.163 4.079c.351.213.697.447 1.054.717.73 3.213 2.285 5.973 3.471 7.73.326.486.671.967 1.029 1.438-2.992-1.312-7.153-3.744-9.413-7.742-.675-1.195-1.185-2.543-1.519-4.017 2.037.314 3.844.943 5.378 1.874zm.628-2.927c0 .261.008.531.022.803-1.852-1.027-3.998-1.692-6.392-1.98-.391-3.718.256-7.133.658-8.783 1.449.456 4.314 1.506 7.054 3.378-.891 2.245-1.342 4.457-1.342 6.582zm8.513 6.362c.033.754.029 1.488 0 2.189-.033-.7-.036-1.435 0-2.189z"/></g></symbol><symbol viewBox="0 0 60 50" id="src--sprites--Racquet_Sports" xmlns="http://www.w3.org/2000/svg"><g fill="#FF0062"><path d="M17.101 31.887c-2.059-.879-4.047-2.203-5.798-3.953-2.981-2.983-4.726-6.65-5.134-10.17-.415-3.58.545-7.012 2.979-9.447 2.436-2.435 5.867-3.396 9.446-2.98 3.521.408 7.188 2.152 10.171 5.134 1.752 1.752 3.077 3.744 3.955 5.802.801 1.879 1.408 4.727 1.408 6.773 0 1.45-.411 1.972-.047 3.965.206 1.132.605 2.211 1.354 2.767a.743.743 0 1 1-.886 1.195c-1.007-.75-1.56-1.989-1.852-3.299a10.07 10.07 0 0 1-1.779 2.413 10.08 10.08 0 0 1-2.413 1.78c1.31.29 2.55.844 3.298 1.852a.743.743 0 1 1-1.194.886c-.556-.749-1.635-1.148-2.767-1.356-4.459-.815-4.359 1.36-10.741-1.362zm14.25-15.031c-.803-1.885-2.022-3.713-3.641-5.331-2.738-2.738-6.085-4.337-9.283-4.709-3.139-.364-6.127.459-8.223 2.555-2.097 2.096-2.919 5.085-2.555 8.223.371 3.198 1.97 6.545 4.708 9.285 1.617 1.616 3.443 2.835 5.325 3.638 2.608 1.113 7.023 1.506 9.738.231.895-.42 1.72-.99 2.444-1.715a8.674 8.674 0 0 0 1.714-2.443c1.26-2.68.907-7.074-.227-9.734z"/><path d="M35.521 30.901l-3.788 3.787-1.054-1.055 3.787-3.785z"/><path d="M30.819 33.396l3.408-3.41a1.024 1.024 0 0 1 1.448 0l9.736 9.736c.356.356.535.827.535 1.295 0 .471-.179.94-.535 1.297l-2.264 2.264a1.824 1.824 0 0 1-1.297.535c-.469 0-.939-.177-1.297-.535l-9.734-9.735a1.024 1.024 0 0 1 0-1.447zm4.133-2.024l-2.747 2.747 9.404 9.405a.341.341 0 0 0 .483 0l2.263-2.264a.345.345 0 0 0 0-.484l-9.403-9.404z"/><path d="M35.687 38.656l3.801-3.802 1.055 1.056-3.802 3.801zM53.809 23.708a6.581 6.581 0 0 1-1.933 4.667 6.582 6.582 0 0 1-4.666 1.934 6.576 6.576 0 0 1-4.667-1.934 6.581 6.581 0 0 1-1.933-4.667c0-1.822.738-3.472 1.933-4.666a6.58 6.58 0 0 1 4.667-1.933 6.58 6.58 0 0 1 4.666 1.933 6.583 6.583 0 0 1 1.933 4.666zM50.82 27.32c.925-.925 1.497-2.202 1.497-3.612s-.572-2.687-1.497-3.611a5.09 5.09 0 0 0-3.61-1.496 5.092 5.092 0 0 0-3.612 1.496c-.924.924-1.496 2.201-1.496 3.611s.572 2.688 1.496 3.612a5.091 5.091 0 0 0 3.612 1.495c1.41 0 2.686-.571 3.61-1.495z"/></g></symbol><symbol viewBox="0 0 60 50" id="src--sprites--Strength" xmlns="http://www.w3.org/2000/svg"><g fill="#230260"><path d="M28.373 23.356l.504.504 6.821-6.82a.984.984 0 0 1 1.397-.001l.002.001a.986.986 0 0 1 0 1.398l-6.819 6.82-6.82 6.821a.993.993 0 0 1-1.401-.002l.001.002a.986.986 0 0 1 0-1.399l6.819-6.821-.504-.503h-.713v.002a.713.713 0 0 0 1.216.504l-.503-.506h.713v-.002a.713.713 0 0 0-1.216-.504l-6.819 6.82a2.41 2.41 0 0 0 0 3.414l.001.002a2.415 2.415 0 0 0 3.416 0l6.819-6.821 6.819-6.82a2.404 2.404 0 0 0 .708-1.707 2.404 2.404 0 0 0-.708-1.707l.001.001a2.404 2.404 0 0 0-1.706-.709 2.416 2.416 0 0 0-1.709.708l-6.82 6.821.501.504h.713-.713z"/><path d="M47.228 6.907l.504-.503a8.626 8.626 0 0 0-6.119-2.535 8.613 8.613 0 0 0-6.117 2.536l-4.817 4.814a8.618 8.618 0 0 0-2.533 6.114c0 1.625.455 3.251 1.366 4.671a.711.711 0 0 0 1.104.119l2.509-2.508a.71.71 0 0 0 .152-.781 3.86 3.86 0 0 1-.303-1.498c0-.981.371-1.955 1.119-2.704l4.813-4.813a3.803 3.803 0 0 1 2.704-1.12 3.81 3.81 0 0 1 2.707 1.121 3.807 3.807 0 0 1 1.122 2.705 3.809 3.809 0 0 1-1.122 2.706l-4.812 4.814a3.806 3.806 0 0 1-2.703 1.119 3.86 3.86 0 0 1-1.498-.303.712.712 0 0 0-.781.152l-2.508 2.509a.71.71 0 0 0 .118 1.103 8.656 8.656 0 0 0 10.784-1.166l4.814-4.815a8.634 8.634 0 0 0 2.537-6.12 8.636 8.636 0 0 0-2.537-6.12l-.503.503-.504.504a7.189 7.189 0 0 1 2.119 5.111 7.19 7.19 0 0 1-2.119 5.112l-4.814 4.815a7.19 7.19 0 0 1-5.104 2.115 7.224 7.224 0 0 1-3.902-1.141l-.385.6.503.504 2.509-2.508-.504-.504-.277.656a5.268 5.268 0 0 0 2.053.416 5.234 5.234 0 0 0 3.711-1.536l4.812-4.814a5.24 5.24 0 0 0 1.539-3.714c.001-1.341-.515-2.69-1.539-3.713s-2.373-1.538-3.715-1.537A5.232 5.232 0 0 0 37.9 8.81l-4.814 4.813a5.24 5.24 0 0 0-1.537 3.711c0 .699.139 1.397.416 2.052l.656-.277-.504-.504-2.509 2.509.504.504.599-.385a7.223 7.223 0 0 1-1.14-3.902 7.198 7.198 0 0 1 2.115-5.106l4.817-4.814a7.197 7.197 0 0 1 5.109-2.118c1.854 0 3.699.705 5.111 2.118l.505-.504zM29.042 27.5l-.503-.504-2.509 2.51a.71.71 0 0 0-.153.78c.202.478.303.987.303 1.497a3.803 3.803 0 0 1-1.119 2.702l-4.814 4.813a3.808 3.808 0 0 1-2.704 1.121 3.816 3.816 0 0 1-2.707-1.121 3.812 3.812 0 0 1-1.121-2.705 3.81 3.81 0 0 1 1.121-2.706l4.812-4.813a3.815 3.815 0 0 1 2.704-1.12c.51 0 1.02.103 1.496.304a.714.714 0 0 0 .782-.152l2.509-2.509a.712.712 0 0 0-.119-1.104 8.644 8.644 0 0 0-4.67-1.365 8.622 8.622 0 0 0-6.114 2.531l-4.814 4.815a8.63 8.63 0 0 0-2.535 6.119 8.64 8.64 0 0 0 2.535 6.121 8.637 8.637 0 0 0 6.122 2.534 8.635 8.635 0 0 0 6.12-2.534l4.814-4.814a8.617 8.617 0 0 0 2.531-6.113 8.649 8.649 0 0 0-1.366-4.672.704.704 0 0 0-.523-.322.71.71 0 0 0-.58.203l.502.504-.6.385a7.219 7.219 0 0 1 1.142 3.902 7.195 7.195 0 0 1-2.114 5.105l-4.814 4.814c-1.414 1.414-3.26 2.117-5.113 2.117s-3.7-.703-5.114-2.117a7.202 7.202 0 0 1-2.117-5.113c0-1.853.704-3.699 2.117-5.111l4.814-4.816a7.199 7.199 0 0 1 5.107-2.113c1.358 0 2.716.38 3.901 1.14l.385-.6-.504-.503-2.51 2.508.504.504.278-.656a5.267 5.267 0 0 0-2.052-.416c-1.34 0-2.688.514-3.711 1.538l-4.812 4.813a5.235 5.235 0 0 0-1.538 3.713 5.238 5.238 0 0 0 1.538 3.713 5.24 5.24 0 0 0 3.714 1.538 5.235 5.235 0 0 0 3.712-1.538l4.814-4.814a5.228 5.228 0 0 0 1.536-3.709c0-.697-.138-1.396-.415-2.052l-.656.276.503.505 2.509-2.509-.504-.504-.6.385.6-.385z"/></g></symbol><symbol viewBox="0 0 60 50" id="src--sprites--Swimming" xmlns="http://www.w3.org/2000/svg"><g fill="#3FA9F5"><path d="M56.835 41.258c-1.242-.695-2.525-1.414-4.008-1.814a7.439 7.439 0 0 0-1.912-.248c-2.516 0-4.887 1.199-6.91 2.32-1.443.797-2.774 1.201-3.956 1.201a4.23 4.23 0 0 1-1.583-.291c-.785-.316-1.566-.746-2.395-1.201l-.018-.012c-1.697-.934-3.449-1.9-5.517-2.047a6.502 6.502 0 0 0-.482-.016c-2.283 0-4.294 1.082-6.241 2.129-.472.256-1.059.572-1.608.84a5.671 5.671 0 0 1-2.479.561 6.552 6.552 0 0 1-2.98-.746 86.946 86.946 0 0 1-.954-.506l-.035-.018c-2.066-1.107-4.205-2.25-6.563-2.25-.326 0-.656.021-.986.068-1.768.252-3.284 1.062-4.747 1.877l-.298.164a.697.697 0 0 0 .678 1.215l.001-.004.098-.055v.002c1.41-.785 2.869-1.598 4.458-1.824.264-.037.532-.055.794-.055 2.01 0 3.992 1.061 5.914 2.088l.026.014c.322.174.646.346.972.516a7.952 7.952 0 0 0 3.62.902 7.029 7.029 0 0 0 3.085-.699 44.787 44.787 0 0 0 1.663-.867c1.793-.965 3.648-1.963 5.581-1.963.128 0 .259.006.386.014 1.76.125 3.377 1.016 4.941 1.879l.018.012c.865.475 1.683.926 2.547 1.273.648.26 1.355.391 2.102.391 1.42 0 2.977-.463 4.629-1.375 1.873-1.037 4.055-2.146 6.238-2.146.531 0 1.054.068 1.551.201 1.314.355 2.521 1.031 3.688 1.686h.003a.697.697 0 0 0 .679-1.216z"/><path d="M56.835 41.258l.122-.219c-1.241-.695-2.544-1.426-4.065-1.838a7.686 7.686 0 0 0-1.977-.256c-2.596.004-5.002 1.229-7.031 2.352-1.418.783-2.711 1.17-3.835 1.17-.54 0-1.041-.094-1.489-.273-.766-.309-1.541-.732-2.367-1.188l-.121.219.132-.213-.019-.01-.005-.004-.006-.004c-1.695-.932-3.482-1.924-5.619-2.078a6.967 6.967 0 0 0-.499-.016c-2.365.002-4.414 1.113-6.36 2.16-.472.254-1.057.57-1.598.832a5.389 5.389 0 0 1-2.37.537 6.3 6.3 0 0 1-2.865-.719h-.003.002a66.925 66.925 0 0 1-.951-.504l-.037-.02-.116.223.118-.221c-2.066-1.104-4.239-2.277-6.682-2.279-.337 0-.679.023-1.021.07-1.824.26-3.368 1.092-4.833 1.906-.097.053-.198.107-.298.164h-.001.001a.95.95 0 0 0-.363 1.289.939.939 0 0 0 1.286.361l.084-.047.001-.002.013-.008-.122-.219h-.25v.426l.372-.207c1.41-.785 2.845-1.578 4.372-1.793h-.001c.252-.035.509-.053.76-.053 1.92-.004 3.875 1.027 5.796 2.059l-.001-.002.025.014v.002h.001c.323.174.648.346.975.516l.002.002h-.001a8.205 8.205 0 0 0 3.735.93 7.288 7.288 0 0 0 3.194-.725 42.902 42.902 0 0 0 1.672-.871c1.793-.969 3.618-1.936 5.462-1.934.122 0 .248.006.371.012h-.002c1.686.117 3.273.984 4.838 1.85l.121-.219-.134.211.019.012.006.004.007.004c.865.475 1.69.93 2.574 1.287a5.897 5.897 0 0 0 2.194.408c1.476 0 3.07-.479 4.75-1.406 1.866-1.037 4.02-2.117 6.117-2.115.51 0 1.012.066 1.486.193 1.273.342 2.463 1.006 3.631 1.66l.122-.217-.128.213.002.002.003.002.003.002a.95.95 0 0 0 1.287-.363l.002-.004-.002.004a.948.948 0 0 0-.364-1.289l-.122.22-.122.219c.146.08.229.234.229.391l-.057.217-.003.006.004-.006a.45.45 0 0 1-.391.229l-.217-.057-.121.217.128-.213-.003-.002-.002-.002-.004-.002c-1.168-.654-2.391-1.342-3.746-1.709a6.248 6.248 0 0 0-1.615-.209c-2.27.004-4.479 1.139-6.359 2.178-1.625.898-3.143 1.344-4.508 1.344a5.345 5.345 0 0 1-2.008-.373c-.846-.34-1.654-.785-2.52-1.262l-.121.221.134-.213-.019-.012-.006-.004-.007-.002c-1.563-.861-3.209-1.777-5.044-1.91h-.002a6.627 6.627 0 0 0-.401-.014c-2.021.004-3.905 1.031-5.699 1.992-.484.262-1.083.586-1.653.861a6.772 6.772 0 0 1-2.976.676 7.68 7.68 0 0 1-3.505-.875h.001c-.325-.168-.648-.34-.969-.514v.002l-.024-.014-.001-.002h-.001c-1.923-1.025-3.931-2.113-6.032-2.117-.274 0-.553.02-.829.057h-.001c-1.652.236-3.135 1.07-4.545 1.854l.122.219h.25v-.426l-.47.262-.085.047-.032.094.237.08-.122-.22-.216.057a.443.443 0 0 1-.39-.229l-.057-.215a.45.45 0 0 1 .229-.393l-.001.002c.097-.055.198-.109.298-.164 1.461-.814 2.948-1.605 4.661-1.85h-.001c.319-.043.638-.064.952-.064 2.275-.004 4.378 1.111 6.445 2.219l.001.002.036.018.116-.221-.118.221c.317.17.636.34.957.506l.001.002-.001-.002c.98.506 2.05.775 3.095.775.91 0 1.783-.197 2.588-.586a41.95 41.95 0 0 0 1.618-.844c1.947-1.051 3.922-2.102 6.123-2.1.154 0 .31.004.465.016h-.001c1.997.141 3.716 1.08 5.413 2.016l.121-.219-.133.213.019.012.005.004.006.002c.828.455 1.617.891 2.422 1.215a4.505 4.505 0 0 0 1.677.309c1.239 0 2.608-.422 4.076-1.232 2.019-1.121 4.356-2.291 6.79-2.289.633 0 1.252.08 1.848.24l-.002-.002c1.445.391 2.711 1.096 3.952 1.793l.121-.22zM17.91 34.742l13.794-10.85a.695.695 0 0 0 .117-.97L24.7 13.738a2.25 2.25 0 0 1-.309-2.206 2.246 2.246 0 0 1 1.748-1.38l19.047-2.843a2.218 2.218 0 0 1 1.662.415c.48.355.795.876.883 1.468s-.06 1.182-.415 1.663a2.223 2.223 0 0 1-1.47.882l-14.091 2.104a.696.696 0 0 0-.447 1.114l5.772 7.447.012.014.051.057 3.686 4.763 2.85 3.752a2.244 2.244 0 0 1-.398 3.143c-.143.111-.456.387-1.044.9-.23.203-.487.43-.761.668a.695.695 0 1 0 .916 1.046l.764-.668c.463-.406.863-.758.979-.848a3.638 3.638 0 0 0 .646-5.094l-2.851-3.752-3.7-4.781-.071-.083-5.021-6.479 12.916-1.928a3.598 3.598 0 0 0 2.381-1.431 3.6 3.6 0 0 0 .673-2.695 3.603 3.603 0 0 0-1.43-2.382 3.606 3.606 0 0 0-2.695-.673L25.934 8.777a3.646 3.646 0 0 0-2.834 2.238 3.647 3.647 0 0 0 .5 3.576l6.7 8.642-13.258 10.423a.695.695 0 1 0 .868 1.086z"/><path d="M17.91 34.742l.155.197 13.794-10.851.001-.001a.948.948 0 0 0 .158-1.319l-7.12-9.184a2.001 2.001 0 0 1-.274-1.96 1.998 1.998 0 0 1 1.552-1.226l19.047-2.843a1.967 1.967 0 0 1 1.476.369l-.003-.002.004.003a1.971 1.971 0 0 1 .806 1.602 1.983 1.983 0 0 1-.392 1.18h.001a1.971 1.971 0 0 1-1.307.784l-14.091 2.104a.946.946 0 0 0-.738.583l-.001.003v-.002a.95.95 0 0 0 .131.931l5.773 7.447.013.016.005.006.051.056 3.679 4.757 2.851 3.752a1.987 1.987 0 0 1-.355 2.791l-.003.002.002-.002c-.155.123-.465.395-1.055.91l-.76.668a.942.942 0 0 0-.09 1.334.939.939 0 0 0 .713.322c.22 0 .442-.076.621-.232l.764-.67c.461-.404.869-.762.969-.838a3.883 3.883 0 0 0 1.5-3.072c0-.83-.265-1.668-.811-2.373v.002l-2.85-3.75-3.705-4.789-.071-.083-4.756-6.136 12.494-1.865a3.852 3.852 0 0 0 2.545-1.529l.005-.006-.006.007a3.845 3.845 0 0 0 .72-2.882l-.001-.01.001.011a3.849 3.849 0 0 0-1.528-2.546 3.86 3.86 0 0 0-2.881-.719L25.897 8.53a3.898 3.898 0 0 0-3.029 2.392 3.888 3.888 0 0 0 .535 3.822l6.548 8.446-13.063 10.269-.001.002a.94.94 0 0 0-.149 1.328.951.951 0 0 0 .74.355.94.94 0 0 0 .589-.207l-.001.002-.156-.197-.156-.195a.444.444 0 0 1-.723-.347c0-.131.057-.26.167-.348L30.65 23.276l-6.852-8.838a3.39 3.39 0 0 1-.466-3.33l-.004.01.004-.01a3.398 3.398 0 0 1 2.639-2.084l19.047-2.843a3.353 3.353 0 0 1 2.51.627 3.352 3.352 0 0 1 1.331 2.217 3.35 3.35 0 0 1-.626 2.509l-.006.006.005-.006a3.349 3.349 0 0 1-2.217 1.332l-13.338 1.991 5.286 6.82.07.083 3.696 4.776 2.85 3.75.001.002c.477.615.707 1.342.707 2.066a3.373 3.373 0 0 1-1.307 2.676c-.133.105-.525.449-.992.859-.23.203-.488.43-.762.668a.448.448 0 0 1-.74-.336c0-.125.051-.246.152-.336l.762-.668v.002a36.75 36.75 0 0 1 1.033-.893l-.002.002.001-.002a2.492 2.492 0 0 0 .443-3.492l-2.851-3.752-3.691-4.771-.052-.058-.007-.008-.195.155.197-.153-5.771-7.447a.443.443 0 0 1-.094-.273l.031-.166v.001a.449.449 0 0 1 .348-.276l14.092-2.104a2.475 2.475 0 0 0 1.633-.98l-.006.009.007-.009a2.483 2.483 0 0 0-.52-3.481l.002.002-.002-.002a2.47 2.47 0 0 0-1.848-.462L26.103 9.905a2.49 2.49 0 0 0-1.599 3.986l7.12 9.184a.449.449 0 0 1 .094.272.452.452 0 0 1-.168.35l.001-.001-13.796 10.851h-.001l.156.195z"/><path d="M40.886 20.624c-.102 3.784 2.896 6.944 6.68 7.044l.186.004a6.829 6.829 0 0 0 4.783-1.944 6.834 6.834 0 0 0 2.075-4.739 6.814 6.814 0 0 0-1.881-4.906 6.828 6.828 0 0 0-4.798-2.139 6.828 6.828 0 0 0-4.969 1.941 6.824 6.824 0 0 0-2.076 4.739zm6.857-5.291l.149.002a5.44 5.44 0 0 1 3.825 1.705 5.44 5.44 0 0 1 1.5 3.912 5.44 5.44 0 0 1-5.467 5.328l-.148-.001a5.48 5.48 0 0 1-5.326-5.617 5.442 5.442 0 0 1 5.467-5.329z"/><path d="M40.886 20.624l-.25-.007-.003.192c.001 3.837 3.067 7.007 6.927 7.109l.188.004h.004a7.08 7.08 0 0 0 4.957-2.015 7.074 7.074 0 0 0 2.151-4.912l.003-.194a7.06 7.06 0 0 0-1.953-4.89 7.077 7.077 0 0 0-4.972-2.217l-.191-.002a7.075 7.075 0 0 0-4.958 2.014 7.07 7.07 0 0 0-2.152 4.912l.249.006.25.006a6.573 6.573 0 0 1 2-4.566 6.578 6.578 0 0 1 4.61-1.873l.179.002a6.578 6.578 0 0 1 4.623 2.061 6.568 6.568 0 0 1 1.814 4.546l-.003.181a6.578 6.578 0 0 1-2 4.566 6.582 6.582 0 0 1-4.608 1.874v.25l.004-.25-.185-.004h.002a6.621 6.621 0 0 1-6.439-6.609l.003-.178-.25-.006zm6.857-5.291l-.003.25.149.002.003-.25-.007.25a5.186 5.186 0 0 1 3.65 1.627 5.186 5.186 0 0 1 1.434 3.588l-.002.145a5.19 5.19 0 0 1-5.217 5.084l-.146-.001-.002.25.007-.25a5.23 5.23 0 0 1-5.085-5.22l.002-.14v-.014.014a5.19 5.19 0 0 1 5.217-5.085v-.25l-.003.25.003-.25v-.25a5.693 5.693 0 0 0-5.717 5.572l-.002.154a5.731 5.731 0 0 0 5.571 5.721h.155a5.691 5.691 0 0 0 5.717-5.571l.003-.159a5.688 5.688 0 0 0-1.57-3.932 5.69 5.69 0 0 0-4-1.783h-.002l-.15-.002h-.004v.25zM56.835 37.369c-1.242-.697-2.525-1.416-4.008-1.816a7.438 7.438 0 0 0-1.912-.246c-2.516 0-4.887 1.197-6.91 2.32-1.443.795-2.774 1.201-3.956 1.201a4.27 4.27 0 0 1-1.583-.291c-.785-.316-1.566-.746-2.395-1.203l-.018-.01c-1.697-.936-3.449-1.9-5.517-2.049a7.81 7.81 0 0 0-.482-.016c-2.283 0-4.294 1.082-6.241 2.131-.472.256-1.059.572-1.608.838a5.644 5.644 0 0 1-2.479.562 6.555 6.555 0 0 1-2.98-.748 86.946 86.946 0 0 1-.954-.506l-.035-.018c-2.066-1.105-4.205-2.25-6.563-2.25-.326 0-.656.023-.986.068-1.768.252-3.284 1.064-4.747 1.877l-.298.164a.7.7 0 0 0-.268.949.694.694 0 0 0 .946.266l.001-.002.098-.055c1.41-.785 2.869-1.598 4.458-1.824.264-.035.532-.055.794-.055 2.01 0 3.992 1.061 5.914 2.088l.026.016c.322.172.646.346.972.514a7.929 7.929 0 0 0 3.62.904 7.03 7.03 0 0 0 3.085-.701c.577-.279 1.179-.605 1.663-.865 1.793-.967 3.648-1.963 5.581-1.963.128 0 .259.004.386.012 1.76.125 3.377 1.016 4.941 1.879l.019.012c.865.477 1.683.926 2.548 1.273.646.26 1.354.391 2.101.391 1.419 0 2.977-.461 4.629-1.373 1.872-1.039 4.054-2.146 6.237-2.146.531 0 1.054.066 1.551.199 1.314.355 2.521 1.031 3.689 1.686l.002.002a.693.693 0 0 0 .945-.27.693.693 0 0 0-.266-.945z"/><path d="M56.835 37.369l.122-.219c-1.241-.695-2.544-1.428-4.065-1.838a7.68 7.68 0 0 0-1.977-.256c-2.596.002-5.002 1.227-7.031 2.352-1.418.781-2.711 1.17-3.835 1.17-.54 0-1.041-.094-1.489-.273-.766-.309-1.54-.732-2.367-1.189l-.121.219.128-.215-.019-.01-.003-.002-.004-.002c-1.695-.934-3.482-1.926-5.619-2.078h-.001a6.974 6.974 0 0 0-.499-.018c-2.365.004-4.414 1.115-6.36 2.16-.472.256-1.056.57-1.599.834a5.41 5.41 0 0 1-2.37.537 6.277 6.277 0 0 1-2.865-.721h-.001l.002.002c-.317-.166-.634-.336-.951-.506h-.002l-.037-.02-.113.223.118-.221c-2.066-1.104-4.239-2.277-6.682-2.279-.338 0-.679.023-1.02.07h-.001c-1.824.262-3.368 1.094-4.833 1.906l.122.219h.25v-.426l-.373.208c-.097.055-.197.109-.297.164h-.001a.952.952 0 0 0-.363 1.289.947.947 0 0 0 1.286.363l.084-.047v-.002l.013-.008-.121-.219h-.25v.426l.372-.207c1.41-.787 2.845-1.578 4.372-1.795h-.001c.253-.035.51-.053.761-.053 1.92-.004 3.875 1.029 5.796 2.059h-.001l.025.014h.002c.323.174.647.348.975.518a8.186 8.186 0 0 0 3.735.932 7.288 7.288 0 0 0 3.194-.725v-.002c.583-.283 1.188-.609 1.672-.869 1.793-.969 3.619-1.938 5.462-1.934.122 0 .248.004.371.012h-.002c1.686.117 3.273.982 4.838 1.848h-.002l.019.01h.001l.002.002c.865.477 1.691.932 2.574 1.287.68.271 1.418.408 2.194.408 1.475 0 3.071-.479 4.749-1.404 1.867-1.039 4.02-2.119 6.117-2.115.511 0 1.011.064 1.486.191 1.273.344 2.464 1.008 3.631 1.662l.021.012.025.008.078-.236-.122.217a.949.949 0 0 0 1.286-.363l.004-.008-.004.008a.945.945 0 0 0-.364-1.287l-.122.217-.122.217a.45.45 0 0 1 .229.393l-.056.215-.005.008.004-.008a.447.447 0 0 1-.39.229l-.215-.057-.021-.012-.025-.008-.078.236.121-.219c-1.167-.652-2.391-1.342-3.746-1.707a6.157 6.157 0 0 0-1.615-.209c-2.27.002-4.479 1.137-6.358 2.178-1.626.896-3.144 1.344-4.508 1.342a5.345 5.345 0 0 1-2.008-.373c-.847-.34-1.655-.783-2.521-1.26l-.12.219.123-.219-.019-.01-.002-.002h-.001c-1.563-.861-3.209-1.777-5.044-1.91h-.002a6.636 6.636 0 0 0-.401-.012c-2.021.002-3.905 1.029-5.699 1.992-.484.262-1.083.584-1.653.861a6.772 6.772 0 0 1-2.976.676 7.706 7.706 0 0 1-3.505-.875c-.324-.17-.647-.342-.969-.514h.001l-.025-.014h-.001l-.001-.002c-1.923-1.023-3.931-2.113-6.032-2.117-.274 0-.553.02-.828.057h-.002c-1.652.238-3.135 1.07-4.545 1.855l.122.217h.25v-.424l-.469.26-.086.048-.032.096.237.078-.122-.217-.216.057a.444.444 0 0 1-.389-.229l-.057-.217c0-.156.083-.311.229-.393l-.123-.217.121.219.3-.164-.122-.219h-.25v.426l.372-.207c1.461-.812 2.948-1.605 4.66-1.848h-.002c.319-.045.639-.066.953-.066 2.275-.002 4.378 1.111 6.445 2.221l.002.002.037.018.113-.223-.118.221c.316.17.636.34.957.508h.001-.001c.98.506 2.05.775 3.095.775a5.88 5.88 0 0 0 2.588-.588c.556-.27 1.146-.588 1.618-.842 1.947-1.051 3.922-2.104 6.123-2.102.154 0 .31.006.465.016h-.001c1.997.141 3.716 1.08 5.413 2.018l.121-.219-.129.215.019.01.004.002.003.004c.828.455 1.617.889 2.422 1.213a4.467 4.467 0 0 0 1.677.311c1.239-.002 2.608-.424 4.076-1.232 2.019-1.121 4.356-2.293 6.79-2.289.632 0 1.252.08 1.848.238 1.443.389 2.709 1.096 3.95 1.791l.121-.218z"/></g></symbol><symbol viewBox="0 0 60 50" id="src--sprites--Yoga" xmlns="http://www.w3.org/2000/svg"><g fill="#7A12FE"><path d="M29.897 29.986a23.154 23.154 0 0 0 0 2.189c.03-.7.034-1.435 0-2.189z"/><path d="M54.466 23.149c-.521-.145-3.307-.87-6.846-.87-.205 0-.418.003-.641.009.126-1.398.133-2.86.02-4.352-.235-3.039-.884-5.309-1.076-5.932l-.011-.032a1.095 1.095 0 0 0-1.03-.742c-.086 0-.17.01-.272.036l-.045.012c-.831.213-3.039.851-5.597 2.134a26.75 26.75 0 0 0-2.818 1.631 26.65 26.65 0 0 0-1.646-2.795c-1.949-2.893-3.866-4.644-3.876-4.652a1.084 1.084 0 0 0-1.462-.008c-.02.017-1.936 1.768-3.885 4.659a26.29 26.29 0 0 0-1.647 2.79 26.52 26.52 0 0 0-2.808-1.626c-3.125-1.567-5.652-2.15-5.66-2.151a1.096 1.096 0 0 0-1.295.745c-.191.623-.842 2.892-1.075 5.932a26.505 26.505 0 0 0 .019 4.351 24.43 24.43 0 0 0-.65-.009c-3.366 0-6.072.661-6.821.862l-.038.01c-.55.15-.889.705-.772 1.255.02.097.493 2.428 1.851 5.354 1.242 2.693 3.502 6.378 7.222 8.625 2.659 1.611 5.93 2.428 9.724 2.428 3.063 0 5.541-.535 6.562-.795.858.219 3.423.795 6.567.795 3.793 0 7.064-.816 9.723-2.428 3.693-2.232 5.966-5.922 7.222-8.625 1.238-2.672 1.755-4.911 1.846-5.333l.005-.028a1.105 1.105 0 0 0-.79-1.25zm-18.01 15.495a24.68 24.68 0 0 1-2.336-.112 30.008 30.008 0 0 0 1.683-.779c2.839-1.42 6.698-3.958 8.982-7.991.88-1.56 1.513-3.337 1.889-5.291.316-.014.636-.019.956-.019 2.26 0 4.214.332 5.242.547-.691 2.396-2.891 8.554-7.813 11.534-2.329 1.401-5.223 2.111-8.603 2.111zM12.152 24.44c.323 0 .644.007.964.02.374 1.961 1.01 3.741 1.892 5.302 2.284 4.032 6.146 6.57 8.982 7.99a32.13 32.13 0 0 0 1.659.771c-.781.073-1.56.109-2.322.109-3.397 0-6.291-.71-8.604-2.111-4.93-2.98-7.122-9.135-7.812-11.531a26.41 26.41 0 0 1 5.241-.55zm26.872 2.122c1.545-.93 3.357-1.56 5.393-1.874-.335 1.468-.846 2.812-1.52 4.004-2.264 4.005-6.434 6.438-9.43 7.749.359-.474.707-.955 1.035-1.443 1.184-1.75 2.736-4.499 3.469-7.719.36-.27.706-.507 1.053-.717zm5.76-4.116c-2.399.287-4.552.953-6.408 1.981.016-.272.023-.539.023-.803 0-2.119-.451-4.327-1.341-6.572 2.747-1.88 5.612-2.933 7.062-3.389.403 1.654 1.052 5.075.664 8.783zm-8.795 3.637c-1.455 1.23-2.761 2.775-3.893 4.606-.038-2.339-.389-4.508-1.047-6.469.242-.622.52-1.208.824-1.748.822-1.452 1.959-2.81 3.387-4.04.635 1.772.957 3.512.957 5.18.001.8-.075 1.63-.228 2.471zm-6.002-4.678a3.067 3.067 0 0 0-.09.161l-.092-.163c-1.041-1.842-2.52-3.543-4.391-5.058 1.465-2.979 3.439-5.307 4.479-6.419 1.035 1.106 3.011 3.424 4.48 6.418-1.872 1.515-3.347 3.217-4.386 5.061zm-2.068 1.067c.305.54.582 1.129.826 1.751-.66 1.966-1.011 4.136-1.049 6.475-1.132-1.831-2.44-3.38-3.904-4.616-.15-.841-.227-1.67-.227-2.469 0-1.67.324-3.412.965-5.187 1.428 1.23 2.567 2.59 3.389 4.046zm-7.163 4.079c.351.213.697.447 1.054.717.73 3.213 2.285 5.973 3.471 7.73.326.486.671.967 1.029 1.438-2.992-1.312-7.153-3.744-9.413-7.742-.675-1.195-1.185-2.543-1.519-4.017 2.037.314 3.844.943 5.378 1.874zm.628-2.927c0 .261.008.531.022.803-1.852-1.027-3.998-1.692-6.392-1.98-.391-3.718.256-7.133.658-8.783 1.449.456 4.314 1.506 7.054 3.378-.891 2.245-1.342 4.457-1.342 6.582zm8.513 6.362c.033.754.029 1.488 0 2.189-.033-.7-.036-1.435 0-2.189z"/></g></symbol><symbol viewBox="-0.5 3.834 20 9.833" id="src--sprites--any" xmlns="http://www.w3.org/2000/svg"><title>Navigation - Close</title><path fill="#173C6C" d="M7.122 9.112c.07.187.008.278-.187.278h-.522c-.34 0-.451-.055-.513-.257l-.215-.654H3.969l-.222.654c-.077.201-.167.257-.508.257H2.76c-.194 0-.257-.09-.187-.278l1.66-4.418c.063-.188.146-.236.347-.236h.534c.202 0 .286.048.348.222l1.66 4.432zm-2.09-2.626a4.219 4.219 0 0 1-.168-.862l-.006-.131h-.07c.008.327-.048.66-.159.986l-.361 1.084h1.125l-.361-1.077zM11.224 4.458c.215 0 .277.07.277.286v4.362c0 .216-.062.285-.277.285h-.562c-.133 0-.223-.042-.278-.132l-1.362-2.07a4.54 4.54 0 0 1-.584-1.3h-.049c.132.625.194 1.146.194 1.556v1.66c0 .216-.069.285-.284.285h-.515c-.215 0-.285-.069-.285-.285V4.743c0-.216.07-.286.285-.286h.576c.119 0 .209.042.271.132l1.39 2.104c.167.25.318.577.396.757.076.181.167.466.174.486h.057a5.05 5.05 0 0 1-.223-1.536V4.743c0-.216.068-.286.284-.286h.515zM16.297 4.458c.201 0 .249.125.146.286l-1.632 2.729v1.632c0 .216-.07.285-.286.285h-.562c-.215 0-.285-.069-.285-.285V7.458l-1.633-2.715c-.103-.16-.054-.286.147-.286h.646c.181 0 .306.014.368.035.063.028.117.097.181.215l.868 1.619.882-1.619c.063-.118.133-.188.195-.215.062-.021.18-.035.36-.035h.605zM2.938 13.029c.043.117.004.174-.117.174h-.328c-.214 0-.283-.034-.324-.16l-.135-.411H.956l-.14.411c-.048.126-.105.16-.319.16H.196c-.123 0-.162-.057-.118-.174l1.043-2.777c.04-.119.092-.149.218-.149h.337c.127 0 .178.03.219.14l1.043 2.786zm-1.314-1.65a2.676 2.676 0 0 1-.105-.543l-.004-.082h-.044c.005.205-.03.414-.1.62l-.227.681h.707l-.227-.676zM3.001 11.212c0-.733.472-1.175 1.289-1.175.637 0 1.043.245 1.223.733.043.109.008.188-.109.228l-.336.117c-.127.041-.18.019-.228-.108-.083-.214-.267-.319-.55-.319-.385 0-.577.176-.577.521v.891c0 .345.192.52.577.52.283 0 .467-.104.55-.318.048-.127.104-.157.228-.109l.336.117c.117.04.152.119.109.228-.18.489-.586.734-1.223.734-.817 0-1.289-.441-1.289-1.176v-.884zM7.938 10.103c.135 0 .178.044.178.18v.292c0 .135-.043.176-.178.176h-.681v2.274c0 .136-.044.179-.18.179h-.353c-.135 0-.174-.043-.174-.179V10.75h-.686c-.137 0-.18-.041-.18-.176v-.292c0-.136.043-.18.18-.18h2.074zM8.438 10.277c0-.127.04-.175.175-.175h.363c.126 0 .174.048.174.175v2.752c0 .126-.048.174-.174.174h-.364c-.135 0-.175-.048-.175-.174v-2.752zM12.196 10.103c.118 0 .157.058.114.175l-.995 2.778c-.041.117-.098.147-.22.147h-.354c-.126 0-.179-.03-.218-.14l-1-2.786c-.043-.117-.003-.174.119-.174h.328c.223 0 .283.035.322.162l.512 1.629c.039.14.082.34.101.445l.009.078h.035c.021-.188.061-.357.108-.52l.502-1.633c.039-.127.105-.162.318-.162h.319zM12.547 10.277c0-.127.04-.175.176-.175h.362c.127 0 .175.048.175.175v2.752c0 .126-.048.174-.175.174h-.362c-.136 0-.176-.048-.176-.174v-2.752zM15.835 10.103c.136 0 .179.044.179.18v.292c0 .135-.043.176-.179.176h-.682v2.274c0 .136-.043.179-.18.179h-.353c-.136 0-.176-.043-.176-.179V10.75h-.685c-.136 0-.179-.041-.179-.176v-.292c0-.136.043-.18.179-.18h2.076zM18.815 10.103c.126 0 .157.079.092.18l-1.026 1.716v1.026c0 .136-.044.179-.179.179h-.354c-.136 0-.18-.043-.18-.179V11.99l-1.026-1.707c-.065-.101-.035-.18.092-.18h.406a.86.86 0 0 1 .231.022c.039.018.074.061.113.135l.546 1.018.555-1.018a.293.293 0 0 1 .122-.135.784.784 0 0 1 .228-.022h.38z"/></symbol><symbol viewBox="0 0 841.9 595.3" id="src--sprites--logo" xmlns="http://www.w3.org/2000/svg"><g fill="#61DAFB"><path d="M666.3 296.5c0-32.5-40.7-63.3-103.1-82.4 14.4-63.6 8-114.2-20.2-130.4-6.5-3.8-14.1-5.6-22.4-5.6v22.3c4.6 0 8.3.9 11.4 2.6 13.6 7.8 19.5 37.5 14.9 75.7-1.1 9.4-2.9 19.3-5.1 29.4-19.6-4.8-41-8.5-63.5-10.9-13.5-18.5-27.5-35.3-41.6-50 32.6-30.3 63.2-46.9 84-46.9V78c-27.5 0-63.5 19.6-99.9 53.6-36.4-33.8-72.4-53.2-99.9-53.2v22.3c20.7 0 51.4 16.5 84 46.6-14 14.7-28 31.4-41.3 49.9-22.6 2.4-44 6.1-63.6 11-2.3-10-4-19.7-5.2-29-4.7-38.2 1.1-67.9 14.6-75.8 3-1.8 6.9-2.6 11.5-2.6V78.5c-8.4 0-16 1.8-22.6 5.6-28.1 16.2-34.4 66.7-19.9 130.1-62.2 19.2-102.7 49.9-102.7 82.3 0 32.5 40.7 63.3 103.1 82.4-14.4 63.6-8 114.2 20.2 130.4 6.5 3.8 14.1 5.6 22.5 5.6 27.5 0 63.5-19.6 99.9-53.6 36.4 33.8 72.4 53.2 99.9 53.2 8.4 0 16-1.8 22.6-5.6 28.1-16.2 34.4-66.7 19.9-130.1 62-19.1 102.5-49.9 102.5-82.3zm-130.2-66.7c-3.7 12.9-8.3 26.2-13.5 39.5-4.1-8-8.4-16-13.1-24-4.6-8-9.5-15.8-14.4-23.4 14.2 2.1 27.9 4.7 41 7.9zm-45.8 106.5c-7.8 13.5-15.8 26.3-24.1 38.2-14.9 1.3-30 2-45.2 2-15.1 0-30.2-.7-45-1.9-8.3-11.9-16.4-24.6-24.2-38-7.6-13.1-14.5-26.4-20.8-39.8 6.2-13.4 13.2-26.8 20.7-39.9 7.8-13.5 15.8-26.3 24.1-38.2 14.9-1.3 30-2 45.2-2 15.1 0 30.2.7 45 1.9 8.3 11.9 16.4 24.6 24.2 38 7.6 13.1 14.5 26.4 20.8 39.8-6.3 13.4-13.2 26.8-20.7 39.9zm32.3-13c5.4 13.4 10 26.8 13.8 39.8-13.1 3.2-26.9 5.9-41.2 8 4.9-7.7 9.8-15.6 14.4-23.7 4.6-8 8.9-16.1 13-24.1zM421.2 430c-9.3-9.6-18.6-20.3-27.8-32 9 .4 18.2.7 27.5.7 9.4 0 18.7-.2 27.8-.7-9 11.7-18.3 22.4-27.5 32zm-74.4-58.9c-14.2-2.1-27.9-4.7-41-7.9 3.7-12.9 8.3-26.2 13.5-39.5 4.1 8 8.4 16 13.1 24 4.7 8 9.5 15.8 14.4 23.4zM420.7 163c9.3 9.6 18.6 20.3 27.8 32-9-.4-18.2-.7-27.5-.7-9.4 0-18.7.2-27.8.7 9-11.7 18.3-22.4 27.5-32zm-74 58.9c-4.9 7.7-9.8 15.6-14.4 23.7-4.6 8-8.9 16-13 24-5.4-13.4-10-26.8-13.8-39.8 13.1-3.1 26.9-5.8 41.2-7.9zm-90.5 125.2c-35.4-15.1-58.3-34.9-58.3-50.6 0-15.7 22.9-35.6 58.3-50.6 8.6-3.7 18-7 27.7-10.1 5.7 19.6 13.2 40 22.5 60.9-9.2 20.8-16.6 41.1-22.2 60.6-9.9-3.1-19.3-6.5-28-10.2zM310 490c-13.6-7.8-19.5-37.5-14.9-75.7 1.1-9.4 2.9-19.3 5.1-29.4 19.6 4.8 41 8.5 63.5 10.9 13.5 18.5 27.5 35.3 41.6 50-32.6 30.3-63.2 46.9-84 46.9-4.5-.1-8.3-1-11.3-2.7zm237.2-76.2c4.7 38.2-1.1 67.9-14.6 75.8-3 1.8-6.9 2.6-11.5 2.6-20.7 0-51.4-16.5-84-46.6 14-14.7 28-31.4 41.3-49.9 22.6-2.4 44-6.1 63.6-11 2.3 10.1 4.1 19.8 5.2 29.1zm38.5-66.7c-8.6 3.7-18 7-27.7 10.1-5.7-19.6-13.2-40-22.5-60.9 9.2-20.8 16.6-41.1 22.2-60.6 9.9 3.1 19.3 6.5 28.1 10.2 35.4 15.1 58.3 34.9 58.3 50.6-.1 15.7-23 35.6-58.4 50.6zM320.8 78.4z"/><circle cx="420.9" cy="296.5" r="45.7"/></g></symbol><symbol viewBox="-0.5 -0.5 20 20" id="src--sprites--navigation-close" xmlns="http://www.w3.org/2000/svg"><title>Navigation - Close</title><path fill="#1B1A43" stroke="#1B1A43" stroke-width="1.5" stroke-linecap="round" stroke-linejoin="round" d="M10.763 9.5l4.84-4.841-1.263-1.263-4.841 4.841-4.841-4.841-1.262 1.263L8.237 9.5l-4.841 4.841 1.262 1.263 4.841-4.841 4.842 4.841 1.263-1.263L10.763 9.5z"/></symbol><symbol viewBox="-0.5 -0.5 20 20" id="src--sprites--navigation-close-white" xmlns="http://www.w3.org/2000/svg"><title>Navigation - Close</title><path fill="#FFF" stroke="#FFF" stroke-width="1.5" stroke-linecap="round" stroke-linejoin="round" d="M10.763 9.5l4.84-4.841-1.263-1.263-4.841 4.841-4.841-4.841-1.262 1.263L8.237 9.5l-4.841 4.841 1.262 1.263 4.841-4.841 4.842 4.841 1.263-1.263L10.763 9.5z"/></symbol><symbol viewBox="0 1 12 12" id="src--sprites--star-rating-empty" xmlns="http://www.w3.org/2000/svg"><title>Star</title><path fill="#F2F4F8" d="M6 10.95L2.292 13 3 8.658 0 5.583l4.146-.633L6 1l1.854 3.95L12 5.583 9 8.658 9.708 13z"/></symbol><symbol viewBox="0 1 12 12" id="src--sprites--star-rating-full" xmlns="http://www.w3.org/2000/svg"><title>Star</title><path fill="#F5A623" d="M6 10.95L2.292 13 3 8.658 0 5.583l4.146-.633L6 1l1.854 3.95L12 5.583 9 8.658 9.708 13z"/></symbol><symbol viewBox="0 1 12 12" id="src--sprites--star-rating-half" xmlns="http://www.w3.org/2000/svg"><title>Star</title><path fill="#F5A623" d="M6 10.95L2.292 13 3 8.658 0 5.583l4.146-.633L6 1l1.854 3.95L12 5.583 9 8.658 9.708 13z"/><path fill="#F2F4F8" d="M6 1l1.854 3.95L12 5.583 9 8.658 9.708 13 6 10.95"/></symbol></svg>