<?xml version="1.0" encoding="utf-8"?>
<!-- Generator: Adobe Illustrator 15.0.0, SVG Export Plug-In . SVG Version: 6.00 Build 0)  -->
<!DOCTYPE svg PUBLIC "-//W3C//DTD SVG 1.1//EN" "http://www.w3.org/Graphics/SVG/1.1/DTD/svg11.dtd">
<svg version="1.1" id="Layer_1" xmlns="http://www.w3.org/2000/svg" xmlns:xlink="http://www.w3.org/1999/xlink" x="0px" y="0px"
	 width="60px" height="60px" viewBox="0 -5 60 60" enable-background="new 0 -5 60 60" xml:space="preserve">
<g>
	<path fill="#FFFFFF" d="M28.437,23.42l0.687,0.687l9.294-9.292c0.268-0.266,0.608-0.395,0.954-0.395
		c0.349,0,0.684,0.127,0.95,0.394l0.003,0.001c0.263,0.266,0.393,0.605,0.393,0.953s-0.13,0.687-0.393,0.952l-9.292,9.292
		l-9.292,9.294c-0.265,0.262-0.604,0.392-0.954,0.396c-0.349-0.004-0.688-0.134-0.955-0.398l0.001,0.003
		c-0.266-0.269-0.394-0.606-0.395-0.955c0.001-0.349,0.129-0.687,0.395-0.952l9.291-9.293L28.437,23.42h-0.972v0.002
		c0,0.393,0.237,0.747,0.6,0.897c0.362,0.151,0.78,0.066,1.057-0.21L28.437,23.42h0.972v-0.003c0-0.392-0.237-0.746-0.6-0.896
		c-0.363-0.15-0.78-0.067-1.057,0.21l-9.292,9.292c-0.64,0.642-0.964,1.488-0.963,2.326c-0.001,0.84,0.321,1.687,0.963,2.326
		l0.001,0.002c0.641,0.642,1.488,0.964,2.327,0.964s1.688-0.322,2.327-0.964l9.292-9.292l9.29-9.294
		c0.643-0.639,0.965-1.486,0.965-2.325c0-0.839-0.322-1.687-0.965-2.325l0.002,0.001c-0.638-0.642-1.487-0.967-2.325-0.966
		c-0.838-0.001-1.687,0.324-2.329,0.965l-9.292,9.293L28.437,23.42h0.972H28.437z"/>
	<path fill="#FFFFFF" d="M54.127,1.008l0.688-0.686c-2.301-2.301-5.322-3.455-8.338-3.454c-3.016-0.001-6.038,1.152-8.335,3.456
		L31.58,6.883c-2.301,2.299-3.454,5.318-3.453,8.33c0,2.214,0.62,4.43,1.861,6.364c0.16,0.25,0.42,0.411,0.713,0.442
		s0.581-0.07,0.792-0.279l3.418-3.417c0.279-0.279,0.361-0.701,0.207-1.064c-0.274-0.65-0.412-1.345-0.412-2.041
		c0-1.336,0.505-2.664,1.523-3.685l6.559-6.558c1.017-1.019,2.348-1.525,3.683-1.525c1.339,0,2.667,0.506,3.688,1.527
		c1.022,1.02,1.528,2.349,1.53,3.686c-0.002,1.337-0.508,2.667-1.53,3.687l-6.556,6.559c-1.018,1.018-2.344,1.524-3.683,1.525
		c-0.696,0-1.391-0.139-2.04-0.413c-0.366-0.154-0.785-0.072-1.064,0.208l-3.417,3.418c-0.21,0.208-0.312,0.498-0.278,0.791
		c0.028,0.292,0.192,0.553,0.438,0.713c1.938,1.241,4.154,1.862,6.368,1.862c3.01,0,6.03-1.151,8.326-3.452L54.811,17
		c2.303-2.3,3.457-5.324,3.457-8.339c0-3.014-1.154-6.039-3.457-8.338L54.127,1.008L53.44,1.695c1.93,1.927,2.886,4.439,2.886,6.963
		c0,2.525-0.956,5.039-2.886,6.965l-6.56,6.562c-1.925,1.923-4.434,2.88-6.954,2.881c-1.851,0-3.702-0.519-5.316-1.554l-0.524,0.817
		l0.684,0.687l3.42-3.417l-0.687-0.687l-0.378,0.894c0.892,0.378,1.845,0.567,2.797,0.567c1.828,0,3.663-0.697,5.057-2.093
		l6.557-6.559c1.395-1.395,2.099-3.231,2.098-5.06c0.001-1.827-0.703-3.665-2.098-5.059c-1.396-1.394-3.233-2.095-5.062-2.094
		c-1.827-0.001-3.665,0.7-5.056,2.094l-6.56,6.558c-1.395,1.395-2.095,3.231-2.095,5.056c0,0.952,0.188,1.903,0.566,2.795
		l0.895-0.377l-0.687-0.687l-3.42,3.419l0.688,0.687l0.816-0.525c-1.036-1.614-1.554-3.465-1.554-5.316
		c0.001-2.522,0.959-5.031,2.882-6.957l6.563-6.559c1.924-1.926,4.438-2.885,6.96-2.886c2.526,0,5.04,0.96,6.965,2.886L54.127,1.008
		z"/>
	<path fill="#FFFFFF" d="M29.348,29.066l-0.685-0.687l-3.419,3.42c-0.28,0.276-0.36,0.697-0.208,1.062
		c0.275,0.65,0.413,1.346,0.413,2.04c-0.001,1.339-0.505,2.661-1.524,3.681l-6.56,6.559c-1.02,1.021-2.348,1.525-3.684,1.526
		c-1.336-0.001-2.667-0.506-3.688-1.526c-1.021-1.021-1.526-2.351-1.528-3.687c0.002-1.337,0.507-2.667,1.528-3.687l6.556-6.558
		c1.021-1.02,2.348-1.523,3.685-1.526c0.695,0,1.39,0.14,2.039,0.414c0.364,0.154,0.784,0.072,1.065-0.207l3.419-3.417
		c0.208-0.21,0.311-0.498,0.279-0.793c-0.032-0.293-0.192-0.553-0.442-0.712c-1.934-1.241-4.15-1.862-6.362-1.86
		c-3.011-0.001-6.032,1.15-8.331,3.449L5.34,33.119c-2.3,2.299-3.455,5.32-3.453,8.336c0,3.017,1.153,6.04,3.453,8.341
		c2.301,2.3,5.326,3.453,8.341,3.452c3.016,0.001,6.039-1.155,8.339-3.452l6.559-6.559c2.298-2.302,3.453-5.319,3.448-8.33
		c0-2.214-0.618-4.431-1.86-6.365c-0.16-0.247-0.421-0.41-0.713-0.439c-0.293-0.031-0.582,0.069-0.79,0.277L29.348,29.066
		l-0.817,0.524c1.037,1.615,1.556,3.464,1.556,5.316c-0.002,2.521-0.958,5.033-2.881,6.956l-6.56,6.559
		c-1.926,1.927-4.441,2.885-6.966,2.885c-2.525,0-5.042-0.958-6.968-2.885c-1.925-1.927-2.884-4.442-2.884-6.967
		c0-2.523,0.959-5.038,2.884-6.963l6.559-6.562c1.924-1.921,4.436-2.879,6.958-2.879c1.85,0,3.7,0.518,5.315,1.554l0.524-0.817
		l-0.687-0.686l-3.42,3.417l0.687,0.687l0.379-0.894c-0.891-0.377-1.845-0.565-2.796-0.565c-1.826,0-3.663,0.7-5.056,2.096
		L8.62,36.398c-1.395,1.395-2.097,3.23-2.096,5.058c-0.001,1.828,0.701,3.665,2.096,5.059c1.395,1.396,3.233,2.098,5.061,2.097
		c1.827,0.001,3.664-0.7,5.057-2.097l6.559-6.558c1.395-1.391,2.095-3.228,2.093-5.054c0-0.95-0.188-1.901-0.565-2.796l-0.894,0.376
		l0.685,0.688l3.418-3.419L29.348,29.066l-0.817,0.524L29.348,29.066z"/>
</g>
</svg>
