<?xml version="1.0" encoding="utf-8"?>
<!-- Generator: Adobe Illustrator 15.0.0, SVG Export Plug-In . SVG Version: 6.00 Build 0)  -->
<!DOCTYPE svg PUBLIC "-//W3C//DTD SVG 1.1//EN" "http://www.w3.org/Graphics/SVG/1.1/DTD/svg11.dtd">
<svg version="1.1" id="Layer_1" xmlns="http://www.w3.org/2000/svg" xmlns:xlink="http://www.w3.org/1999/xlink" x="0px" y="0px"
	 width="382px" height="382px" viewBox="-161.5 -166.5 382 382" enable-background="new -161.5 -166.5 382 382"
	 xml:space="preserve">
<g>
	<path fill="#FFFFFF" d="M-93.461-120.84c1.516,3.738,3.801,7.252,6.812,10.262c0.307,0.306,0.635,0.574,0.974,0.824
		c0.379,0.691,0.856,1.344,1.442,1.93L4.406-19.199c1.383,1.385,2.395,2.949,3.078,4.631c0.682,1.68,1.025,3.477,1.025,5.275
		c0,1.798-0.344,3.592-1.023,5.27C6.805-2.346,5.795-0.783,4.413,0.6L4.368,0.646l-61.925,62.891
		c-3.294,3.345-3.252,8.728,0.093,12.021c3.345,3.294,8.728,3.252,12.021-0.093l61.925-62.891l-0.046,0.046
		c3.01-3.008,5.292-6.52,6.806-10.256c1.515-3.737,2.269-7.699,2.269-11.656c0-3.961-0.755-7.926-2.271-11.665
		c-1.516-3.739-3.801-7.253-6.812-10.263l-88.64-88.625c-0.307-0.306-0.635-0.574-0.974-0.824c-0.379-0.691-0.856-1.344-1.442-1.93
		c-1.384-1.386-2.396-2.951-3.079-4.631c-0.579-1.428-0.899-2.939-0.987-4.465c0.127-0.582,0.197-1.186,0.197-1.807
		c0-0.914,0.094-1.797,0.257-2.651c0.147-0.549,0.316-1.093,0.531-1.622c0.682-1.679,1.691-3.24,3.073-4.623
		c0.654-0.654,1.174-1.391,1.57-2.173c0.242-0.188,0.49-0.372,0.746-0.544c2.245-1.511,4.893-2.383,7.822-2.387L92-147.5
		c1.957,0.001,3.776,0.392,5.447,1.097c2.5,1.056,4.656,2.843,6.167,5.081c1.511,2.245,2.382,4.894,2.386,7.822
		c-0.001,1.957-0.392,3.776-1.097,5.447c-1.056,2.501-2.843,4.656-5.082,6.167c-2.244,1.511-4.893,2.382-7.821,2.386H-6.5
		c-2.714,0-5.125,1.276-6.682,3.257c-0.267,0.21-0.527,0.432-0.773,0.678c-3.319,3.319-3.319,8.701,0.001,12.021l149.36,149.346
		c1.383,1.385,2.395,2.949,3.078,4.631c0.682,1.68,1.025,3.476,1.025,5.274s-0.344,3.594-1.023,5.271
		c-0.682,1.678-1.691,3.24-3.072,4.623c-3.319,3.32-3.319,8.702,0.001,12.021c3.319,3.318,8.7,3.318,12.021-0.002
		c3.01-3.008,5.293-6.521,6.806-10.257c1.515-3.737,2.269-7.699,2.269-11.656c0-3.962-0.756-7.926-2.272-11.665
		c-1.515-3.738-3.8-7.252-6.811-10.261L11.133-102.5H92c4.257,0.001,8.355-0.867,12.069-2.439
		c5.574-2.359,10.29-6.279,13.632-11.223c3.341-4.938,5.303-10.947,5.299-17.338c0.001-4.257-0.867-8.355-2.439-12.069
		c-2.359-5.573-6.279-10.29-11.223-13.632c-4.937-3.341-10.947-5.303-17.338-5.299l-156.498-0.002
		c-4.257-0.001-8.356,0.868-12.069,2.439c-5.574,2.36-10.29,6.279-13.632,11.223c-2.142,3.165-3.707,6.774-4.561,10.639
		c-0.646,2.525-0.974,5.111-0.974,7.695C-95.733-128.544-94.979-124.58-93.461-120.84z"/>
	<path fill="#FFFFFF" d="M103.679-90.451C96.941-80.486,92.996-68.416,93-55.5c-0.002,8.605,1.749,16.848,4.915,24.33
		c4.751,11.227,12.664,20.753,22.634,27.49C130.514,3.059,142.585,7.003,155.5,7c8.605,0,16.848-1.75,24.33-4.916
		c11.228-4.75,20.753-12.664,27.49-22.635c6.738-9.964,10.684-22.035,10.68-34.949c0.001-8.606-1.749-16.85-4.915-24.331
		c-4.751-11.228-12.664-20.753-22.635-27.491c-9.965-6.737-22.036-10.682-34.95-10.678c-8.605-0.002-16.85,1.748-24.33,4.914
		C119.942-108.335,110.416-100.422,103.679-90.451z M130.066-93.234c7.272-4.908,15.98-7.763,25.434-7.766
		c6.306,0,12.269,1.272,17.708,3.572c8.154,3.446,15.118,9.227,20.026,16.494c4.907,7.271,7.762,15.98,7.766,25.434
		c-0.002,6.305-1.273,12.269-3.572,17.707c-3.447,8.154-9.229,15.119-16.494,20.027c-7.272,4.906-15.98,7.762-25.434,7.766
		c-6.306-0.002-12.27-1.273-17.708-3.572c-8.154-3.447-15.119-9.229-20.026-16.494c-4.907-7.272-7.762-15.981-7.766-25.434
		c0.001-6.307,1.273-12.27,3.572-17.709C117.02-81.363,122.8-88.328,130.066-93.234z"/>
	<path fill="#FFFFFF" d="M205.719,97.889L205.719,97.889l-0.021,0.009l0,0c-0.255,0.124-3.952,1.898-9.879,3.63
		c-6.03,1.768-14.349,3.477-23.653,3.473c-4.803,0-9.868-0.45-15.052-1.562c-5.186-1.111-10.489-2.88-15.813-5.541
		c-6.676-3.339-13.372-5.571-19.854-6.959c-6.482-1.39-12.75-1.938-18.614-1.938c-11.731,0.004-21.847,2.184-29.109,4.358
		c-7.218,2.167-11.628,4.342-12.015,4.534v-0.001c-0.017,0.011-4.26,2.105-10.439,4.142c-3.088,1.02-6.658,2.023-10.396,2.761
		c-3.737,0.74-7.642,1.208-11.374,1.206c-3.792,0.002-7.761-0.481-11.553-1.241c-5.688-1.136-10.968-2.887-14.752-4.345
		c-1.893-0.728-3.414-1.381-4.438-1.84c-0.513-0.229-0.899-0.41-1.147-0.528c-0.124-0.059-0.213-0.298-0.265-0.323l-0.05-0.223
		h-0.004l0,0c-0.382,0-4.792-2.169-12.016-4.338c-7.263-2.176-17.377-4.256-29.109-4.26c-5.863,0-12.131,0.598-18.614,1.987
		c-6.481,1.388-13.177,3.645-19.854,6.983c-5.323,2.661-10.628,4.441-15.813,5.553c-5.184,1.111-10.249,1.568-15.052,1.568
		c-9.602,0.004-18.153-1.813-24.224-3.639c-3.035-0.91-5.447-1.815-7.058-2.475c-0.806-0.329-1.41-0.596-1.793-0.771
		c-0.19-0.087-0.326-0.345-0.403-0.382l-0.072-0.229h0.217v0.195c-4-2.084-9.498-0.285-11.593,3.907
		c-2.1,4.198-0.407,9.352,3.593,11.451v0.024c1,0.168,4.861,2.371,12.125,4.552c7.262,2.175,17.426,4.36,29.158,4.364
		c5.864,0,12.156-0.547,18.639-1.936c6.48-1.389,13.189-3.619,19.866-6.958c5.324-2.661,10.634-4.429,15.819-5.54
		C-53.709,106.449-48.64,106-43.837,106c9.602-0.004,18.155,1.816,24.226,3.642c3.035,0.91,5.448,1.816,7.059,2.476
		c0.806,0.329,1.41,0.597,1.793,0.771c0.191,0.087,0.327,0.346,0.404,0.383l0.072,0.229h0.002l0,0c0.361,0,5.148,2.357,12.344,4.758
		c3.644,1.215,7.906,2.338,12.552,3.268c4.646,0.928,9.677,1.521,14.886,1.523c5.208-0.002,10.239-0.668,14.885-1.596
		c6.968-1.396,13.079-3.26,17.521-4.966c4.357-1.676,7.094-2.987,7.375-2.987l0,0h0.002c0.137,0,3.867-2.071,9.897-3.834
		c6.03-1.767,14.349-3.572,23.652-3.568c4.802,0,9.868,0.401,15.052,1.513c5.186,1.111,10.49,2.855,15.814,5.517
		c6.676,3.339,13.371,5.558,19.853,6.946c6.483,1.389,12.751,1.933,18.614,1.933c11.732-0.004,21.847-2.187,29.109-4.361
		c7.264-2.181,11.687-4.372,12.025-4.54c4.199-2.1,5.9-7.206,3.801-11.404C215.006,97.508,209.914,95.805,205.719,97.889z"/>
	<path fill="#FFFFFF" d="M126.775,182.143c-4.932-1.37-9.772-2.228-14.438-2.694c-3.11-0.311-6.144-0.448-9.075-0.448
		c-1.466,0-2.907,0.034-4.321,0.099c-4.24,0.192-8.232,0.654-11.91,1.267c-3.676,0.613-7.039,1.378-10.022,2.181
		c-2.983,0.804-5.589,1.646-7.751,2.418s-3.881,1.475-5.091,1.999c-1.193,0.518-1.888,0.859-2.028,0.93v-0.001
		c-0.004,0.003-0.217,0.107-0.612,0.293c-0.452,0.211-1.146,0.525-2.039,0.909c-0.895,0.383-1.991,0.835-3.254,1.32
		c-1.262,0.485-2.688,1.005-4.241,1.522c-1.554,0.518-3.232,1.034-4.998,1.516s-3.617,0.928-5.513,1.307s-3.835,0.691-5.775,0.906
		c-1.94,0.216-3.881,0.335-5.776,0.335c-0.072,0-0.143,0.009-0.215,0.011C29.643,196.009,29.572,196,29.5,196
		c-1.896,0-3.836-0.119-5.776-0.335c-1.94-0.215-3.88-0.527-5.776-0.906c-1.895-0.379-3.746-0.825-5.512-1.307
		s-3.444-0.998-4.998-1.516c-1.553-0.518-2.979-1.037-4.242-1.522c-1.262-0.485-2.359-0.938-3.254-1.32
		c-0.895-0.384-1.586-0.698-2.038-0.909c-0.227-0.106-0.393-0.186-0.495-0.235l-0.104-0.05l-0.015-0.008v0.001
		c-0.14-0.07-0.834-0.412-2.027-0.93c-1.211-0.524-2.93-1.227-5.092-1.999c-2.161-0.772-4.767-1.614-7.75-2.418
		c-2.983-0.803-6.347-1.567-10.023-2.181c-3.677-0.612-7.669-1.074-11.91-1.267c-1.414-0.064-2.855-0.099-4.321-0.099
		c-2.932,0-5.965,0.138-9.074,0.448c-4.665,0.467-9.507,1.324-14.438,2.694c-4.523,1.256-7.171,5.941-5.914,10.465
		c1.256,4.522,5.941,7.171,10.465,5.914c3.928-1.091,7.806-1.78,11.578-2.157c2.515-0.252,4.981-0.364,7.383-0.364
		c1.201,0,2.385,0.028,3.549,0.081c3.494,0.159,6.814,0.541,9.888,1.054c3.073,0.512,5.897,1.153,8.398,1.827
		c2.501,0.673,4.677,1.378,6.452,2.012s3.15,1.197,4.05,1.587c0.45,0.195,0.78,0.347,0.982,0.441
		c0.102,0.047,0.171,0.08,0.206,0.098l0.016,0.007c0.073,0.037,0.417,0.208,1.007,0.482c0.603,0.281,1.457,0.67,2.531,1.13
		c1.074,0.461,2.368,0.993,3.848,1.562c1.48,0.569,3.147,1.175,4.97,1.782c1.821,0.607,3.799,1.216,5.9,1.789
		s4.328,1.111,6.651,1.576s4.743,0.855,7.232,1.133C24.336,212.838,26.896,213,29.5,213c0.072,0,0.143-0.009,0.215-0.011
		c0.072,0.002,0.143,0.011,0.215,0.011c2.604,0,5.164-0.162,7.653-0.438c2.489-0.277,4.909-0.668,7.231-1.133
		c2.324-0.465,4.551-1.003,6.652-1.576s4.079-1.182,5.9-1.789c1.822-0.607,3.489-1.213,4.969-1.782
		c1.48-0.569,2.773-1.102,3.848-1.562c1.074-0.46,1.93-0.849,2.532-1.13c0.572-0.266,0.907-0.432,0.994-0.477
		c0.011-0.005,0.433-0.212,1.217-0.552c0.898-0.39,2.272-0.953,4.049-1.587s3.952-1.339,6.453-2.012
		c2.501-0.674,5.325-1.315,8.398-1.827c3.073-0.513,6.394-0.895,9.887-1.054c1.164-0.053,2.348-0.081,3.549-0.081
		c2.401,0,4.868,0.112,7.384,0.364c3.771,0.377,7.649,1.066,11.578,2.157c4.523,1.257,9.209-1.392,10.465-5.914
		C133.946,188.084,131.298,183.398,126.775,182.143z"/>
	<path fill="#FFFFFF" d="M165.346,149.636c-7.549-0.757-15.499-2.749-23.482-6.738c-10.017-5.011-20.066-7.519-29.393-8.449
		c-3.11-0.311-6.144-0.448-9.075-0.448c-5.865,0-11.329,0.549-16.231,1.365c-7.354,1.228-13.449,3.056-17.773,4.599
		c-4.294,1.534-6.836,2.787-7.119,2.929v-0.001c-0.009,0.005-0.974,0.483-2.651,1.202c-1.788,0.767-4.39,1.808-7.495,2.843
		c-3.107,1.035-6.719,2.064-10.511,2.822c-3.791,0.76-7.761,1.243-11.552,1.241c-0.095,0-0.188,0.011-0.281,0.015
		C29.688,151.011,29.595,151,29.5,151c-3.792,0.002-7.761-0.481-11.553-1.241c-3.791-0.758-7.404-1.787-10.51-2.822
		c-3.106-1.035-5.707-2.076-7.496-2.843c-0.895-0.384-1.586-0.698-2.038-0.909c-0.227-0.106-0.393-0.186-0.495-0.235l-0.104-0.05
		l-0.015-0.008v0.001c-0.283-0.142-2.824-1.395-7.119-2.929c-4.323-1.543-10.419-3.371-17.773-4.599
		C-32.506,134.549-37.969,134-43.834,134c-2.932,0-5.965,0.138-9.074,0.448c-9.326,0.931-19.376,3.438-29.394,8.449
		c-7.982,3.989-15.933,5.981-23.481,6.738c-4.672,0.468-8.079,4.633-7.612,9.304c0.468,4.671,4.633,8.079,9.304,7.612
		c9.326-0.931,19.376-3.438,29.393-8.449c7.983-3.989,15.934-5.981,23.482-6.738c2.515-0.252,4.981-0.364,7.383-0.364
		c4.802,0,9.338,0.451,13.437,1.135c6.146,1.022,11.3,2.569,14.851,3.839c1.775,0.634,3.15,1.197,4.05,1.587
		c0.45,0.195,0.78,0.347,0.982,0.441c0.102,0.047,0.171,0.08,0.206,0.098l0.016,0.008c0.151,0.075,1.415,0.701,3.538,1.611
		c2.149,0.921,5.173,2.13,8.817,3.345c3.644,1.215,7.906,2.436,12.552,3.365c4.646,0.928,9.677,1.569,14.886,1.571
		c0.095,0,0.188-0.011,0.281-0.015c0.094,0.004,0.187,0.015,0.281,0.015c5.208-0.002,10.238-0.644,14.885-1.571
		c4.646-0.93,8.908-2.15,12.553-3.365c3.644-1.215,6.668-2.424,8.816-3.345c2.091-0.896,3.343-1.515,3.525-1.605l0,0
		c0.018-0.009,1.938-0.951,5.267-2.14c3.552-1.27,8.706-2.816,14.852-3.839c4.097-0.684,8.634-1.135,13.436-1.135
		c2.401,0,4.868,0.112,7.384,0.364c7.549,0.757,15.499,2.749,23.481,6.738c10.018,5.011,20.067,7.519,29.394,8.449
		c4.671,0.467,8.836-2.941,9.304-7.612C173.425,154.269,170.017,150.104,165.346,149.636z"/>
</g>
</svg>
