<?xml version="1.0" encoding="utf-8"?>
<!-- Generator: Adobe Illustrator 15.0.0, SVG Export Plug-In . SVG Version: 6.00 Build 0)  -->
<!DOCTYPE svg PUBLIC "-//W3C//DTD SVG 1.1//EN" "http://www.w3.org/Graphics/SVG/1.1/DTD/svg11.dtd">
<svg version="1.1" id="Layer_1" xmlns="http://www.w3.org/2000/svg" xmlns:xlink="http://www.w3.org/1999/xlink" x="0px" y="0px"
	 width="60px" height="50px" viewBox="0 0 60 50" enable-background="new 0 0 60 50" xml:space="preserve">
<path fill="#FFFFFF" d="M53.236,6.345c-0.233-0.018-0.473,0.029-0.682,0.149l-14.144,8.133l-0.319-0.521
	c-0.281-0.44-0.803-0.682-1.322-0.562l-7.131,1.603c-4.086,0.922-7.973,2.443-11.618,4.527l-4.407,2.523
	c-1.322,0.762-1.923,2.364-1.442,3.767c1.001,2.886,2.524,5.488,4.527,7.731c0.601,0.682,1.482,1.082,2.404,1.082
	c0.561,0,1.122-0.16,1.603-0.44l4.407-2.524c3.605-2.082,6.89-4.728,9.736-7.771l4.928-5.408c0.361-0.4,0.399-0.961,0.16-1.402
	l-0.281-0.521l14.104-8.133c0.561-0.32,0.762-1.081,0.439-1.643C53.997,6.584,53.624,6.375,53.236,6.345z M35.607,16.31
	l-9.615,5.528c-0.561,0.32-0.761,1.082-0.44,1.643c0.24,0.4,0.641,0.601,1.042,0.601c0.2,0,0.4-0.039,0.601-0.159l9.616-5.529
	l-3.767,4.007c-2.685,2.884-5.729,5.369-9.134,7.332l-4.407,2.522c-0.321,0.2-0.761,0.12-1.001-0.159
	c-1.803-2.004-3.125-4.326-3.967-6.892c-0.12-0.32,0-0.721,0.361-0.922l4.407-2.523c3.405-1.963,7.09-3.405,10.937-4.246
	L35.607,16.31z M46.865,38.945c-0.36,0-0.682,0.16-0.922,0.439c-0.721,0.883-1.842,1.362-3.045,1.362
	c-1.201,0-2.323-0.479-3.045-1.362c-0.039-0.08-0.121-0.119-0.201-0.16l-0.039-0.039c-0.041-0.041-0.12-0.082-0.159-0.082
	c-0.041,0-0.04,0.002-0.08-0.039c-0.04-0.039-0.08-0.039-0.16-0.039h-0.08h-0.159h-0.041h-0.039c-0.24,0-0.441,0.08-0.643,0.199
	l-0.04,0.041l-0.04,0.039l-0.079,0.08l-0.04,0.04l-0.16,0.16c-0.722,0.843-1.844,1.321-3.004,1.321h-0.041
	c-1.162,0-2.283-0.52-3.006-1.361l-0.08-0.08c-0.24-0.279-0.562-0.439-0.921-0.439c-0.361,0-0.681,0.16-0.922,0.439
	c-0.721,0.881-1.842,1.362-3.044,1.362s-2.324-0.481-3.045-1.362c-0.24-0.279-0.561-0.439-0.921-0.439
	c-0.361,0-0.682,0.16-0.922,0.439c-0.721,0.881-1.843,1.362-3.044,1.362c-1.202,0-2.324-0.481-3.045-1.362
	c-0.24-0.279-0.561-0.439-0.921-0.439c-0.361,0-0.681,0.16-0.921,0.439c-0.721,0.881-1.843,1.362-3.045,1.362
	c-1.202,0-2.323-0.481-3.044-1.362c-0.44-0.521-1.202-0.561-1.682-0.119c-0.521,0.439-0.562,1.201-0.121,1.682
	c1.202,1.402,2.965,2.203,4.888,2.203c1.482,0,2.844-0.479,3.965-1.321c1.122,0.882,2.484,1.321,3.966,1.321
	s2.845-0.479,3.967-1.321c1.122,0.882,2.484,1.321,3.966,1.321c1.442,0,2.844-0.479,3.926-1.321
	c1.121,0.882,2.523,1.401,4.006,1.401h0.08c1.482,0,2.926-0.521,4.047-1.401c0,0,0.039,0.001,0.039,0.041
	c0.041,0.04,0.082,0.04,0.121,0.079c0.12,0.08,0.28,0.199,0.4,0.279c0.04,0.041,0.121,0.082,0.16,0.121
	c0.121,0.08,0.281,0.16,0.4,0.2c0.041,0.04,0.119,0.04,0.159,0.08c0.2,0.08,0.361,0.16,0.562,0.24c0.041,0,0.08,0,0.08,0.04
	c0.16,0.039,0.319,0.08,0.521,0.119c0.08,0,0.12,0.041,0.2,0.041c0.159,0.041,0.28,0.039,0.44,0.08c0.08,0,0.119,0,0.2,0.039
	c0.199,0.041,0.44,0.041,0.642,0.041c1.481,0,2.844-0.48,3.966-1.322c1.081,0.842,2.403,1.322,3.806,1.322h0.041
	c0.641,0,1.202-0.521,1.202-1.162c0-0.842-0.521-1.401-1.202-1.401c-1.162-0.04-2.203-0.521-2.925-1.362
	C47.547,39.105,47.227,38.945,46.865,38.945z"/>
</svg>
