<?xml version="1.0" encoding="utf-8"?>
<!-- Generator: Adobe Illustrator 15.0.0, SVG Export Plug-In . SVG Version: 6.00 Build 0)  -->
<!DOCTYPE svg PUBLIC "-//W3C//DTD SVG 1.1//EN" "http://www.w3.org/Graphics/SVG/1.1/DTD/svg11.dtd">
<svg version="1.1" id="Layer_1" xmlns="http://www.w3.org/2000/svg" xmlns:xlink="http://www.w3.org/1999/xlink" x="0px" y="0px"
	 width="413px" height="413px" viewBox="-176.5 -181.5 413 413" enable-background="new -176.5 -181.5 413 413"
	 xml:space="preserve">
<g>
	<polygon fill="#FFFFFF" points="47.398,180.472 47.398,180.48 47.404,180.473 	"/>
	<path fill="#FFFFFF" d="M-22.968,100.876c0.07-0.061,0.14-0.124,0.212-0.181c-0.127-0.152-0.248-0.309-0.375-0.461
		C-23.078,100.451-23.021,100.66-22.968,100.876z"/>
	<path fill="#FFFFFF" d="M229.385,16.395c-0.91-0.332-1.889-0.523-2.914-0.523c-12.757,0-25.249,1.168-37.377,3.39
		c1.479-11.792,2.279-24.128,2.278-37.026c0.001-26.892-3.452-56.203-11.323-88.033c-0.021-0.082-0.05-0.158-0.072-0.239
		c-0.04-0.145-0.082-0.288-0.13-0.432c-0.051-0.151-0.107-0.298-0.166-0.443c-0.03-0.073-0.051-0.147-0.083-0.22
		c-0.017-0.041-0.039-0.078-0.057-0.118c-0.072-0.159-0.15-0.312-0.23-0.466c-0.053-0.1-0.104-0.2-0.16-0.298
		c-0.082-0.142-0.171-0.279-0.261-0.415c-0.067-0.104-0.134-0.206-0.205-0.305c-0.087-0.119-0.177-0.232-0.269-0.346
		c-0.086-0.107-0.171-0.214-0.262-0.316c-0.085-0.096-0.176-0.188-0.266-0.279c-0.105-0.107-0.209-0.216-0.318-0.316
		c-0.088-0.081-0.178-0.156-0.27-0.233c-0.117-0.101-0.236-0.202-0.359-0.296c-0.095-0.071-0.192-0.137-0.291-0.205
		c-0.124-0.086-0.248-0.174-0.377-0.254c-0.108-0.066-0.221-0.127-0.332-0.189c-0.123-0.069-0.246-0.139-0.373-0.201
		c-0.125-0.062-0.254-0.117-0.383-0.174c-0.117-0.051-0.234-0.104-0.354-0.149c-0.142-0.054-0.286-0.101-0.431-0.147
		c-0.112-0.036-0.226-0.074-0.34-0.105c-0.149-0.042-0.302-0.075-0.454-0.109c-0.115-0.025-0.229-0.052-0.347-0.072
		c-0.147-0.025-0.297-0.044-0.446-0.062c-0.127-0.015-0.254-0.031-0.381-0.041c-0.138-0.01-0.275-0.014-0.414-0.017
		c-0.145-0.004-0.289-0.008-0.434-0.004c-0.123,0.003-0.246,0.013-0.369,0.021c-0.162,0.012-0.324,0.024-0.486,0.045
		c-0.112,0.014-0.225,0.034-0.336,0.053c-0.17,0.029-0.34,0.06-0.508,0.099c-0.043,0.011-0.087,0.015-0.13,0.025
		c-0.077,0.019-0.149,0.047-0.226,0.068c-0.151,0.042-0.302,0.085-0.451,0.136c-0.146,0.049-0.286,0.104-0.427,0.16
		c-0.077,0.029-0.154,0.053-0.23,0.086c-0.313,0.136-10.117,4.395-24.714,13.488c-12.368,7.711-28.198,18.898-44.576,34.023
		c-6.184-22.062-14.416-40.906-23.554-57.605c-11.833-21.627-25.118-39.689-37.331-56.787c-1.604-2.243-4.234-3.582-6.99-3.559
		c-2.756,0.024-5.363,1.408-6.927,3.68c-8.116,11.789-16.702,23.797-25.036,36.88c-12.498,19.619-24.412,41.691-33.118,68.94
		c-0.861,2.693-1.681,5.451-2.478,8.246c-13.88-12.791-27.355-22.766-38.652-30.18c-17.685-11.604-30.05-16.975-30.401-17.127
		c-0.076-0.033-0.153-0.057-0.229-0.086c-0.142-0.057-0.283-0.111-0.428-0.16c-0.149-0.051-0.299-0.094-0.449-0.136
		c-0.077-0.021-0.15-0.05-0.228-0.068c-0.044-0.011-0.087-0.015-0.13-0.025c-0.169-0.039-0.338-0.069-0.507-0.099
		c-0.112-0.019-0.225-0.039-0.337-0.053c-0.163-0.021-0.326-0.033-0.488-0.045c-0.122-0.008-0.244-0.018-0.365-0.021
		c-0.146-0.004-0.293,0-0.439,0.004c-0.137,0.003-0.272,0.007-0.407,0.017c-0.131,0.01-0.26,0.026-0.39,0.043
		c-0.146,0.018-0.293,0.035-0.438,0.061c-0.121,0.021-0.239,0.049-0.358,0.074c-0.148,0.033-0.297,0.065-0.442,0.105
		c-0.119,0.033-0.234,0.072-0.352,0.11c-0.141,0.046-0.281,0.091-0.419,0.144c-0.123,0.047-0.243,0.101-0.364,0.153
		c-0.125,0.056-0.251,0.108-0.373,0.169c-0.13,0.064-0.255,0.135-0.381,0.206c-0.108,0.062-0.218,0.12-0.324,0.186
		c-0.131,0.081-0.257,0.169-0.383,0.257c-0.096,0.067-0.193,0.132-0.285,0.203c-0.125,0.094-0.245,0.196-0.365,0.299
		c-0.089,0.075-0.179,0.149-0.265,0.229c-0.111,0.104-0.217,0.212-0.323,0.32c-0.088,0.092-0.176,0.181-0.26,0.275
		c-0.093,0.104-0.18,0.214-0.268,0.323c-0.09,0.111-0.179,0.222-0.263,0.339c-0.073,0.101-0.142,0.207-0.21,0.312
		c-0.088,0.134-0.175,0.267-0.255,0.406c-0.059,0.102-0.112,0.206-0.168,0.312c-0.077,0.147-0.153,0.297-0.222,0.449
		c-0.02,0.043-0.043,0.082-0.062,0.125c-0.033,0.076-0.056,0.154-0.087,0.232c-0.055,0.139-0.109,0.278-0.158,0.422
		c-0.051,0.152-0.096,0.307-0.139,0.461c-0.02,0.073-0.047,0.143-0.065,0.218c-7.873,31.832-11.326,61.144-11.325,88.036
		c-0.002,13.23,0.854,25.857,2.407,37.923c-13.565-2.808-27.613-4.289-41.999-4.288c-4.694,0-8.5,3.806-8.5,8.5
		c0,0.924,0.152,1.812,0.425,2.645c0.294,27.631,6.019,54.003,16.182,78.029c15.661,37.021,41.8,68.244,74.711,90.479
		C-52.211,217.736-12.537,230.5,30.092,230.5c0.033,0,0.066,0,0.099,1c0.015,0,0.029,0,0.044,0c0.666,0,1.328-0.269,1.993-0.275
		c0.012,0.001,0.022-0.124,0.034-0.123c0.141,0.009,0.281-0.049,0.424-0.047c0.142,0.003,0.283-0.028,0.426-0.033
		c0.128-0.004,0.256-0.028,0.385-0.038c0.062-0.005,0.123-0.013,0.184-0.02c27.196-0.445,53.153-6.154,76.832-16.17
		c37.02-15.661,68.492-41.802,90.729-74.712c22.235-32.905,35.229-72.631,35.227-115.314
		C236.467,20.559,233.402,17.071,229.385,16.395z M147.348-80.221c7.429-4.876,13.825-8.557,18.613-11.133
		c5.844,26.568,8.41,51.055,8.411,73.588c-0.003,14.496-1.082,28.17-3.014,41.098c-8.628,2.388-17.033,5.309-25.166,8.75
		c-12.8,5.414-24.935,12.082-36.255,19.85c0.482-7.813,0.749-15.989,0.749-24.616c0.001-26.801-2.433-50.217-6.642-70.99
		c-0.088-0.435-0.185-0.856-0.274-1.29C119.305-60.334,134.782-71.979,147.348-80.221z M-31.023,27.315
		c0-21.401,1.614-40.29,4.431-57.218c5.051,5.828,10.015,12.074,14.789,18.75C0.893,6.594,12.27,27.363,20.482,51.467
		c0.76,2.228,1.482,4.492,2.186,6.777c-5.558,19.438-9.184,40.729-10.119,63.938C1.705,102.639-12.217,85.051-28.564,70.062
		C-30.14,57.193-31.021,43.051-31.023,27.315z M89.343-29.52c2.759,16.891,4.341,35.666,4.344,56.835
		c-0.001,14.126-0.706,26.948-1.99,38.69c-13.794,11.92-25.995,25.633-36.232,40.786c-1.839,2.722-3.608,5.494-5.319,8.307
		c-1.326-20.478-4.752-39.424-9.739-56.87c3.321-10.779,7.266-20.928,11.698-30.454c10.25-22.018,23.073-40.771,36.572-56.532
		C88.896-29.016,89.121-29.263,89.343-29.52z M47.398,180.472l0.006,0.001c-0.002,0.003-0.004,0.005-0.006,0.008
		C47.398,180.478,47.398,180.475,47.398,180.472z M-22.968,100.876c-0.054-0.216-0.11-0.425-0.163-0.642
		c0.127,0.152,0.248,0.309,0.375,0.461C-22.828,100.752-22.897,100.815-22.968,100.876z M-41.365,96.76
		c6.326,29.774,16.743,52.898,28.615,72.691c6.649,11.088,13.72,21.136,20.774,30.801c-20.548-13.366-49.794-36.453-74.099-71.001
		c-12.602-17.906-23.894-38.884-32.049-63.257c-2.375-7.102-4.477-14.503-6.273-22.194c3.43,1.222,6.819,2.528,10.155,3.938
		c18.181,7.689,34.897,18.168,49.656,30.862C-43.673,84.919-42.598,90.969-41.365,96.76z M53.49,201.252
		c3.239-4.499,6.488-9.047,9.707-13.716c12.469-18.08,24.474-38.014,33.232-63.53c4.381-12.753,7.953-26.885,10.42-42.844
		c0.325-2.1,0.628-4.236,0.914-6.4c4.168-3.363,8.463-6.573,12.91-9.578c14.438-9.751,30.284-17.555,47.172-23.053
		c-3.953,17.453-9.506,33.388-16.146,47.899c-10.19,22.26-22.937,41.191-36.35,57.087c-20.115,23.84-41.743,40.832-58.287,51.809
		C55.84,199.737,54.654,200.506,53.49,201.252z M1.995-112.73c9.103-16.611,19.296-31.396,29.446-46.007
		c5.926,8.308,11.871,16.778,17.602,25.721c12.002,18.735,23.084,39.499,31.245,65.22c1.774,5.598,3.4,11.448,4.874,17.55
		c-8.001,8.458-15.938,17.872-23.475,28.31C50.311-6.176,39.865,11.919,31.539,32.469c-1.642-4.053-3.365-8.01-5.163-11.869
		C15.393-2.992,1.674-23.037-12.695-39.816c-3.199-3.734-6.431-7.287-9.672-10.703C-16.387-74.85-7.805-94.845,1.995-112.73z
		 M-111.305-17.764c0-22.533,2.566-47.021,8.411-73.589c3.82,2.056,8.654,4.806,14.234,8.317
		c13.168,8.277,30.362,20.721,47.657,37.777c-4.439,21.088-7.025,44.986-7.021,72.573c0,9.724,0.324,18.912,0.934,27.632
		c-1.811-1.311-3.639-2.598-5.493-3.85c-16.882-11.408-35.563-20.376-55.515-26.412C-110.159,11.365-111.304-2.764-111.305-17.764z
		 M-126.688,130.562c-18.953-28.062-30.565-61.434-32.125-97.471c12.297,0.582,24.273,2.341,35.837,5.156
		c4.25,21.632,10.812,41.236,18.886,58.859c10.908,23.825,24.536,44.054,38.815,60.974c19.74,23.388,40.702,40.457,57.627,52.125
		c-12.41-2.521-24.376-6.253-35.774-11.073C-77.37,184.775-106.281,160.77-126.688,130.562z M136.029,181.687
		c-19.18,12.954-40.84,22.475-64.134,27.707c20.839-14.519,47.503-37.1,70.432-69.347c13.615-19.155,25.892-41.727,34.752-67.967
		c3.712-10.992,6.813-22.635,9.175-34.922c10.695-2.314,21.729-3.729,33.023-4.151c-0.991,23.137-6.117,45.171-14.678,65.415
		C190.242,132.37,166.234,161.281,136.029,181.687z"/>
</g>
</svg>
